SplineFontDB: 3.0
FontName: Aileron-UltraLight
FullName: Aileron UltraLight
FamilyName: Aileron UltraLight
Weight: Light
Copyright: No Rights Reserved.
Version: 001.001
ItalicAngle: 0
UnderlinePosition: -200
UnderlineWidth: 50
Ascent: 770
Descent: 230
InvalidEm: 0
sfntRevision: 0x00011a1d
LayerCount: 2
Layer: 0 0 "Back" 1
Layer: 1 0 "Fore" 0
PreferredKerning: 4
XUID: [1021 1017 285194369 15892]
StyleMap: 0x0040
FSType: 8
OS2Version: 3
OS2_WeightWidthSlopeOnly: 0
OS2_UseTypoMetrics: 0
CreationTime: 1408560985
ModificationTime: 1489142218
PfmFamily: 81
TTFWeight: 250
TTFWidth: 5
LineGap: 0
VLineGap: 0
Panose: 0 0 3 0 0 0 0 0 0 0
OS2TypoAscent: 770
OS2TypoAOffset: 0
OS2TypoDescent: -230
OS2TypoDOffset: 0
OS2TypoLinegap: 200
OS2WinAscent: 970
OS2WinAOffset: 0
OS2WinDescent: 230
OS2WinDOffset: 0
HheadAscent: 970
HheadAOffset: 0
HheadDescent: -230
HheadDOffset: 0
OS2SubXSize: 650
OS2SubYSize: 600
OS2SubXOff: 0
OS2SubYOff: 75
OS2SupXSize: 650
OS2SupYSize: 600
OS2SupXOff: 0
OS2SupYOff: 350
OS2StrikeYSize: 50
OS2StrikeYPos: 318
OS2CapHeight: 690
OS2XHeight: 530
OS2Vendor: 'UKWN'
OS2CodePages: 20000093.00000000
OS2UnicodeRanges: 00000007.00000000.00000000.00000000
Lookup: 1 0 0 "'swsh' Swash lookup 13" { "'swsh' Swash lookup 13-1" ("swash") } ['swsh' ('DFLT' <'dflt' > 'cyrl' <'dflt' > 'cyrl' <'BGR ' > 'cyrl' <'RUS ' > 'cyrl' <'SRB ' > 'cyrl' <'MKD ' > 'latn' <'CAT ' 'MOL ' 'ROM ' 'dflt' > ) ]
Lookup: 1 0 0 "'aalt' Access All Alternates lookup 0" { "'aalt' Access All Alternates lookup 0 subtable"  } ['aalt' ('DFLT' <'dflt' > 'cyrl' <'BGR ' 'dflt' > 'latn' <'CAT ' 'MOL ' 'ROM ' 'dflt' > ) ]
Lookup: 1 0 0 "'locl' Localized Forms in Cyrillic lookup 1" { "'locl' Localized Forms in Cyrillic lookup 1 subtable"  } ['locl' ('cyrl' <'BGR ' > ) ]
Lookup: 1 0 0 "'locl' Localized Forms in Latin lookup 2" { "'locl' Localized Forms in Latin lookup 2 subtable"  } ['locl' ('latn' <'MOL ' > ) ]

StartChar: .notdef
Encoding: 256 -1 0
GlifName: _notdef
Width: 500
Flags: W
HStem: 0 50<80 420> 650 50<80 420>
VStem: 0 50<95 605> 450 50<95 605>
LayerCount: 2
Fore
SplineSet
0 0 m 1
 0 700 l 1
 500 700 l 1
 500 0 l 1
 0 0 l 1
250 395 m 1
 420 650 l 1
 80 650 l 1
 250 395 l 1
280 350 m 1
 450 95 l 1
 450 605 l 1
 280 350 l 1
80 50 m 1
 420 50 l 1
 250 305 l 1
 80 50 l 1
50 605 m 1
 50 95 l 1
 220 350 l 1
 50 605 l 1
EndSplineSet
Validated: 1
EndChar

StartChar: exclam
Encoding: 33 33 2
GlifName: exclam
Width: 202
GlyphClass: 2
Flags: W
HStem: -14 40<81.0066 120.993> 670 20G<87 115>
VStem: 81 40<-13.9934 25.9934> 91 20<110 690>
LayerCount: 2
Fore
SplineSet
111 110 m 1xd0
 91 110 l 1
 87 690 l 1
 115 690 l 1
 111 110 l 1xd0
101 26 m 0
 112 26 121 17 121 6 c 0
 121 -5 112 -14 101 -14 c 0
 90 -14 81 -5 81 6 c 0xe0
 81 17 90 26 101 26 c 0
EndSplineSet
Validated: 1
EndChar

StartChar: quotedbl
Encoding: 34 34 3
GlifName: quotedbl
Width: 150
GlyphClass: 2
Flags: W
HStem: 491 244<24 40 96 112>
VStem: 24 16<491 735> 96 16<491 735>
LayerCount: 2
Fore
SplineSet
40 491 m 1
 24 491 l 1
 21 735 l 1
 43 735 l 1
 40 491 l 1
112 491 m 1
 96 491 l 1
 93 735 l 1
 115 735 l 1
 112 491 l 1
EndSplineSet
Validated: 1
EndChar

StartChar: numbersign
Encoding: 35 35 4
GlifName: numbersign
Width: 530
GlyphClass: 2
Flags: W
HStem: 0 21G<115 140.245 247 272.245> 245 21<55 167 193 299 325 445> 424 21<85 205 231 338 363 475> 670 20G<257.755 283 389.755 415>
LayerCount: 2
Fore
SplineSet
358 424 m 1
 325 266 l 1
 445 266 l 1
 445 245 l 1
 320 245 l 1
 268 0 l 1
 247 0 l 1
 299 245 l 1
 188 245 l 1
 136 0 l 1
 115 0 l 1
 167 245 l 1
 55 245 l 1
 55 266 l 1
 172 266 l 1
 205 424 l 1
 85 424 l 1
 85 445 l 1
 210 445 l 1
 262 690 l 1
 283 690 l 1
 231 445 l 1
 342 445 l 1
 394 690 l 1
 415 690 l 1
 363 445 l 1
 475 445 l 1
 475 424 l 1
 358 424 l 1
338 424 m 1
 227 424 l 1
 193 266 l 1
 304 266 l 1
 338 424 l 1
EndSplineSet
Validated: 1
EndChar

StartChar: dollar
Encoding: 36 36 5
GlifName: dollar
Width: 530
GlyphClass: 2
Flags: W
HStem: -14 21<206.188 264 286 349.336> 333 25<228.904 264 286 308.085> 683 21<213.65 264 286 340.553>
VStem: 52 22<135.119 180> 82 24<462.943 586.274> 264 22<-90 -14 7 329 358 683 704 780> 453 24<96.0819 215.09 514 571.548>
LayerCount: 2
Fore
SplineSet
286 683 m 1
 286 354 l 1
 407 319 477 256 477 155 c 0
 477 68 411 -10 286 -14 c 1
 286 -90 l 1
 264 -90 l 1
 264 -14 l 1
 158 -9 65 52 52 180 c 1
 74 180 l 1
 86 72 162 12 264 7 c 1
 264 333 l 1
 169 361 82 409 82 525 c 0
 82 631 162 698 264 704 c 1
 264 780 l 1
 286 780 l 1
 286 704 l 1
 406 700 466 615 479 514 c 1
 457 514 l 1
 444 617 383 679 286 683 c 1
106 525 m 0
 106 424 176 385 264 358 c 1
 264 683 l 1
 183 678 106 626 106 525 c 0
286 329 m 1
 286 7 l 1
 393 10 453 71 453 153 c 0
 453 244 393 296 286 329 c 1
EndSplineSet
Validated: 1
EndChar

StartChar: percent
Encoding: 37 37 6
GlifName: percent
Width: 699
GlyphClass: 2
Flags: W
HStem: -14 21<455.204 544.796> 0 21G<113 151.957> 283 21<455.204 544.796> 386 21<154.204 243.796> 670 20G<547.043 586> 683 21<154.204 243.796>
VStem: 71 24<475.307 615.351> 303 24<475.307 615.351> 372 24<75.3066 215.351> 604 24<75.3066 215.351>
LayerCount: 2
Fore
SplineSet
199 704 m 0x37c0
 279 704 327 635 327 545 c 0
 327 457 279 386 199 386 c 0
 119 386 71 457 71 545 c 0
 71 635 119 704 199 704 c 0x37c0
139 0 m 1x7bc0
 113 0 l 1
 560 690 l 1
 586 690 l 1
 139 0 l 1x7bc0
199 683 m 0x37c0
 131 683 95 626 95 545 c 0
 95 465 131 407 199 407 c 0
 267 407 303 465 303 545 c 0
 303 626 267 683 199 683 c 0x37c0
500 304 m 0
 580 304 628 235 628 145 c 0
 628 57 580 -14 500 -14 c 0xb3c0
 420 -14 372 57 372 145 c 0
 372 235 420 304 500 304 c 0
500 283 m 0
 432 283 396 226 396 145 c 0
 396 65 432 7 500 7 c 0
 568 7 604 65 604 145 c 0
 604 226 568 283 500 283 c 0
EndSplineSet
Validated: 1
EndChar

StartChar: ampersand
Encoding: 38 38 7
GlifName: ampersand
Width: 640
GlyphClass: 2
Flags: W
HStem: -14 21<219.021 476.723> 334 21<262.123 486 508 618> 683 21<256.21 448.315>
VStem: 70 24<95.9088 219.403> 108 24<450.177 578.461> 486 22<17.1982 334 355 507>
LayerCount: 2
Fore
SplineSet
618 355 m 1
 618 334 l 1
 508 334 l 1
 508 1 l 1
 451 -9 377 -14 333 -14 c 0
 172 -14 70 22 70 158 c 0
 70 268 152 331 264 344 c 1
 177 355 108 403 108 516 c 0
 108 624 199 704 332 704 c 0
 381 704 414 701 452 694 c 1
 452 672 l 1
 411 680 378 683 329 683 c 0
 218 683 132 621 132 517 c 0
 132 386 235 360 315 356 c 0
 335 355 354 355 376 355 c 2
 486 355 l 1
 486 507 l 1
 508 507 l 1
 508 355 l 1
 618 355 l 1
94 158 m 0
 94 38 190 7 335 7 c 0
 376 7 446 11 486 19 c 1
 486 334 l 1
 376 334 l 2
 354 334 335 334 315 332 c 0
 200 322 94 283 94 158 c 0
EndSplineSet
Validated: 1
EndChar

StartChar: quotesingle
Encoding: 39 39 8
GlifName: quotesingle
Width: 78
GlyphClass: 2
Flags: W
HStem: 491 244<24 40>
VStem: 24 16<491 735>
LayerCount: 2
Fore
SplineSet
40 491 m 1
 24 491 l 1
 21 735 l 1
 43 735 l 1
 40 491 l 1
EndSplineSet
Validated: 1
EndChar

StartChar: parenleft
Encoding: 40 40 9
GlifName: parenleft
Width: 293
GlyphClass: 2
Flags: W
VStem: 121 24<209.62 490.38>
LayerCount: 2
Fore
SplineSet
237 780 m 1
 259 780 l 1
 187 662 145 510 145 350 c 0
 145 190 187 38 259 -80 c 1
 237 -80 l 1
 167 26 121 192 121 350 c 0
 121 508 167 674 237 780 c 1
EndSplineSet
Validated: 1
EndChar

StartChar: parenright
Encoding: 41 41 10
GlifName: parenright
Width: 293
GlyphClass: 2
Flags: W
VStem: 148 24<209.62 490.38>
LayerCount: 2
Fore
SplineSet
34 780 m 1
 56 780 l 1
 126 674 172 508 172 350 c 0
 172 192 126 26 56 -80 c 1
 34 -80 l 1
 106 38 148 190 148 350 c 0
 148 510 106 662 34 780 c 1
EndSplineSet
Validated: 1
EndChar

StartChar: asterisk
Encoding: 42 42 11
GlifName: asterisk
Width: 530
GlyphClass: 2
Flags: W
VStem: 256 18<280 474>
LayerCount: 2
Fore
SplineSet
274 280 m 1
 433 337 l 1
 440 315 l 1
 280 263 l 1
 393 114 l 1
 373 100 l 1
 265 254 l 1
 157 100 l 1
 137 114 l 1
 250 263 l 1
 90 315 l 1
 97 337 l 1
 256 280 l 1
 253 474 l 1
 277 474 l 1
 274 280 l 1
EndSplineSet
Validated: 1
EndChar

StartChar: plus
Encoding: 43 43 12
GlifName: plus
Width: 530
GlyphClass: 2
Flags: W
HStem: 307 21<65 254 276 465>
VStem: 254 22<87 307 328 548>
LayerCount: 2
Fore
SplineSet
465 307 m 1
 276 307 l 1
 276 87 l 1
 254 87 l 1
 254 307 l 1
 65 307 l 1
 65 328 l 1
 254 328 l 1
 254 548 l 1
 276 548 l 1
 276 328 l 1
 465 328 l 1
 465 307 l 1
EndSplineSet
Validated: 1
EndChar

StartChar: comma
Encoding: 44 44 13
GlifName: comma
Width: 150
GlyphClass: 2
Flags: W
HStem: -116 140
VStem: -2 70
LayerCount: 2
Fore
SplineSet
68 19 m 1
 17 -116 l 1
 -2 -116 l 1
 44 24 l 1
 67 24 l 1
 68 19 l 1
EndSplineSet
Validated: 1
EndChar

StartChar: hyphen
Encoding: 45 45 14
GlifName: hyphen
Width: 274
GlyphClass: 2
Flags: W
HStem: 271 21<32 242>
VStem: 32 210<271 292>
LayerCount: 2
Fore
SplineSet
242 271 m 1
 32 271 l 1
 32 292 l 1
 242 292 l 1
 242 271 l 1
EndSplineSet
Validated: 1
EndChar

StartChar: period
Encoding: 46 46 15
GlifName: period
Width: 150
GlyphClass: 2
Flags: W
HStem: -14 40<40.0066 79.9934>
VStem: 40 40<-13.9934 25.9934>
LayerCount: 2
Fore
SplineSet
60 26 m 0
 71 26 80 17 80 6 c 0
 80 -5 71 -14 60 -14 c 0
 49 -14 40 -5 40 6 c 0
 40 17 49 26 60 26 c 0
EndSplineSet
Validated: 1
EndChar

StartChar: slash
Encoding: 47 47 16
GlifName: slash
Width: 263
GlyphClass: 2
Flags: W
VStem: -5 273
LayerCount: 2
Fore
SplineSet
17 -30 m 1
 -5 -30 l 1
 246 720 l 1
 268 720 l 1
 17 -30 l 1
EndSplineSet
Validated: 1
EndChar

StartChar: zero
Encoding: 48 48 17
GlifName: zero
Width: 530
GlyphClass: 2
Flags: W
HStem: -14 21<200.886 329.114> 683 21<200.886 329.114>
VStem: 36 24<206.5 483.921> 470 24<206.079 483.5>
LayerCount: 2
Fore
SplineSet
265 704 m 0
 430 704 494 555 494 345 c 0
 494 134 430 -14 265 -14 c 0
 100 -14 36 135 36 345 c 0
 36 556 100 704 265 704 c 0
265 7 m 0
 418 7 470 154 470 345 c 0
 470 535 418 683 265 683 c 0
 112 683 60 536 60 345 c 0
 60 155 112 7 265 7 c 0
EndSplineSet
Validated: 1
EndChar

StartChar: one
Encoding: 49 49 18
GlifName: one
Width: 530
GlyphClass: 2
Flags: W
HStem: 0 21G<327 349> 670 20G<332.5 349>
VStem: 327 22<0 666>
LayerCount: 2
Fore
SplineSet
349 690 m 1
 349 0 l 1
 327 0 l 1
 327 666 l 1
 137 548 l 1
 137 573 l 1
 296 673 l 2
 320 688 327 690 338 690 c 2
 349 690 l 1
EndSplineSet
Validated: 1
EndChar

StartChar: two
Encoding: 50 50 19
GlifName: two
Width: 530
GlyphClass: 2
Flags: W
HStem: 0 21<74 481> 683 21<221.134 348.048>
VStem: 70 22<488 547.514> 452 24<450.08 581.029>
LayerCount: 2
Fore
SplineSet
481 21 m 1
 481 0 l 1
 40 0 l 1
 40 16 l 1
 279 248 l 2
 412 378 452 438 452 516 c 0
 452 610 392 683 283 683 c 0
 180 683 104 610 93 498 c 2
 92 488 l 1
 70 488 l 1
 71 498 l 2
 84 623 170 704 283 704 c 0
 412 704 476 619 476 516 c 0
 476 428 416 350 298 237 c 2
 74 21 l 1
 481 21 l 1
EndSplineSet
Validated: 1
EndChar

StartChar: three
Encoding: 51 51 20
GlifName: three
Width: 530
GlyphClass: 2
Flags: W
HStem: -14 21<197.032 337.955> 343 21<239 321.311> 683 21<220.846 355.187>
VStem: 45 22<146.016 204> 76 22<499 557.125> 453 24<474.393 592.784> 464 24<117.651 243.532>
LayerCount: 2
Fore
SplineSet
328 357 m 1xfc
 426 342 488 287 488 183 c 0
 488 60 391 -14 264 -14 c 0
 144 -14 60 58 46 194 c 2
 45 204 l 1
 67 204 l 1
 68 194 l 2
 79 86 146 7 264 7 c 0
 378 7 464 70 464 183 c 0xfa
 464 274 401 343 256 343 c 2
 239 343 l 1
 239 364 l 1
 256 364 l 2
 348 364 453 425 453 529 c 0
 453 635 379 683 286 683 c 0
 183 683 110 619 99 509 c 2
 98 499 l 1
 76 499 l 1
 77 509 l 2
 89 633 176 704 287 704 c 0
 411 704 477 629 477 531 c 0
 477 445 413 375 328 357 c 1xfc
EndSplineSet
Validated: 1
EndChar

StartChar: four
Encoding: 52 52 21
GlifName: four
Width: 530
GlyphClass: 2
Flags: W
HStem: 0 21G<383 405> 200 21<50 383 405 504> 670 20G<372.515 405>
VStem: 383 22<0 200 221 656>
LayerCount: 2
Fore
SplineSet
504 200 m 1
 405 200 l 1
 405 0 l 1
 383 0 l 1
 383 200 l 1
 21 200 l 1
 21 216 l 1
 388 690 l 1
 405 690 l 1
 405 221 l 1
 504 221 l 1
 504 200 l 1
383 221 m 1
 383 656 l 1
 363 628 332 585 293 535 c 2
 50 221 l 1
 383 221 l 1
EndSplineSet
Validated: 1
EndChar

StartChar: five
Encoding: 53 53 22
GlifName: five
Width: 530
GlyphClass: 2
Flags: W
HStem: -14 21<194.619 321.729> 411 21<204.126 335.632> 665 21<148 479>
VStem: 50 22<133.743 188> 457 24<135.804 288.405>
LayerCount: 2
Fore
SplineSet
275 432 m 0
 404 432 481 336 481 211 c 0
 481 69 378 -14 257 -14 c 0
 163 -14 65 41 51 178 c 2
 50 188 l 1
 72 188 l 1
 73 178 l 2
 83 79 151 7 258 7 c 0
 354 7 457 70 457 210 c 0
 457 333 381 411 273 411 c 0
 191 411 124 376 86 295 c 1
 64 295 l 1
 129 686 l 1
 479 686 l 1
 479 665 l 1
 148 665 l 1
 90 334 l 1
 128 383 l 1
 169 414 216 432 275 432 c 0
EndSplineSet
Validated: 1
EndChar

StartChar: six
Encoding: 54 54 23
GlifName: six
Width: 530
GlyphClass: 2
Flags: W
HStem: -14 21<203.822 332.152> 437 21<207.807 336.494> 683 21<218.951 350.717>
VStem: 43 20<304 431.912> 460 22<518 564.807> 471 24<144.906 294.715>
LayerCount: 2
Fore
SplineSet
275 458 m 0xf8
 418 458 495 347 495 219 c 0xf4
 495 90 402 -14 266 -14 c 0
 130 -14 43 75 43 299 c 0
 43 585 134 704 285 704 c 0
 407 704 460 636 482 528 c 2
 484 518 l 1
 462 518 l 1
 460 528 l 2
 439 633 382 683 285 683 c 0
 175 683 68 617 63 304 c 1
 83 355 l 1
 127 422 196 458 275 458 c 0xf8
267 7 m 0
 392 7 471 102 471 218 c 0
 471 344 393 437 273 437 c 0
 161 437 70 351 70 236 c 0
 70 109 140 7 267 7 c 0
EndSplineSet
Validated: 1
EndChar

StartChar: seven
Encoding: 55 55 24
GlifName: seven
Width: 530
GlyphClass: 2
Flags: W
HStem: 0 21G<107 143.722> 669 21<45 467>
LayerCount: 2
Fore
SplineSet
497 690 m 1
 497 679 l 1
 133 0 l 1
 107 0 l 1
 467 669 l 1
 45 669 l 1
 45 690 l 1
 497 690 l 1
EndSplineSet
Validated: 1
EndChar

StartChar: eight
Encoding: 56 56 25
GlifName: eight
Width: 530
GlyphClass: 2
Flags: W
HStem: -15 21<192.128 336.324> 348 21<206.512 344.42> 683 21<205.534 341.58>
VStem: 39 24<113.503 237.928> 73 24<462.946 586.575> 449 24<462.575 586.575> 467 24<115.906 240.216>
LayerCount: 2
Fore
SplineSet
344 359 m 1xfc
 442 336 491 268 491 175 c 0xfa
 491 52 386 -15 265 -15 c 0
 136 -15 39 52 39 175 c 0
 39 267 97 335 194 359 c 1
 117 380 73 442 73 525 c 0
 73 623 144 704 273 704 c 0
 408 704 473 623 473 525 c 0
 473 441 424 378 344 359 c 1xfc
97 525 m 0
 97 416 187 369 273 369 c 0
 359 369 449 416 449 525 c 0xfc
 449 622 380 683 273 683 c 0
 166 683 97 622 97 525 c 0
267 6 m 0
 358 6 467 56 467 175 c 0xfa
 467 276 400 348 269 348 c 0
 138 348 63 276 63 175 c 0
 63 56 168 6 267 6 c 0
EndSplineSet
Validated: 1
EndChar

StartChar: nine
Encoding: 57 57 26
GlifName: nine
Width: 530
GlyphClass: 2
Flags: W
HStem: -14 21<180.151 306.409> 232 21<193.506 322.193> 683 21<197.848 326.178>
VStem: 35 24<395.285 545.094> 46 22<129.514 172> 467 20<261.624 386>
LayerCount: 2
Fore
SplineSet
264 704 m 0xf4
 400 704 487 615 487 391 c 0
 487 115 397 -14 246 -14 c 0
 124 -14 70 54 48 162 c 2
 46 172 l 1
 68 172 l 1xec
 70 162 l 2
 91 57 149 7 246 7 c 0
 356 7 462 82 467 386 c 1
 447 335 l 1
 403 268 334 232 255 232 c 0
 112 232 35 343 35 471 c 0
 35 600 128 704 264 704 c 0xf4
257 253 m 0
 369 253 460 339 460 454 c 0
 460 581 390 683 263 683 c 0
 138 683 59 588 59 472 c 0xf4
 59 346 137 253 257 253 c 0
EndSplineSet
Validated: 1
EndChar

StartChar: colon
Encoding: 58 58 27
GlifName: colon
Width: 150
GlyphClass: 2
Flags: W
HStem: -14 40<40.0066 79.9934> 500 40<40.0066 79.9934>
VStem: 40 40<-13.9934 25.9934 500.007 539.993>
LayerCount: 2
Fore
SplineSet
60 540 m 0
 71 540 80 531 80 520 c 0
 80 509 71 500 60 500 c 0
 49 500 40 509 40 520 c 0
 40 531 49 540 60 540 c 0
60 26 m 0
 71 26 80 17 80 6 c 0
 80 -5 71 -14 60 -14 c 0
 49 -14 40 -5 40 6 c 0
 40 17 49 26 60 26 c 0
EndSplineSet
Validated: 1
EndChar

StartChar: semicolon
Encoding: 59 59 28
GlifName: semicolon
Width: 150
GlyphClass: 2
Flags: W
HStem: 500 40<40.0066 79.9934>
VStem: 40 40<500.007 539.993>
LayerCount: 2
Fore
SplineSet
60 540 m 0
 71 540 80 531 80 520 c 0
 80 509 71 500 60 500 c 0
 49 500 40 509 40 520 c 0
 40 531 49 540 60 540 c 0
68 19 m 1
 17 -116 l 1
 -2 -116 l 1
 44 24 l 1
 67 24 l 1
 68 19 l 1
EndSplineSet
Validated: 1
EndChar

StartChar: less
Encoding: 60 60 29
GlifName: less
Width: 530
GlyphClass: 2
Flags: W
LayerCount: 2
Fore
SplineSet
472 445 m 1
 101 265 l 1
 472 85 l 1
 472 60 l 1
 71 255 l 1
 71 275 l 1
 472 470 l 1
 472 445 l 1
EndSplineSet
Validated: 1
EndChar

StartChar: equal
Encoding: 61 61 30
GlifName: equal
Width: 530
GlyphClass: 2
Flags: W
HStem: 217 21<55 475> 397 21<55 475>
LayerCount: 2
Fore
SplineSet
475 397 m 1
 55 397 l 1
 55 418 l 1
 475 418 l 1
 475 397 l 1
475 217 m 1
 55 217 l 1
 55 238 l 1
 475 238 l 1
 475 217 l 1
EndSplineSet
Validated: 1
EndChar

StartChar: greater
Encoding: 62 62 31
GlifName: greater
Width: 530
GlyphClass: 2
Flags: W
LayerCount: 2
Fore
SplineSet
459 275 m 1
 459 255 l 1
 58 60 l 1
 58 85 l 1
 429 265 l 1
 58 445 l 1
 58 470 l 1
 459 275 l 1
EndSplineSet
Validated: 1
EndChar

StartChar: question
Encoding: 63 63 32
GlifName: question
Width: 522
GlyphClass: 2
Flags: W
HStem: -14 40<222.007 261.993> 683 21<195.622 323.24>
VStem: 50 22<494 553.403> 222 40<-13.9934 25.9934> 231 20<110 203.113> 426 24<458.307 590.094>
LayerCount: 2
Fore
SplineSet
259 704 m 0xec
 384 704 450 625 450 526 c 0
 450 455 413 392 357 339 c 0
 266 252 251 211 251 110 c 1
 231 110 l 1
 232 220 245 258 341 352 c 0
 399 409 426 462 426 526 c 0
 426 625 359 683 259 683 c 0
 145 683 80 607 72 494 c 1
 50 494 l 1
 55 618 139 704 259 704 c 0xec
242 26 m 0
 253 26 262 17 262 6 c 0
 262 -5 253 -14 242 -14 c 0
 231 -14 222 -5 222 6 c 0xf4
 222 17 231 26 242 26 c 0
EndSplineSet
Validated: 1
EndChar

StartChar: at
Encoding: 64 64 33
GlifName: at
Width: 851
GlyphClass: 2
Flags: W
HStem: -104 21<316.06 502.961> 67 21<330.558 422.362> 75 21<570.246 661.459> 462 21<408.663 499.191> 643 21<388.489 550.647>
VStem: 61 24<152.502 341.558> 250 24<150.787 303.011> 512 24<126.434 173> 773 24<241.803 424.694>
LayerCount: 2
Fore
SplineSet
599 465 m 1xdf80
 549 256 l 2
 538 207 536 187 536 168 c 0
 536 122 567 96 615 96 c 0
 702 96 773 189 773 333 c 0
 773 527 647 643 464 643 c 0
 291 643 85 495 85 247 c 0
 85 30 235 -83 395 -83 c 0
 499 -83 572 -63 669 4 c 1
 681 -15 l 1
 569 -90 495 -104 395 -104 c 0
 230 -104 61 9 61 244 c 0
 61 507 275 664 470 664 c 0
 665 664 797 530 797 338 c 0
 797 165 708 75 613 75 c 0xbf80
 564 75 512 97 512 173 c 1
 494 135 l 1
 459 88 419 67 373 67 c 0
 319 67 250 98 250 218 c 0
 250 359 341 483 462 483 c 0
 501 483 524 467 537 449 c 1
 558 397 l 1
 574 465 l 1
 599 465 l 1xdf80
532 279 m 2
 541 319 l 2
 544 333 546 346 546 359 c 0
 546 418 513 462 458 462 c 0
 362 462 274 356 274 222 c 0
 274 130 315 88 377 88 c 0xdf80
 438 88 500 139 532 279 c 2
EndSplineSet
Validated: 1
EndChar

StartChar: A
Encoding: 65 65 34
GlifName: A_
Width: 616
GlyphClass: 2
Flags: W
HStem: 0 21G<36 66.658 567.268 599> 269 21<170 462> 670 20G<295.261 339.739>
LayerCount: 2
Fore
SplineSet
471 269 m 1
 162 269 l 1
 59 0 l 1
 36 0 l 1
 303 690 l 1
 332 690 l 1
 599 0 l 1
 575 0 l 1
 471 269 l 1
170 290 m 1
 462 290 l 1
 317 671 l 1
 170 290 l 1
EndSplineSet
Validated: 1
Position2: "'cpsp' Capital Spacing in Latin lookup 7 subtable" dx=5 dy=0 dh=10 dv=0
Position2: "'cpsp' Capital Spacing in Latin lookup 6 subtable" dx=5 dy=0 dh=10 dv=0
Position2: "'cpsp' Capital Spacing in Latin lookup 5 subtable" dx=5 dy=0 dh=10 dv=0
Position2: "'cpsp' Capital Spacing in Latin lookup 4 subtable" dx=5 dy=0 dh=10 dv=0
Position2: "'cpsp' Capital Spacing in Cyrillic lookup 3 subtable" dx=5 dy=0 dh=10 dv=0
Position2: "'cpsp' Capital Spacing lookup 2 subtable" dx=5 dy=0 dh=10 dv=0
Position2: "'cpsp' Capital Spacing lookup 1 subtable" dx=5 dy=0 dh=10 dv=0
EndChar

StartChar: B
Encoding: 66 66 35
GlifName: B_
Width: 587
GlyphClass: 2
Flags: W
HStem: 0 21<118 400.62> 351 21<118 401.04> 669 21<118 394.122>
VStem: 96 22<21 351 372 669> 498 24<458.509 582.062> 524 24<120.525 249.993>
LayerCount: 2
Fore
SplineSet
388 364 m 1
 496 348 548 277 548 183 c 0
 548 73 459 8 356 2 c 0
 331 0 312 0 288 0 c 2
 96 0 l 1
 96 690 l 1
 270 690 l 2
 297 690 313 690 348 688 c 0
 452 681 522 621 522 525 c 0
 522 438 471 377 388 364 c 1
118 669 m 1
 118 372 l 1
 284 372 l 2
 300 372 316 372 339 373 c 0
 411 377 498 411 498 520 c 0
 498 629 415 665 335 668 c 0
 312 669 296 669 270 669 c 2
 118 669 l 1
349 22 m 0
 434 28 524 73 524 182 c 0
 524 261 484 344 350 350 c 0
 327 351 314 351 298 351 c 2
 118 351 l 1
 118 21 l 1
 304 21 l 2
 320 21 336 21 349 22 c 0
EndSplineSet
Validated: 1
Position2: "'cpsp' Capital Spacing in Latin lookup 7 subtable" dx=5 dy=0 dh=10 dv=0
Position2: "'cpsp' Capital Spacing in Latin lookup 6 subtable" dx=5 dy=0 dh=10 dv=0
Position2: "'cpsp' Capital Spacing in Latin lookup 5 subtable" dx=5 dy=0 dh=10 dv=0
Position2: "'cpsp' Capital Spacing in Latin lookup 4 subtable" dx=5 dy=0 dh=10 dv=0
Position2: "'cpsp' Capital Spacing in Cyrillic lookup 3 subtable" dx=5 dy=0 dh=10 dv=0
Position2: "'cpsp' Capital Spacing lookup 2 subtable" dx=5 dy=0 dh=10 dv=0
Position2: "'cpsp' Capital Spacing lookup 1 subtable" dx=5 dy=0 dh=10 dv=0
EndChar

StartChar: C
Encoding: 67 67 36
GlifName: C_
Width: 677
GlyphClass: 2
Flags: W
HStem: -14 21<279.288 428.126> 683 21<289.371 436.303>
VStem: 51 24<236.002 448.051> 604 22<181.492 227 474 512.517>
LayerCount: 2
Fore
SplineSet
364 704 m 0
 515 704 599 608 624 484 c 2
 626 474 l 1
 604 474 l 1
 602 484 l 2
 579 597 497 683 360 683 c 0
 216 683 75 565 75 344 c 0
 75 115 204 7 352 7 c 0
 500 7 580 99 604 217 c 2
 606 227 l 1
 628 227 l 1
 626 217 l 2
 600 88 515 -14 350 -14 c 0
 179 -14 51 118 51 343 c 0
 51 558 187 704 364 704 c 0
EndSplineSet
Validated: 1
Position2: "'cpsp' Capital Spacing in Latin lookup 7 subtable" dx=5 dy=0 dh=10 dv=0
Position2: "'cpsp' Capital Spacing in Latin lookup 6 subtable" dx=5 dy=0 dh=10 dv=0
Position2: "'cpsp' Capital Spacing in Latin lookup 5 subtable" dx=5 dy=0 dh=10 dv=0
Position2: "'cpsp' Capital Spacing in Latin lookup 4 subtable" dx=5 dy=0 dh=10 dv=0
Position2: "'cpsp' Capital Spacing in Cyrillic lookup 3 subtable" dx=5 dy=0 dh=10 dv=0
Position2: "'cpsp' Capital Spacing lookup 2 subtable" dx=5 dy=0 dh=10 dv=0
Position2: "'cpsp' Capital Spacing lookup 1 subtable" dx=5 dy=0 dh=10 dv=0
EndChar

StartChar: D
Encoding: 68 68 37
GlifName: D_
Width: 679
GlyphClass: 2
Flags: W
HStem: 0 21<118 410.859> 669 21<118 409.037>
VStem: 96 22<21 669> 617 24<247.714 445.463>
LayerCount: 2
Fore
SplineSet
368 688 m 0
 474 680 641 592 641 348 c 0
 641 105 476 15 383 4 c 0
 348 0 327 0 295 0 c 2
 96 0 l 1
 96 690 l 1
 295 690 l 2
 327 690 343 690 368 688 c 0
380 25 m 0
 489 38 617 141 617 348 c 0
 617 565 476 657 367 667 c 0
 345 669 331 669 295 669 c 2
 118 669 l 1
 118 21 l 1
 295 21 l 2
 326 21 347 21 380 25 c 0
EndSplineSet
Validated: 1
Position2: "'cpsp' Capital Spacing in Latin lookup 7 subtable" dx=5 dy=0 dh=10 dv=0
Position2: "'cpsp' Capital Spacing in Latin lookup 6 subtable" dx=5 dy=0 dh=10 dv=0
Position2: "'cpsp' Capital Spacing in Latin lookup 5 subtable" dx=5 dy=0 dh=10 dv=0
Position2: "'cpsp' Capital Spacing in Latin lookup 4 subtable" dx=5 dy=0 dh=10 dv=0
Position2: "'cpsp' Capital Spacing in Cyrillic lookup 3 subtable" dx=5 dy=0 dh=10 dv=0
Position2: "'cpsp' Capital Spacing lookup 2 subtable" dx=5 dy=0 dh=10 dv=0
Position2: "'cpsp' Capital Spacing lookup 1 subtable" dx=5 dy=0 dh=10 dv=0
EndChar

StartChar: E
Encoding: 69 69 38
GlifName: E_
Width: 557
GlyphClass: 2
Flags: W
HStem: 0 20<118 525> 335 20<118 495> 670 20<118 515>
VStem: 96 22<20 335 355 670>
CounterMasks: 1 e0
LayerCount: 2
Fore
SplineSet
525 20 m 1
 525 0 l 1
 96 0 l 1
 96 690 l 1
 515 690 l 1
 515 670 l 1
 118 670 l 1
 118 355 l 1
 495 355 l 1
 495 335 l 1
 118 335 l 1
 118 20 l 1
 525 20 l 1
EndSplineSet
Validated: 1
Position2: "'cpsp' Capital Spacing in Latin lookup 7 subtable" dx=5 dy=0 dh=10 dv=0
Position2: "'cpsp' Capital Spacing in Latin lookup 6 subtable" dx=5 dy=0 dh=10 dv=0
Position2: "'cpsp' Capital Spacing in Latin lookup 5 subtable" dx=5 dy=0 dh=10 dv=0
Position2: "'cpsp' Capital Spacing in Latin lookup 4 subtable" dx=5 dy=0 dh=10 dv=0
Position2: "'cpsp' Capital Spacing in Cyrillic lookup 3 subtable" dx=5 dy=0 dh=10 dv=0
Position2: "'cpsp' Capital Spacing lookup 2 subtable" dx=5 dy=0 dh=10 dv=0
Position2: "'cpsp' Capital Spacing lookup 1 subtable" dx=5 dy=0 dh=10 dv=0
EndChar

StartChar: F
Encoding: 70 70 39
GlifName: F_
Width: 531
GlyphClass: 2
Flags: W
HStem: 0 21G<96 118> 335 20<118 485> 670 20<118 515>
VStem: 96 22<0 335 355 670>
LayerCount: 2
Fore
SplineSet
118 670 m 5
 118 355 l 5
 485 355 l 5
 485 335 l 5
 118 335 l 5
 118 0 l 5
 96 0 l 5
 96 690 l 5
 515 690 l 5
 515 670 l 5
 118 670 l 5
EndSplineSet
Validated: 1
Position2: "'cpsp' Capital Spacing in Latin lookup 7 subtable" dx=5 dy=0 dh=10 dv=0
Position2: "'cpsp' Capital Spacing in Latin lookup 6 subtable" dx=5 dy=0 dh=10 dv=0
Position2: "'cpsp' Capital Spacing in Latin lookup 5 subtable" dx=5 dy=0 dh=10 dv=0
Position2: "'cpsp' Capital Spacing in Latin lookup 4 subtable" dx=5 dy=0 dh=10 dv=0
Position2: "'cpsp' Capital Spacing in Cyrillic lookup 3 subtable" dx=5 dy=0 dh=10 dv=0
Position2: "'cpsp' Capital Spacing lookup 2 subtable" dx=5 dy=0 dh=10 dv=0
Position2: "'cpsp' Capital Spacing lookup 1 subtable" dx=5 dy=0 dh=10 dv=0
EndChar

StartChar: G
Encoding: 71 71 40
GlifName: G_
Width: 694
GlyphClass: 2
Flags: W
HStem: -14 21<281.092 425.644> 0 21G<612 634> 287 20<379 612> 683 21<296.381 446.303>
VStem: 51 24<236.002 443.673> 612 22<0 287 474 520.032>
LayerCount: 2
Fore
SplineSet
379 307 m 1xbc
 634 307 l 1
 634 0 l 1
 612 0 l 1x7c
 612 184 l 1
 592 119 l 1
 535 23 442 -14 353 -14 c 0
 179 -14 51 118 51 343 c 0
 51 558 190 704 374 704 c 0
 525 704 609 608 634 484 c 2
 636 474 l 1
 614 474 l 1
 612 484 l 2
 589 597 507 683 370 683 c 0
 219 683 75 565 75 344 c 0
 75 115 204 7 355 7 c 0
 460 7 612 75 612 287 c 1
 379 287 l 1
 379 307 l 1xbc
EndSplineSet
Validated: 1
Position2: "'cpsp' Capital Spacing in Latin lookup 7 subtable" dx=5 dy=0 dh=10 dv=0
Position2: "'cpsp' Capital Spacing in Latin lookup 6 subtable" dx=5 dy=0 dh=10 dv=0
Position2: "'cpsp' Capital Spacing in Latin lookup 5 subtable" dx=5 dy=0 dh=10 dv=0
Position2: "'cpsp' Capital Spacing in Latin lookup 4 subtable" dx=5 dy=0 dh=10 dv=0
Position2: "'cpsp' Capital Spacing in Cyrillic lookup 3 subtable" dx=5 dy=0 dh=10 dv=0
Position2: "'cpsp' Capital Spacing lookup 2 subtable" dx=5 dy=0 dh=10 dv=0
Position2: "'cpsp' Capital Spacing lookup 1 subtable" dx=5 dy=0 dh=10 dv=0
EndChar

StartChar: H
Encoding: 72 72 41
GlifName: H_
Width: 655
GlyphClass: 2
Flags: W
HStem: 0 21G<96 118 562 584> 328 21<118 562> 670 20G<96 118 562 584>
VStem: 96 22<0 328 349 690> 562 22<0 328 349 690>
LayerCount: 2
Fore
SplineSet
584 690 m 1
 584 0 l 1
 562 0 l 1
 562 328 l 1
 118 328 l 1
 118 0 l 1
 96 0 l 1
 96 690 l 1
 118 690 l 1
 118 349 l 1
 562 349 l 1
 562 690 l 1
 584 690 l 1
EndSplineSet
Validated: 1
Position2: "'cpsp' Capital Spacing in Latin lookup 7 subtable" dx=5 dy=0 dh=10 dv=0
Position2: "'cpsp' Capital Spacing in Latin lookup 6 subtable" dx=5 dy=0 dh=10 dv=0
Position2: "'cpsp' Capital Spacing in Latin lookup 5 subtable" dx=5 dy=0 dh=10 dv=0
Position2: "'cpsp' Capital Spacing in Latin lookup 4 subtable" dx=5 dy=0 dh=10 dv=0
Position2: "'cpsp' Capital Spacing in Cyrillic lookup 3 subtable" dx=5 dy=0 dh=10 dv=0
Position2: "'cpsp' Capital Spacing lookup 2 subtable" dx=5 dy=0 dh=10 dv=0
Position2: "'cpsp' Capital Spacing lookup 1 subtable" dx=5 dy=0 dh=10 dv=0
EndChar

StartChar: I
Encoding: 73 73 42
GlifName: I_
Width: 189
GlyphClass: 2
Flags: W
HStem: 0 21G<96 118> 670 20G<96 118>
VStem: 96 22<0 690>
LayerCount: 2
Fore
SplineSet
118 0 m 1
 96 0 l 1
 96 690 l 1
 118 690 l 1
 118 0 l 1
EndSplineSet
Validated: 1
Position2: "'cpsp' Capital Spacing in Latin lookup 7 subtable" dx=5 dy=0 dh=10 dv=0
Position2: "'cpsp' Capital Spacing in Latin lookup 6 subtable" dx=5 dy=0 dh=10 dv=0
Position2: "'cpsp' Capital Spacing in Latin lookup 5 subtable" dx=5 dy=0 dh=10 dv=0
Position2: "'cpsp' Capital Spacing in Latin lookup 4 subtable" dx=5 dy=0 dh=10 dv=0
Position2: "'cpsp' Capital Spacing in Cyrillic lookup 3 subtable" dx=5 dy=0 dh=10 dv=0
Position2: "'cpsp' Capital Spacing lookup 2 subtable" dx=5 dy=0 dh=10 dv=0
Position2: "'cpsp' Capital Spacing lookup 1 subtable" dx=5 dy=0 dh=10 dv=0
EndChar

StartChar: J
Encoding: 74 74 43
GlifName: J_
Width: 495
GlyphClass: 2
Flags: W
HStem: -14 21<174.958 302.842> 670 20G<407 429>
VStem: 48 22<125.498 224> 407 22<122.277 690>
LayerCount: 2
Fore
SplineSet
429 690 m 1
 429 260 l 2
 429 229 429 201 427 169 c 0
 421 77 365 -14 239 -14 c 0
 123 -14 53 53 48 194 c 2
 47 224 l 1
 69 224 l 1
 70 194 l 2
 75 56 148 7 241 7 c 0
 339 7 396 68 405 172 c 0
 407 194 407 221 407 252 c 2
 407 690 l 1
 429 690 l 1
EndSplineSet
Validated: 1
Position2: "'cpsp' Capital Spacing in Latin lookup 7 subtable" dx=5 dy=0 dh=10 dv=0
Position2: "'cpsp' Capital Spacing in Latin lookup 6 subtable" dx=5 dy=0 dh=10 dv=0
Position2: "'cpsp' Capital Spacing in Latin lookup 5 subtable" dx=5 dy=0 dh=10 dv=0
Position2: "'cpsp' Capital Spacing in Latin lookup 4 subtable" dx=5 dy=0 dh=10 dv=0
Position2: "'cpsp' Capital Spacing in Cyrillic lookup 3 subtable" dx=5 dy=0 dh=10 dv=0
Position2: "'cpsp' Capital Spacing lookup 2 subtable" dx=5 dy=0 dh=10 dv=0
Position2: "'cpsp' Capital Spacing lookup 1 subtable" dx=5 dy=0 dh=10 dv=0
EndChar

StartChar: K
Encoding: 75 75 44
GlifName: K_
Width: 553
GlyphClass: 2
Flags: W
HStem: 0 21G<96 118 482.117 535> 670 20G<96 118 490.47 541>
VStem: 96 22<0 299 324 690>
LayerCount: 2
Fore
SplineSet
180 355 m 1
 535 0 l 1
 502 0 l 1
 163 341 l 1
 118 299 l 1
 118 0 l 1
 96 0 l 1
 96 690 l 1
 118 690 l 1
 118 324 l 1
 512 690 l 1
 541 690 l 1
 180 355 l 1
EndSplineSet
Validated: 1
Position2: "'cpsp' Capital Spacing in Latin lookup 7 subtable" dx=5 dy=0 dh=10 dv=0
Position2: "'cpsp' Capital Spacing in Latin lookup 6 subtable" dx=5 dy=0 dh=10 dv=0
Position2: "'cpsp' Capital Spacing in Latin lookup 5 subtable" dx=5 dy=0 dh=10 dv=0
Position2: "'cpsp' Capital Spacing in Latin lookup 4 subtable" dx=5 dy=0 dh=10 dv=0
Position2: "'cpsp' Capital Spacing in Cyrillic lookup 3 subtable" dx=5 dy=0 dh=10 dv=0
Position2: "'cpsp' Capital Spacing lookup 2 subtable" dx=5 dy=0 dh=10 dv=0
Position2: "'cpsp' Capital Spacing lookup 1 subtable" dx=5 dy=0 dh=10 dv=0
EndChar

StartChar: L
Encoding: 76 76 45
GlifName: L_
Width: 539
GlyphClass: 2
Flags: W
HStem: 0 20<118 525> 670 20G<96 118>
VStem: 96 22<20 690>
LayerCount: 2
Fore
SplineSet
525 20 m 1
 525 0 l 1
 96 0 l 1
 96 690 l 1
 118 690 l 1
 118 20 l 1
 525 20 l 1
EndSplineSet
Validated: 1
Position2: "'cpsp' Capital Spacing in Latin lookup 7 subtable" dx=5 dy=0 dh=10 dv=0
Position2: "'cpsp' Capital Spacing in Latin lookup 6 subtable" dx=5 dy=0 dh=10 dv=0
Position2: "'cpsp' Capital Spacing in Latin lookup 5 subtable" dx=5 dy=0 dh=10 dv=0
Position2: "'cpsp' Capital Spacing in Latin lookup 4 subtable" dx=5 dy=0 dh=10 dv=0
Position2: "'cpsp' Capital Spacing in Cyrillic lookup 3 subtable" dx=5 dy=0 dh=10 dv=0
Position2: "'cpsp' Capital Spacing lookup 2 subtable" dx=5 dy=0 dh=10 dv=0
Position2: "'cpsp' Capital Spacing lookup 1 subtable" dx=5 dy=0 dh=10 dv=0
EndChar

StartChar: M
Encoding: 77 77 46
GlifName: M_
Width: 794
GlyphClass: 2
Flags: W
HStem: 0 21G<96 118 386.6 431.45 702 723> 670 20G<96 139.341 682.599 723>
VStem: 96 22<0 673> 702 21<0 673>
LayerCount: 2
Fore
SplineSet
723 690 m 1
 723 0 l 1
 702 0 l 1
 702 400 l 1
 702 537 l 2
 702 583 702 630 703 673 c 1
 669 586 629 487 592 400 c 2
 423 0 l 1
 395 0 l 1
 227 400 l 2
 191 487 150 586 116 673 c 1
 118 586 118 488 118 400 c 2
 118 0 l 1
 96 0 l 1
 96 690 l 1
 131 690 l 1
 410 21 l 1
 691 690 l 1
 723 690 l 1
EndSplineSet
Validated: 1
Position2: "'cpsp' Capital Spacing in Latin lookup 7 subtable" dx=5 dy=0 dh=10 dv=0
Position2: "'cpsp' Capital Spacing in Latin lookup 6 subtable" dx=5 dy=0 dh=10 dv=0
Position2: "'cpsp' Capital Spacing in Latin lookup 5 subtable" dx=5 dy=0 dh=10 dv=0
Position2: "'cpsp' Capital Spacing in Latin lookup 4 subtable" dx=5 dy=0 dh=10 dv=0
Position2: "'cpsp' Capital Spacing in Cyrillic lookup 3 subtable" dx=5 dy=0 dh=10 dv=0
Position2: "'cpsp' Capital Spacing lookup 2 subtable" dx=5 dy=0 dh=10 dv=0
Position2: "'cpsp' Capital Spacing lookup 1 subtable" dx=5 dy=0 dh=10 dv=0
EndChar

StartChar: N
Encoding: 78 78 47
GlifName: N_
Width: 637
GlyphClass: 2
Flags: W
HStem: 0 21G<96 118 519.582 566> 670 20G<96 141.448 544 566>
VStem: 96 22<0 670> 544 22<20 690>
LayerCount: 2
Fore
SplineSet
566 0 m 1
 532 0 l 1
 116 670 l 1
 118 577 118 468 118 375 c 2
 118 0 l 1
 96 0 l 1
 96 690 l 1
 129 690 l 1
 546 20 l 1
 544 113 544 222 544 315 c 2
 544 690 l 1
 566 690 l 1
 566 0 l 1
EndSplineSet
Validated: 1
Position2: "'cpsp' Capital Spacing in Latin lookup 7 subtable" dx=5 dy=0 dh=10 dv=0
Position2: "'cpsp' Capital Spacing in Latin lookup 6 subtable" dx=5 dy=0 dh=10 dv=0
Position2: "'cpsp' Capital Spacing in Latin lookup 5 subtable" dx=5 dy=0 dh=10 dv=0
Position2: "'cpsp' Capital Spacing in Latin lookup 4 subtable" dx=5 dy=0 dh=10 dv=0
Position2: "'cpsp' Capital Spacing in Cyrillic lookup 3 subtable" dx=5 dy=0 dh=10 dv=0
Position2: "'cpsp' Capital Spacing lookup 2 subtable" dx=5 dy=0 dh=10 dv=0
Position2: "'cpsp' Capital Spacing lookup 1 subtable" dx=5 dy=0 dh=10 dv=0
EndChar

StartChar: O
Encoding: 79 79 48
GlifName: O_
Width: 713
GlyphClass: 2
Flags: W
HStem: -14 21<290.182 435.818> 683 21<290.182 435.818>
VStem: 51 24<243.042 447.312> 651 24<243.042 447.312>
LayerCount: 2
Fore
SplineSet
363 704 m 0
 551 704 675 552 675 345 c 0
 675 139 551 -14 363 -14 c 0
 175 -14 51 139 51 345 c 0
 51 552 175 704 363 704 c 0
363 7 m 0
 517 7 651 129 651 345 c 0
 651 562 517 683 363 683 c 0
 209 683 75 562 75 345 c 0
 75 129 209 7 363 7 c 0
EndSplineSet
Validated: 1
Position2: "'cpsp' Capital Spacing in Latin lookup 7 subtable" dx=5 dy=0 dh=10 dv=0
Position2: "'cpsp' Capital Spacing in Latin lookup 6 subtable" dx=5 dy=0 dh=10 dv=0
Position2: "'cpsp' Capital Spacing in Latin lookup 5 subtable" dx=5 dy=0 dh=10 dv=0
Position2: "'cpsp' Capital Spacing in Latin lookup 4 subtable" dx=5 dy=0 dh=10 dv=0
Position2: "'cpsp' Capital Spacing in Cyrillic lookup 3 subtable" dx=5 dy=0 dh=10 dv=0
Position2: "'cpsp' Capital Spacing lookup 2 subtable" dx=5 dy=0 dh=10 dv=0
Position2: "'cpsp' Capital Spacing lookup 1 subtable" dx=5 dy=0 dh=10 dv=0
EndChar

StartChar: P
Encoding: 80 80 49
GlifName: P_
Width: 521
GlyphClass: 2
Flags: W
HStem: 0 21G<96 118> 308 21<118 370.754> 669 21<118 370.754>
VStem: 96 22<0 308 329 669> 491 24<433.36 571.379>
LayerCount: 2
Fore
SplineSet
348 685 m 0
 441 673 515 621 515 504 c 0
 515 384 441 325 348 313 c 0
 316 309 284 308 249 308 c 2
 118 308 l 1
 118 0 l 1
 96 0 l 1
 96 690 l 1
 249 690 l 2
 284 690 316 689 348 685 c 0
344 334 m 0
 428 344 491 395 491 504 c 0
 491 607 428 654 344 664 c 0
 312 668 285 669 249 669 c 2
 118 669 l 1
 118 329 l 1
 249 329 l 2
 285 329 312 330 344 334 c 0
EndSplineSet
Validated: 1
Position2: "'cpsp' Capital Spacing in Latin lookup 7 subtable" dx=5 dy=0 dh=10 dv=0
Position2: "'cpsp' Capital Spacing in Latin lookup 6 subtable" dx=5 dy=0 dh=10 dv=0
Position2: "'cpsp' Capital Spacing in Latin lookup 5 subtable" dx=5 dy=0 dh=10 dv=0
Position2: "'cpsp' Capital Spacing in Latin lookup 4 subtable" dx=5 dy=0 dh=10 dv=0
Position2: "'cpsp' Capital Spacing in Cyrillic lookup 3 subtable" dx=5 dy=0 dh=10 dv=0
Position2: "'cpsp' Capital Spacing lookup 2 subtable" dx=5 dy=0 dh=10 dv=0
Position2: "'cpsp' Capital Spacing lookup 1 subtable" dx=5 dy=0 dh=10 dv=0
EndChar

StartChar: Q
Encoding: 81 81 50
GlifName: Q_
Width: 715
GlyphClass: 2
Flags: W
HStem: -14 21<290.182 436.206> 683 21<290.182 435.818>
VStem: 51 24<243.042 447.312> 651 24<241.223 447.312>
LayerCount: 2
Fore
SplineSet
675 345 m 0
 675 229 640 102 510 24 c 1
 572 22 607 4 656 -35 c 1
 642 -52 l 1
 590 -11 552 2 501 2 c 0
 479 2 462 -1 434 -7 c 0
 410 -12 392 -14 363 -14 c 0
 175 -14 51 139 51 345 c 0
 51 552 175 704 363 704 c 0
 551 704 675 552 675 345 c 0
75 345 m 0
 75 129 209 7 363 7 c 0
 517 7 651 129 651 345 c 0
 651 562 517 683 363 683 c 0
 209 683 75 562 75 345 c 0
EndSplineSet
Validated: 1
Position2: "'cpsp' Capital Spacing in Latin lookup 7 subtable" dx=5 dy=0 dh=10 dv=0
Position2: "'cpsp' Capital Spacing in Latin lookup 6 subtable" dx=5 dy=0 dh=10 dv=0
Position2: "'cpsp' Capital Spacing in Latin lookup 5 subtable" dx=5 dy=0 dh=10 dv=0
Position2: "'cpsp' Capital Spacing in Latin lookup 4 subtable" dx=5 dy=0 dh=10 dv=0
Position2: "'cpsp' Capital Spacing in Cyrillic lookup 3 subtable" dx=5 dy=0 dh=10 dv=0
Position2: "'cpsp' Capital Spacing lookup 2 subtable" dx=5 dy=0 dh=10 dv=0
Position2: "'cpsp' Capital Spacing lookup 1 subtable" dx=5 dy=0 dh=10 dv=0
EndChar

StartChar: R
Encoding: 82 82 51
GlifName: R_
Width: 571
GlyphClass: 2
Flags: W
HStem: 0 21G<96 118 505.5 539> 338 21<118 387.315> 669 21<118 386.211>
VStem: 96 22<0 338 359 669> 505 24<453.59 578> 513 26<0 31.0069>
LayerCount: 2
Fore
SplineSet
493 189 m 0xf8
 505 86 520 43 539 0 c 1
 513 0 l 1xf4
 498 44 482 84 470 184 c 0
 461 261 426 333 342 337 c 0
 320 338 295 338 279 338 c 2
 118 338 l 1
 118 0 l 1
 96 0 l 1
 96 690 l 1
 263 690 l 2
 298 690 330 689 362 685 c 0
 469 672 529 615 529 516 c 0
 529 428 475 364 385 348 c 1
 449 330 484 269 493 189 c 0xf8
118 359 m 1
 279 359 l 2
 305 359 322 359 354 361 c 0
 448 368 505 429 505 515 c 0xf8
 505 604 452 652 358 664 c 0
 326 668 299 669 263 669 c 2
 118 669 l 1
 118 359 l 1
EndSplineSet
Validated: 1
Position2: "'cpsp' Capital Spacing in Latin lookup 7 subtable" dx=5 dy=0 dh=10 dv=0
Position2: "'cpsp' Capital Spacing in Latin lookup 6 subtable" dx=5 dy=0 dh=10 dv=0
Position2: "'cpsp' Capital Spacing in Latin lookup 5 subtable" dx=5 dy=0 dh=10 dv=0
Position2: "'cpsp' Capital Spacing in Latin lookup 4 subtable" dx=5 dy=0 dh=10 dv=0
Position2: "'cpsp' Capital Spacing in Cyrillic lookup 3 subtable" dx=5 dy=0 dh=10 dv=0
Position2: "'cpsp' Capital Spacing lookup 2 subtable" dx=5 dy=0 dh=10 dv=0
Position2: "'cpsp' Capital Spacing lookup 1 subtable" dx=5 dy=0 dh=10 dv=0
EndChar

StartChar: S
Encoding: 83 83 52
GlifName: S_
Width: 560
GlyphClass: 2
Flags: W
HStem: -14 21<207.328 357.567> 683 21<216.796 346.173>
VStem: 39 22<138.929 180> 71 24<470.126 585.916> 473 22<514 556.112> 483 24<108.268 229.167>
LayerCount: 2
Fore
SplineSet
284 704 m 0xf4
 413 704 482 617 495 514 c 1
 473 514 l 1xf8
 455 620 380 683 283 683 c 0
 195 683 95 632 95 533 c 0
 95 434 156 403 294 363 c 0
 437 322 507 275 507 167 c 0
 507 65 412 -14 283 -14 c 0
 162 -14 53 47 39 180 c 1
 61 180 l 1
 74 67 172 7 284 7 c 0
 397 7 483 72 483 165 c 0
 483 264 424 301 284 341 c 0
 136 383 71 425 71 531 c 0
 71 632 170 704 284 704 c 0xf4
EndSplineSet
Validated: 1
Position2: "'cpsp' Capital Spacing in Latin lookup 7 subtable" dx=5 dy=0 dh=10 dv=0
Position2: "'cpsp' Capital Spacing in Latin lookup 6 subtable" dx=5 dy=0 dh=10 dv=0
Position2: "'cpsp' Capital Spacing in Latin lookup 5 subtable" dx=5 dy=0 dh=10 dv=0
Position2: "'cpsp' Capital Spacing in Latin lookup 4 subtable" dx=5 dy=0 dh=10 dv=0
Position2: "'cpsp' Capital Spacing in Cyrillic lookup 3 subtable" dx=5 dy=0 dh=10 dv=0
Position2: "'cpsp' Capital Spacing lookup 2 subtable" dx=5 dy=0 dh=10 dv=0
Position2: "'cpsp' Capital Spacing lookup 1 subtable" dx=5 dy=0 dh=10 dv=0
EndChar

StartChar: T
Encoding: 84 84 53
GlifName: T_
Width: 580
GlyphClass: 2
Flags: W
HStem: 0 21G<296 318> 670 20<32 296 318 582>
VStem: 296 22<0 670>
LayerCount: 2
Fore
SplineSet
582 670 m 1
 318 670 l 1
 318 0 l 1
 296 0 l 1
 296 670 l 1
 32 670 l 1
 32 690 l 1
 582 690 l 1
 582 670 l 1
EndSplineSet
Validated: 1
Position2: "'cpsp' Capital Spacing in Latin lookup 7 subtable" dx=5 dy=0 dh=10 dv=0
Position2: "'cpsp' Capital Spacing in Latin lookup 6 subtable" dx=5 dy=0 dh=10 dv=0
Position2: "'cpsp' Capital Spacing in Latin lookup 5 subtable" dx=5 dy=0 dh=10 dv=0
Position2: "'cpsp' Capital Spacing in Latin lookup 4 subtable" dx=5 dy=0 dh=10 dv=0
Position2: "'cpsp' Capital Spacing in Cyrillic lookup 3 subtable" dx=5 dy=0 dh=10 dv=0
Position2: "'cpsp' Capital Spacing lookup 2 subtable" dx=5 dy=0 dh=10 dv=0
Position2: "'cpsp' Capital Spacing lookup 1 subtable" dx=5 dy=0 dh=10 dv=0
EndChar

StartChar: U
Encoding: 85 85 54
GlifName: U_
Width: 600
GlyphClass: 2
Flags: W
HStem: -14 21<236.062 387.938> 670 20G<90 112 512 534>
VStem: 90 22<127.832 690> 512 22<127.832 690>
LayerCount: 2
Fore
SplineSet
534 690 m 1
 534 233 l 2
 534 218 533 197 531 166 c 0
 524 60 450 -14 312 -14 c 0
 174 -14 100 60 93 166 c 0
 91 197 90 218 90 233 c 2
 90 690 l 1
 112 690 l 1
 112 229 l 2
 112 206 113 188 115 167 c 0
 123 80 181 7 312 7 c 0
 443 7 501 80 509 167 c 0
 511 188 512 206 512 229 c 2
 512 690 l 1
 534 690 l 1
EndSplineSet
Validated: 1
Position2: "'cpsp' Capital Spacing in Latin lookup 7 subtable" dx=5 dy=0 dh=10 dv=0
Position2: "'cpsp' Capital Spacing in Latin lookup 6 subtable" dx=5 dy=0 dh=10 dv=0
Position2: "'cpsp' Capital Spacing in Latin lookup 5 subtable" dx=5 dy=0 dh=10 dv=0
Position2: "'cpsp' Capital Spacing in Latin lookup 4 subtable" dx=5 dy=0 dh=10 dv=0
Position2: "'cpsp' Capital Spacing in Cyrillic lookup 3 subtable" dx=5 dy=0 dh=10 dv=0
Position2: "'cpsp' Capital Spacing lookup 2 subtable" dx=5 dy=0 dh=10 dv=0
Position2: "'cpsp' Capital Spacing lookup 1 subtable" dx=5 dy=0 dh=10 dv=0
EndChar

StartChar: V
Encoding: 86 86 55
GlifName: V_
Width: 583
GlyphClass: 2
Flags: W
HStem: 0 21G<285.261 330.739> 670 20G<26 57.69 558.31 590>
LayerCount: 2
Fore
SplineSet
323 0 m 1
 293 0 l 1
 26 690 l 1
 50 690 l 1
 308 19 l 1
 566 690 l 1
 590 690 l 1
 323 0 l 1
EndSplineSet
Validated: 1
Position2: "'cpsp' Capital Spacing in Latin lookup 7 subtable" dx=5 dy=0 dh=10 dv=0
Position2: "'cpsp' Capital Spacing in Latin lookup 6 subtable" dx=5 dy=0 dh=10 dv=0
Position2: "'cpsp' Capital Spacing in Latin lookup 5 subtable" dx=5 dy=0 dh=10 dv=0
Position2: "'cpsp' Capital Spacing in Latin lookup 4 subtable" dx=5 dy=0 dh=10 dv=0
Position2: "'cpsp' Capital Spacing in Cyrillic lookup 3 subtable" dx=5 dy=0 dh=10 dv=0
Position2: "'cpsp' Capital Spacing lookup 2 subtable" dx=5 dy=0 dh=10 dv=0
Position2: "'cpsp' Capital Spacing lookup 1 subtable" dx=5 dy=0 dh=10 dv=0
EndChar

StartChar: W
Encoding: 87 87 56
GlifName: W_
Width: 823
GlyphClass: 2
Flags: W
HStem: 0 21G<193.986 234.067 606.36 645.391> 670 20G<26 53.9701 798.655 826>
LayerCount: 2
Fore
SplineSet
826 690 m 1
 640 0 l 1
 612 0 l 1
 427 656 l 1
 228 0 l 1
 199 0 l 1
 26 690 l 1
 49 690 l 1
 215 22 l 1
 412 680 l 1
 442 680 l 1
 626 24 l 1
 804 690 l 1
 826 690 l 1
EndSplineSet
Validated: 1
Position2: "'cpsp' Capital Spacing in Latin lookup 7 subtable" dx=5 dy=0 dh=10 dv=0
Position2: "'cpsp' Capital Spacing in Latin lookup 6 subtable" dx=5 dy=0 dh=10 dv=0
Position2: "'cpsp' Capital Spacing in Latin lookup 5 subtable" dx=5 dy=0 dh=10 dv=0
Position2: "'cpsp' Capital Spacing in Latin lookup 4 subtable" dx=5 dy=0 dh=10 dv=0
Position2: "'cpsp' Capital Spacing in Cyrillic lookup 3 subtable" dx=5 dy=0 dh=10 dv=0
Position2: "'cpsp' Capital Spacing lookup 2 subtable" dx=5 dy=0 dh=10 dv=0
Position2: "'cpsp' Capital Spacing lookup 1 subtable" dx=5 dy=0 dh=10 dv=0
EndChar

StartChar: X
Encoding: 88 88 57
GlifName: X_
Width: 572
GlyphClass: 2
Flags: W
HStem: 0 21G<28 70.2857 511.714 556> 670 20G<45 83.4557 518.138 562>
LayerCount: 2
Fore
SplineSet
304 345 m 1
 556 0 l 1
 526 0 l 1
 291 329 l 1
 56 0 l 1
 28 0 l 1
 276 344 l 1
 45 690 l 1
 70 690 l 1
 290 363 l 1
 533 690 l 1
 562 690 l 1
 304 345 l 1
EndSplineSet
Validated: 1
Position2: "'cpsp' Capital Spacing in Latin lookup 7 subtable" dx=5 dy=0 dh=10 dv=0
Position2: "'cpsp' Capital Spacing in Latin lookup 6 subtable" dx=5 dy=0 dh=10 dv=0
Position2: "'cpsp' Capital Spacing in Latin lookup 5 subtable" dx=5 dy=0 dh=10 dv=0
Position2: "'cpsp' Capital Spacing in Latin lookup 4 subtable" dx=5 dy=0 dh=10 dv=0
Position2: "'cpsp' Capital Spacing in Cyrillic lookup 3 subtable" dx=5 dy=0 dh=10 dv=0
Position2: "'cpsp' Capital Spacing lookup 2 subtable" dx=5 dy=0 dh=10 dv=0
Position2: "'cpsp' Capital Spacing lookup 1 subtable" dx=5 dy=0 dh=10 dv=0
EndChar

StartChar: Y
Encoding: 89 89 58
GlifName: Y_
Width: 545
GlyphClass: 2
Flags: W
HStem: 0 21G<268 290> 670 20G<23 61 497.104 536>
VStem: 268 22<0 282>
LayerCount: 2
Fore
SplineSet
290 282 m 1
 290 0 l 1
 268 0 l 1
 268 282 l 1
 23 690 l 1
 49 690 l 1
 280 305 l 1
 509 690 l 1
 536 690 l 1
 290 282 l 1
EndSplineSet
Validated: 1
Position2: "'cpsp' Capital Spacing in Latin lookup 7 subtable" dx=5 dy=0 dh=10 dv=0
Position2: "'cpsp' Capital Spacing in Latin lookup 6 subtable" dx=5 dy=0 dh=10 dv=0
Position2: "'cpsp' Capital Spacing in Latin lookup 5 subtable" dx=5 dy=0 dh=10 dv=0
Position2: "'cpsp' Capital Spacing in Latin lookup 4 subtable" dx=5 dy=0 dh=10 dv=0
Position2: "'cpsp' Capital Spacing in Cyrillic lookup 3 subtable" dx=5 dy=0 dh=10 dv=0
Position2: "'cpsp' Capital Spacing lookup 2 subtable" dx=5 dy=0 dh=10 dv=0
Position2: "'cpsp' Capital Spacing lookup 1 subtable" dx=5 dy=0 dh=10 dv=0
EndChar

StartChar: Z
Encoding: 90 90 59
GlifName: Z_
Width: 537
GlyphClass: 2
Flags: W
HStem: 0 21<64 512> 669 21<64 480>
LayerCount: 2
Fore
SplineSet
512 21 m 1
 512 0 l 1
 36 0 l 1
 36 17 l 1
 480 669 l 1
 64 669 l 1
 64 690 l 1
 506 690 l 1
 506 670 l 1
 64 21 l 1
 512 21 l 1
EndSplineSet
Validated: 1
Position2: "'cpsp' Capital Spacing in Latin lookup 7 subtable" dx=5 dy=0 dh=10 dv=0
Position2: "'cpsp' Capital Spacing in Latin lookup 6 subtable" dx=5 dy=0 dh=10 dv=0
Position2: "'cpsp' Capital Spacing in Latin lookup 5 subtable" dx=5 dy=0 dh=10 dv=0
Position2: "'cpsp' Capital Spacing in Latin lookup 4 subtable" dx=5 dy=0 dh=10 dv=0
Position2: "'cpsp' Capital Spacing in Cyrillic lookup 3 subtable" dx=5 dy=0 dh=10 dv=0
Position2: "'cpsp' Capital Spacing lookup 2 subtable" dx=5 dy=0 dh=10 dv=0
Position2: "'cpsp' Capital Spacing lookup 1 subtable" dx=5 dy=0 dh=10 dv=0
EndChar

StartChar: bracketleft
Encoding: 91 91 60
GlifName: bracketleft
Width: 311
GlyphClass: 2
Flags: W
HStem: -80 21<154 285> 759 21<154 285>
VStem: 132 22<-59 759>
LayerCount: 2
Fore
SplineSet
285 780 m 1
 285 759 l 1
 154 759 l 1
 154 -59 l 1
 285 -59 l 1
 285 -80 l 1
 132 -80 l 1
 132 780 l 1
 285 780 l 1
EndSplineSet
Validated: 1
EndChar

StartChar: backslash
Encoding: 92 92 61
GlifName: backslash
Width: 263
GlyphClass: 2
Flags: W
VStem: -5 273
LayerCount: 2
Fore
SplineSet
268 -30 m 1
 246 -30 l 1
 -5 720 l 1
 17 720 l 1
 268 -30 l 1
EndSplineSet
Validated: 1
EndChar

StartChar: bracketright
Encoding: 93 93 62
GlifName: bracketright
Width: 311
GlyphClass: 2
Flags: W
HStem: -80 21<26 157> 759 21<26 157>
VStem: 157 22<-59 759>
LayerCount: 2
Fore
SplineSet
179 -80 m 1
 26 -80 l 1
 26 -59 l 1
 157 -59 l 1
 157 759 l 1
 26 759 l 1
 26 780 l 1
 179 780 l 1
 179 -80 l 1
EndSplineSet
Validated: 1
EndChar

StartChar: asciicircum
Encoding: 94 94 63
GlifName: asciicircum
Width: 530
GlyphClass: 2
Flags: W
LayerCount: 2
Fore
SplineSet
426 215 m 1
 267 595 l 1
 106 215 l 1
 82 215 l 1
 254 616 l 1
 281 616 l 1
 451 215 l 1
 426 215 l 1
EndSplineSet
Validated: 1
EndChar

StartChar: underscore
Encoding: 95 95 64
GlifName: underscore
Width: 500
GlyphClass: 2
Flags: W
HStem: -80 21<50 450>
LayerCount: 2
Fore
SplineSet
450 -80 m 1
 50 -80 l 1
 50 -59 l 1
 450 -59 l 1
 450 -80 l 1
EndSplineSet
Validated: 1
EndChar

StartChar: grave
Encoding: 96 96 65
GlifName: grave
Width: 300
GlyphClass: 2
Flags: W
HStem: 580 110
VStem: 74 88
LayerCount: 2
Fore
SplineSet
162 580 m 1
 143 580 l 1
 74 690 l 1
 102 690 l 1
 162 580 l 1
EndSplineSet
Validated: 1
EndChar

StartChar: a
Encoding: 97 97 66
GlifName: a
Width: 494
GlyphClass: 2
Flags: W
HStem: -14 21<145.721 271.92> 0 21G<407.915 432> 282 21<247.812 401> 519 21<191.032 318.52>
VStem: 47 24<72.4551 174.632> 67 22<382 423.693> 401 22<142.574 281 303 438.502>
LayerCount: 2
Fore
SplineSet
409 0 m 1x76
 402 129 l 1
 379 76 l 1
 342 17 280 -14 209 -14 c 0
 109 -14 47 33 47 127 c 0xba
 47 250 203 303 367 303 c 2
 401 303 l 1
 401 330 l 2
 401 355 401 375 399 398 c 0
 392 477 340 519 254 519 c 0
 180 519 101 480 89 382 c 1
 67 382 l 1
 73 470 150 540 254 540 c 0
 357 540 414 489 421 401 c 0
 423 374 423 360 423 332 c 2
 423 170 l 2
 423 110 426 69 432 0 c 1
 409 0 l 1x76
212 7 m 0
 325 7 401 105 401 209 c 2
 401 281 l 1
 387 282 372 282 358 282 c 0
 216 282 71 237 71 128 c 0
 71 55 116 7 212 7 c 0
EndSplineSet
Validated: 1
EndChar

StartChar: b
Encoding: 98 98 67
GlifName: b
Width: 544
GlyphClass: 2
Flags: W
HStem: -14 21<212.704 337.544> 0 21G<71 93> 519 21<215.334 347.864> 715 20G<71 93>
VStem: 71 22<0 120 144.643 379.665 406 735> 490 24<174.586 353.541>
LayerCount: 2
Fore
SplineSet
287 540 m 0x7c
 424 540 514 427 514 267 c 0
 514 81 402 -14 275 -14 c 0xbc
 208 -14 165 6 122 54 c 1
 93 120 l 1
 93 0 l 1
 71 0 l 1
 71 735 l 1
 93 735 l 1
 93 406 l 1
 121 466 l 1
 168 522 215 540 287 540 c 0x7c
275 7 m 0
 401 7 490 112 490 263 c 0
 490 401 418 519 285 519 c 0
 181 519 93 461 93 288 c 2
 93 229 l 2
 93 57 193 7 275 7 c 0
EndSplineSet
Validated: 1
EndChar

StartChar: c
Encoding: 99 99 68
GlifName: c
Width: 517
GlyphClass: 2
Flags: W
HStem: -14 20<205.415 330.205> 520 20<211.767 336.741>
VStem: 30 24<175.088 353.037> 455 22<123.722 157 363 409.653>
LayerCount: 2
Fore
SplineSet
271 540 m 0
 385 540 466 468 481 363 c 1
 459 363 l 1
 442 458 376 520 269 520 c 0
 170 520 54 438 54 268 c 0
 54 90 159 6 265 6 c 0
 356 6 435 60 455 157 c 1
 477 157 l 1
 456 51 371 -14 263 -14 c 0
 134 -14 30 88 30 263 c 0
 30 433 139 540 271 540 c 0
EndSplineSet
Validated: 1
EndChar

StartChar: d
Encoding: 100 100 69
GlifName: d
Width: 544
GlyphClass: 2
Flags: W
HStem: -14 21<196.136 328.666> 0 21G<451 473> 519 21<206.456 331.296> 715 20G<451 473>
VStem: 30 24<172.459 351.414> 451 22<0 120 146.335 381.357 406 735>
LayerCount: 2
Fore
SplineSet
473 735 m 1xbc
 473 0 l 1
 451 0 l 1x7c
 451 120 l 1
 423 60 l 1
 376 4 329 -14 257 -14 c 0
 120 -14 30 99 30 259 c 0
 30 445 142 540 269 540 c 0
 336 540 379 520 422 472 c 1
 451 406 l 1
 451 735 l 1
 473 735 l 1xbc
259 7 m 0xbc
 363 7 451 65 451 238 c 2
 451 297 l 2
 451 469 351 519 269 519 c 0
 143 519 54 414 54 263 c 0
 54 125 126 7 259 7 c 0xbc
EndSplineSet
Validated: 1
EndChar

StartChar: e
Encoding: 101 101 70
GlifName: e
Width: 521
GlyphClass: 2
Flags: W
HStem: -14 21<194.792 323.537> 258 21<53 463> 519 21<204.653 324.733>
VStem: 30 23<173.947 258 279 349.809> 455 22<134.857 161> 463 22<279 361.72>
LayerCount: 2
Fore
SplineSet
485 277 m 0xf4
 485 273 485 269 484 258 c 1
 53 258 l 1
 57 76 161 7 258 7 c 0
 341 7 424 54 455 161 c 1
 477 161 l 1xf8
 445 45 356 -14 256 -14 c 0
 134 -14 30 81 30 265 c 0
 30 431 134 540 264 540 c 0
 415 540 485 408 485 277 c 0xf4
262 519 m 0
 169 519 57 444 53 279 c 1
 463 279 l 1xf4
 459 461 352 519 262 519 c 0
EndSplineSet
Validated: 1
EndChar

StartChar: f
Encoding: 102 102 71
GlifName: f
Width: 230
GlyphClass: 2
Flags: W
HStem: 0 21G<82 104> 501 21<25 82 104 211> 733 21<142.492 222>
VStem: 82 22<0 501 522 689.793>
LayerCount: 2
Fore
SplineSet
106 656 m 0
 104 634 104 621 104 606 c 2
 104 522 l 1
 211 522 l 1
 211 501 l 1
 104 501 l 1
 104 0 l 1
 82 0 l 1
 82 501 l 1
 25 501 l 1
 25 522 l 1
 82 522 l 1
 82 606 l 2
 82 621 82 638 84 659 c 0
 90 725 134 754 175 754 c 0
 195 754 204 753 222 749 c 1
 222 728 l 1
 208 731 196 733 184 733 c 0
 133 733 110 700 106 656 c 0
EndSplineSet
Validated: 1
EndChar

StartChar: g
Encoding: 103 103 72
GlifName: g
Width: 544
GlyphClass: 2
Flags: W
HStem: -220 21<184.823 325.792> -14 21<196.136 328.666> 510 20G<451 473> 519 21<206.456 331.296>
VStem: 30 24<172.459 351.414> 53 22<-96.8848 -47> 451 22<-70.9652 120 146.335 381.357 406 530>
LayerCount: 2
Fore
SplineSet
473 530 m 1xea
 473 140 l 2
 473 57 473 16 472 -18 c 0
 468 -137 390 -220 256 -220 c 0
 159 -220 71 -181 55 -62 c 2
 53 -47 l 1
 75 -47 l 1xe6
 77 -62 l 2
 90 -163 171 -199 258 -199 c 0
 382 -199 447 -121 450 -11 c 0
 451 24 451 51 451 100 c 2
 451 120 l 1
 423 60 l 1
 376 4 329 -14 257 -14 c 0
 120 -14 30 99 30 259 c 0
 30 445 142 540 269 540 c 0xda
 336 540 379 520 422 472 c 1
 451 406 l 1
 451 530 l 1
 473 530 l 1xea
259 7 m 0
 363 7 451 65 451 238 c 2
 451 297 l 2
 451 469 351 519 269 519 c 0
 143 519 54 414 54 263 c 0xda
 54 125 126 7 259 7 c 0
EndSplineSet
Validated: 1
EndChar

StartChar: h
Encoding: 104 104 73
GlifName: h
Width: 530
GlyphClass: 2
Flags: W
HStem: 0 21G<71 93 442 464> 519 21<217.342 341.74> 720 20G<71 93>
VStem: 71 22<0 388.327 406 740> 442 22<0 405.74>
LayerCount: 2
Fore
SplineSet
460 378 m 0
 463 351 464 335 464 292 c 2
 464 0 l 1
 442 0 l 1
 442 283 l 2
 442 320 441 343 438 370 c 0
 428 459 379 519 279 519 c 0
 183 519 93 452 93 312 c 2
 93 0 l 1
 71 0 l 1
 71 740 l 1
 93 740 l 1
 93 406 l 1
 114 458 l 1
 153 513 214 540 279 540 c 0
 385 540 449 481 460 378 c 0
EndSplineSet
Validated: 1
EndChar

StartChar: i
Encoding: 105 105 74
GlifName: i
Width: 164
GlyphClass: 2
Flags: W
HStem: 0 21G<71 93> 506 20G<71 93> 613 40<62.0066 101.993>
VStem: 62 40<613.007 652.993> 71 22<0 526>
LayerCount: 2
Fore
SplineSet
82 653 m 0xf0
 93 653 102 644 102 633 c 0
 102 622 93 613 82 613 c 0
 71 613 62 622 62 633 c 0
 62 644 71 653 82 653 c 0xf0
93 0 m 1xe8
 71 0 l 1
 71 526 l 1
 93 526 l 1
 93 0 l 1xe8
EndSplineSet
Validated: 1
EndChar

StartChar: j
Encoding: 106 106 75
GlifName: j
Width: 156
GlyphClass: 2
Flags: W
HStem: -210 20<-32 38.1896> 506 20G<64 86> 613 40<55.0066 94.9934>
VStem: 55 40<613.007 652.993> 64 22<-163.172 526>
LayerCount: 2
Fore
SplineSet
75 653 m 0xf0
 86 653 95 644 95 633 c 0
 95 622 86 613 75 613 c 0
 64 613 55 622 55 633 c 0
 55 644 64 653 75 653 c 0xf0
86 526 m 1xe8
 86 -73 l 2
 86 -93 86 -107 85 -125 c 0
 82 -184 45 -210 3 -210 c 0
 -8 -210 -19 -209 -32 -206 c 1
 -32 -187 l 1
 -21 -189 -10 -190 0 -190 c 0
 37 -190 61 -173 63 -123 c 0
 64 -109 64 -99 64 -84 c 2
 64 526 l 1
 86 526 l 1xe8
EndSplineSet
Validated: 1
EndChar

StartChar: k
Encoding: 107 107 76
GlifName: k
Width: 458
GlyphClass: 2
Flags: W
HStem: 0 21G<71 93 383.219 437> 506 20G<381.246 436> 715 20G<71 93>
VStem: 71 22<0 215 241 735>
LayerCount: 2
Fore
SplineSet
138 256 m 1
 93 215 l 1
 93 0 l 1
 71 0 l 1
 71 735 l 1
 93 735 l 1
 93 241 l 1
 403 526 l 1
 436 526 l 1
 156 271 l 1
 437 0 l 1
 404 0 l 1
 138 256 l 1
EndSplineSet
Validated: 1
EndChar

StartChar: l
Encoding: 108 108 77
GlifName: l
Width: 173
GlyphClass: 2
Flags: W
HStem: -5 20<99.0511 147> 715 20G<68 90>
VStem: 68 22<22.4223 735>
LayerCount: 2
Fore
SplineSet
90 735 m 1
 90 120 l 2
 90 85 90 65 91 51 c 0
 93 24 102 15 127 15 c 0
 133 15 139 15 147 16 c 1
 147 -3 l 1
 137 -5 128 -5 118 -5 c 0
 91 -5 71 6 69 46 c 0
 68 66 68 82 68 120 c 2
 68 735 l 1
 90 735 l 1
EndSplineSet
Validated: 1
EndChar

StartChar: m
Encoding: 109 109 78
GlifName: m
Width: 809
GlyphClass: 2
Flags: W
HStem: 0 21G<71 93 396 418 721 743> 506 20G<71 93> 520 20<200.927 307.884 525.927 633.216>
VStem: 71 22<0 388.813 414 526> 396 22<0 388.813> 721 22<0 405.794>
CounterMasks: 1 1c
LayerCount: 2
Fore
SplineSet
739 378 m 0xbc
 742 351 743 335 743 292 c 2
 743 0 l 1
 721 0 l 1
 721 283 l 2
 721 320 720 343 717 370 c 0
 707 459 666 520 580 520 c 0
 492 520 418 452 418 302 c 2
 418 0 l 1
 396 0 l 1
 396 283 l 2
 396 320 395 343 392 370 c 0
 382 459 341 520 255 520 c 0xbc
 167 520 93 452 93 302 c 2
 93 0 l 1
 71 0 l 1
 71 526 l 1
 93 526 l 1xdc
 93 414 l 1
 117 471 l 1
 153 518 201 540 256 540 c 0
 342 540 394 490 410 403 c 1
 442 471 l 1
 478 518 526 540 581 540 c 0
 675 540 728 481 739 378 c 0xbc
EndSplineSet
Validated: 1
EndChar

StartChar: n
Encoding: 110 110 79
GlifName: n
Width: 530
GlyphClass: 2
Flags: W
HStem: 0 21G<71 93 442 464> 506 20G<71 93> 519 21<217.342 341.74>
VStem: 71 22<0 388.327 406 526> 442 22<0 405.74>
LayerCount: 2
Fore
SplineSet
460 378 m 4xb8
 463 351 464 335 464 292 c 6
 464 0 l 5
 442 0 l 5
 442 283 l 6
 442 320 441 343 438 370 c 4
 428 459 379 519 279 519 c 4xb8
 183 519 93 452 93 312 c 6
 93 0 l 5
 71 0 l 5
 71 526 l 5
 93 526 l 5xd8
 93 406 l 5
 114 458 l 5
 153 513 214 540 279 540 c 4
 385 540 449 481 460 378 c 4xb8
EndSplineSet
Validated: 1
EndChar

StartChar: o
Encoding: 111 111 80
GlifName: o
Width: 554
GlyphClass: 2
Flags: W
HStem: -14 21<210.213 343.787> 519 21<210.213 343.787>
VStem: 30 24<174 350.556> 500 24<174 350.556>
LayerCount: 2
Fore
SplineSet
277 540 m 4
 425 540 524 429 524 262 c 0
 524 96 425 -14 277 -14 c 0
 129 -14 30 96 30 262 c 0
 30 429 129 540 277 540 c 4
277 7 m 0
 391 7 500 86 500 262 c 0
 500 439 391 519 277 519 c 0
 163 519 54 439 54 262 c 0
 54 86 163 7 277 7 c 0
EndSplineSet
Validated: 1
EndChar

StartChar: p
Encoding: 112 112 81
GlifName: p
Width: 544
GlyphClass: 2
Flags: W
HStem: -14 21<212.704 337.544> 519 21<215.334 347.864>
VStem: 71 22<-196 120 144.643 379.665 406 534> 490 24<174.586 353.541>
LayerCount: 2
Fore
SplineSet
287 540 m 0
 424 540 514 427 514 267 c 0
 514 81 402 -14 275 -14 c 0
 208 -14 165 6 122 54 c 1
 93 120 l 1
 93 -196 l 1
 71 -196 l 1
 71 534 l 1
 93 534 l 1
 93 406 l 1
 121 466 l 1
 168 522 215 540 287 540 c 0
275 7 m 0
 401 7 490 112 490 263 c 0
 490 401 418 519 285 519 c 0
 181 519 93 461 93 288 c 2
 93 229 l 2
 93 57 193 7 275 7 c 0
EndSplineSet
Validated: 1
EndChar

StartChar: q
Encoding: 113 113 82
GlifName: q
Width: 545
GlyphClass: 2
Flags: W
HStem: -14 21<196.136 328.666> 519 21<206.456 331.296>
VStem: 30 24<172.459 351.414> 451 1<229.975 238 297 303> 452 22<-196 122 152.441 534>
LayerCount: 2
Fore
SplineSet
474 534 m 1xe8
 474 -196 l 1
 452 -196 l 1
 452 122 l 1
 423 60 l 1
 376 4 329 -14 257 -14 c 0
 120 -14 30 99 30 259 c 0
 30 445 142 540 269 540 c 0
 336 540 379 520 422 472 c 1
 452 404 l 1
 452 534 l 1
 474 534 l 1xe8
452 227 m 1
 452 303 l 1
 451 297 l 1
 451 469 351 519 269 519 c 0
 143 519 54 414 54 263 c 0
 54 125 126 7 259 7 c 0
 363 7 451 65 451 238 c 1xf0
 452 227 l 1
EndSplineSet
Validated: 1
EndChar

StartChar: r
Encoding: 114 114 83
GlifName: r
Width: 257
GlyphClass: 2
Flags: W
HStem: 0 21G<71 93> 506 20G<71 93> 520 20<189.327 256>
VStem: 71 22<0 526>
LayerCount: 2
Fore
SplineSet
233 540 m 0xb0
 241 540 249 540 256 539 c 1
 256 519 l 1
 251 519 246 520 241 520 c 0xb0
 153 520 93 453 93 288 c 2
 93 0 l 1
 71 0 l 1
 71 526 l 1
 93 526 l 1xd0
 93 413 l 1
 114 473 l 1
 142 515 184 540 233 540 c 0xb0
EndSplineSet
Validated: 1
EndChar

StartChar: s
Encoding: 115 115 84
GlifName: s
Width: 435
GlyphClass: 2
Flags: W
HStem: -14 21<154.467 289.922> 519 21<155.813 274.867>
VStem: 26 22<114.242 156> 51 23<350.814 447.639> 375 23<76.1368 175.249 383 406.977>
LayerCount: 2
Fore
SplineSet
215 540 m 0
 324 540 379 470 393 383 c 1
 371 383 l 1
 349 475 300 519 214 519 c 0
 141 519 74 476 74 399 c 0
 74 325 133 296 217 277 c 0
 338 250 398 212 398 124 c 0
 398 40 324 -14 221 -14 c 0
 123 -14 39 36 26 156 c 1
 48 156 l 1
 65 45 135 7 223 7 c 0
 306 7 375 47 375 123 c 0
 375 196 333 227 207 256 c 0
 124 275 51 309 51 398 c 0
 51 479 119 540 215 540 c 0
EndSplineSet
Validated: 1
EndChar

StartChar: t
Encoding: 116 116 85
GlifName: t
Width: 236
GlyphClass: 2
Flags: W
HStem: -7 18<137.836 219> 504 18<28 91 113 216>
VStem: 91 22<34.2369 504 522 630>
LayerCount: 2
Fore
SplineSet
114 71 m 0
 117 29 133 11 179 11 c 0
 190 11 204 12 219 14 c 1
 219 -4 l 1
 206 -6 186 -7 169 -7 c 0
 122 -7 97 15 93 61 c 0
 91 85 91 102 91 132 c 2
 91 504 l 5
 28 504 l 5
 28 522 l 5
 91 522 l 5
 91 630 l 1
 113 630 l 1
 113 522 l 5
 216 522 l 5
 216 504 l 5
 113 504 l 5
 113 128 l 2
 113 100 113 85 114 71 c 0
EndSplineSet
Validated: 1
EndChar

StartChar: u
Encoding: 117 117 86
GlifName: u
Width: 526
GlyphClass: 2
Flags: W
HStem: -14 21<184.26 308.658> 0 21G<433 455> 506 20G<62 84 433 455>
VStem: 62 22<120.26 526> 433 22<0 120 137.673 526>
LayerCount: 2
Fore
SplineSet
455 526 m 1xb8
 455 0 l 1
 433 0 l 1x78
 433 120 l 1
 412 68 l 1
 373 13 312 -14 247 -14 c 0
 141 -14 77 45 66 148 c 0
 63 175 62 191 62 234 c 2
 62 526 l 1
 84 526 l 1
 84 243 l 2
 84 206 85 183 88 156 c 0
 98 67 147 7 247 7 c 0
 343 7 433 74 433 214 c 2
 433 526 l 1
 455 526 l 1xb8
EndSplineSet
Validated: 1
EndChar

StartChar: v
Encoding: 118 118 87
GlifName: v
Width: 468
GlyphClass: 2
Flags: W
HStem: 0 21G<213.091 259.909> 506 20G<13 45.8501 427.189 460>
LayerCount: 2
Fore
SplineSet
460 526 m 1
 252 0 l 1
 221 0 l 1
 13 526 l 1
 38 526 l 1
 237 19 l 1
 435 526 l 1
 460 526 l 1
EndSplineSet
Validated: 1
EndChar

StartChar: w
Encoding: 119 119 88
GlifName: w
Width: 716
GlyphClass: 2
Flags: W
HStem: 0 21G<173.65 220.012 507.988 548.312> 506 20G<13 44.3095 677.852 708>
LayerCount: 2
Fore
SplineSet
708 526 m 1
 542 0 l 1
 514 0 l 1
 364 499 l 1
 214 0 l 1
 180 0 l 1
 13 526 l 1
 38 526 l 1
 197 22 l 1
 348 524 l 1
 379 524 l 1
 530 25 l 1
 684 526 l 1
 708 526 l 1
EndSplineSet
Validated: 1
EndChar

StartChar: x
Encoding: 120 120 89
GlifName: x
Width: 417
GlyphClass: 2
Flags: W
HStem: 0 21G<3 44.0562 362.265 404> 506 20G<11 50.6585 363.016 404>
LayerCount: 2
Fore
SplineSet
218 264 m 1
 404 0 l 1
 376 0 l 1
 205 249 l 1
 30 0 l 1
 3 0 l 1
 190 264 l 1
 11 526 l 1
 37 526 l 1
 205 280 l 1
 377 526 l 1
 404 526 l 1
 218 264 l 1
EndSplineSet
Validated: 1
EndChar

StartChar: y
Encoding: 121 121 90
GlifName: y
Width: 457
GlyphClass: 2
Flags: W
HStem: -210 20<40 116.196> 506 20G<13 45.5984 416.402 449>
LayerCount: 2
Fore
SplineSet
449 526 m 1
 246 0 l 2
 175 -185 133 -210 75 -210 c 0
 61 -210 51 -209 40 -206 c 1
 40 -186 l 1
 53 -189 66 -190 79 -190 c 0
 119 -190 157 -162 202 -52 c 2
 219 -10 l 1
 13 526 l 1
 38 526 l 1
 231 18 l 1
 424 526 l 1
 449 526 l 1
EndSplineSet
Validated: 1
EndChar

StartChar: z
Encoding: 122 122 91
GlifName: z
Width: 444
GlyphClass: 2
Flags: W
HStem: 0 19<41 422> 497 21<40 390>
LayerCount: 2
Fore
SplineSet
422 19 m 5
 422 0 l 1
 13 0 l 1
 13 18 l 1
 390 497 l 1
 40 497 l 1
 40 518 l 1
 419 518 l 1
 419 498 l 1
 41 19 l 1
 422 19 l 5
EndSplineSet
Validated: 1
EndChar

StartChar: braceleft
Encoding: 123 123 92
GlifName: braceleft
Width: 296
GlyphClass: 2
Flags: W
HStem: -80 21<206.619 284> 339 22<78 109.886> 759 21<206.619 284>
VStem: 138 22<-18.7295 131.629 568.371 718.73> 159 22<130.241 293.768 406.213 569.759>
CounterMasks: 1 e0
LayerCount: 2
Fore
SplineSet
284 759 m 1xf0
 266 759 l 2
 204 759 160 738 160 670 c 0xf0
 160 647 163 629 170 575 c 0
 179 509 181 477 181 455 c 0
 181 416 166 365 107 351 c 1
 166 336 181 283 181 245 c 0xe8
 181 223 179 191 170 125 c 0
 163 71 160 53 160 30 c 0
 160 -38 204 -59 266 -59 c 2
 284 -59 l 1
 284 -80 l 1
 267 -80 l 2
 192 -80 138 -52 138 31 c 0xf0
 138 52 140 74 149 135 c 0
 157 193 159 221 159 245 c 0
 159 289 138 333 78 339 c 1
 78 361 l 1
 138 367 159 411 159 455 c 0xe8
 159 479 157 507 149 565 c 0
 140 626 138 648 138 669 c 0
 138 752 192 780 267 780 c 2
 284 780 l 1
 284 759 l 1xf0
EndSplineSet
Validated: 1
EndChar

StartChar: bar
Encoding: 124 124 93
GlifName: bar
Width: 250
GlyphClass: 2
Flags: W
VStem: 114 22<-200 800>
LayerCount: 2
Fore
SplineSet
136 -200 m 1
 114 -200 l 1
 114 800 l 1
 136 800 l 1
 136 -200 l 1
EndSplineSet
Validated: 1
EndChar

StartChar: braceright
Encoding: 125 125 94
GlifName: braceright
Width: 296
GlyphClass: 2
Flags: W
HStem: -80 21<12 89.3809> 339 22<186.114 218> 759 21<12 89.3809>
VStem: 115 22<130.241 293.787 406.232 569.759> 136 22<-18.7295 131.629 568.371 718.73>
CounterMasks: 1 e0
LayerCount: 2
Fore
SplineSet
137 455 m 0xf0
 137 411 158 367 218 361 c 1
 218 339 l 1
 158 333 137 289 137 245 c 0xf0
 137 221 139 193 147 135 c 0
 156 74 158 52 158 31 c 0
 158 -52 104 -80 29 -80 c 2
 12 -80 l 1
 12 -59 l 1
 30 -59 l 2
 92 -59 136 -38 136 30 c 0xe8
 136 53 133 71 126 125 c 0
 117 191 115 223 115 245 c 0
 115 284 130 335 189 349 c 1
 130 364 115 417 115 455 c 0xf0
 115 477 117 509 126 575 c 0
 133 629 136 647 136 670 c 0
 136 738 92 759 30 759 c 2
 12 759 l 1
 12 780 l 1
 29 780 l 2
 104 780 158 752 158 669 c 0xe8
 158 648 156 626 147 565 c 0
 139 507 137 479 137 455 c 0xf0
EndSplineSet
Validated: 1
EndChar

StartChar: asciitilde
Encoding: 126 126 95
GlifName: asciitilde
Width: 530
GlyphClass: 2
Flags: W
HStem: 233 21<340.191 424.417> 325 21<106.21 189.547>
VStem: 56 21<229 290.297> 454 21<288.703 350>
LayerCount: 2
Fore
SplineSet
454 350 m 1
 475 350 l 1
 475 267 442 233 388 233 c 0
 351 233 331 240 259 280 c 0
 196 315 172 325 141 325 c 0
 96 325 77 291 77 229 c 1
 56 229 l 1
 56 312 89 346 142 346 c 0
 180 346 201 338 272 299 c 0
 337 263 359 254 389 254 c 0
 435 254 454 288 454 350 c 1
EndSplineSet
Validated: 1
EndChar

StartChar: afii10023
Encoding: 161 1025 96
GlifName: afii10023
Width: 557
GlyphClass: 2
Flags: W
HStem: 0 20<117 524> 335 20<117 494> 670 20<117 514> 763 40<245.007 284.993 325.007 364.993>
VStem: 95 22<20 335 355 670> 245 40<763.007 802.993> 325 40<763.007 802.993>
LayerCount: 2
Fore
SplineSet
265 803 m 4
 276 803 285 794 285 783 c 4
 285 772 276 763 265 763 c 4
 254 763 245 772 245 783 c 4
 245 794 254 803 265 803 c 4
345 803 m 4
 356 803 365 794 365 783 c 4
 365 772 356 763 345 763 c 4
 334 763 325 772 325 783 c 4
 325 794 334 803 345 803 c 4
524 20 m 1
 524 0 l 1
 95 0 l 1
 95 690 l 1
 514 690 l 1
 514 670 l 1
 117 670 l 1
 117 355 l 1
 494 355 l 1
 494 335 l 1
 117 335 l 1
 117 20 l 1
 524 20 l 1
EndSplineSet
Position2: "'cpsp' Capital Spacing in Cyrillic lookup 3 subtable" dx=5 dy=0 dh=10 dv=0
Colour: ffff
EndChar

StartChar: afii10052
Encoding: 163 1027 97
GlifName: afii10052
Width: 531
GlyphClass: 2
Flags: W
HStem: 0 21G<96 118> 670 20<118 515>
VStem: 96 22<0 670>
LayerCount: 2
Fore
SplineSet
315 764 m 1
 296 764 l 1
 356 874 l 1
 384 874 l 1
 315 764 l 1
118 670 m 1
 118 0 l 1
 96 0 l 1
 96 690 l 1
 515 690 l 1
 515 670 l 1
 118 670 l 1
EndSplineSet
Validated: 1
Position2: "'cpsp' Capital Spacing in Cyrillic lookup 3 subtable" dx=5 dy=0 dh=10 dv=0
Colour: ffff
EndChar

StartChar: afii10053
Encoding: 164 1028 98
GlifName: afii10053
Width: 677
GlyphClass: 2
Flags: W
HStem: -14 21<279.288 428.126> 343 21<75 430> 683 21<290.371 436.303>
VStem: 51 24<235.658 343 364 445.956> 604 22<181.492 227 474 512.517>
LayerCount: 2
Fore
SplineSet
430 343 m 1
 75 343 l 1
 75 114 204 7 352 7 c 0
 500 7 580 99 604 217 c 2
 606 227 l 1
 628 227 l 1
 626 217 l 2
 600 88 515 -14 350 -14 c 0
 179 -14 51 118 51 343 c 0
 51 558 187 704 364 704 c 0
 515 704 599 608 624 484 c 2
 626 474 l 1
 604 474 l 1
 602 484 l 2
 579 597 497 683 360 683 c 0
 220 683 83 572 75 364 c 1
 430 364 l 1
 430 343 l 1
EndSplineSet
Validated: 1
Position2: "'cpsp' Capital Spacing in Cyrillic lookup 3 subtable" dx=5 dy=0 dh=10 dv=0
Colour: ffff
EndChar

StartChar: afii10054
Encoding: 165 1029 99
GlifName: afii10054
Width: 560
GlyphClass: 2
Flags: W
HStem: -14 21<207.328 357.567> 683 21<216.796 346.173>
VStem: 39 22<138.929 180> 71 24<470.126 585.916> 473 22<514 556.112> 483 24<108.268 229.167>
LayerCount: 2
Fore
SplineSet
284 704 m 0xf4
 413 704 482 617 495 514 c 1
 473 514 l 1xf8
 455 620 380 683 283 683 c 0
 195 683 95 632 95 533 c 0
 95 434 156 403 294 363 c 0
 437 322 507 275 507 167 c 0
 507 65 412 -14 283 -14 c 0
 162 -14 53 47 39 180 c 1
 61 180 l 1
 74 67 172 7 284 7 c 0
 397 7 483 72 483 165 c 0
 483 264 424 301 284 341 c 0
 136 383 71 425 71 531 c 0
 71 632 170 704 284 704 c 0xf4
EndSplineSet
Validated: 1
Position2: "'cpsp' Capital Spacing in Cyrillic lookup 3 subtable" dx=5 dy=0 dh=10 dv=0
Colour: ffff
EndChar

StartChar: afii10055
Encoding: 166 1030 100
GlifName: afii10055
Width: 189
GlyphClass: 2
Flags: W
HStem: 0 21G<96 118> 670 20G<96 118>
VStem: 96 22<0 690>
LayerCount: 2
Fore
SplineSet
118 0 m 1
 96 0 l 1
 96 690 l 1
 118 690 l 1
 118 0 l 1
EndSplineSet
Validated: 1
Position2: "'cpsp' Capital Spacing in Cyrillic lookup 3 subtable" dx=5 dy=0 dh=10 dv=0
Colour: ffff
EndChar

StartChar: afii10056
Encoding: 167 1031 101
GlifName: afii10056
Width: 189
GlyphClass: 2
Flags: W
HStem: 0 21G<96 118> 670 20G<96 118> 764 40<47.0066 86.9934 127.007 166.993>
VStem: 47 40<764.007 803.993> 96 22<0 690> 127 40<764.007 803.993>
CounterMasks: 1 1c
LayerCount: 2
Fore
SplineSet
67 804 m 0
 78 804 87 795 87 784 c 0
 87 773 78 764 67 764 c 0
 56 764 47 773 47 784 c 0
 47 795 56 804 67 804 c 0
147 804 m 0
 158 804 167 795 167 784 c 0
 167 773 158 764 147 764 c 0
 136 764 127 773 127 784 c 0
 127 795 136 804 147 804 c 0
118 0 m 1
 96 0 l 1
 96 690 l 1
 118 690 l 1
 118 0 l 1
EndSplineSet
Validated: 1
Position2: "'cpsp' Capital Spacing in Cyrillic lookup 3 subtable" dx=5 dy=0 dh=10 dv=0
Colour: ffff
EndChar

StartChar: afii10057
Encoding: 168 1032 102
GlifName: afii10057
Width: 495
GlyphClass: 2
Flags: W
HStem: -14 21<174.958 302.842> 670 20G<407 429>
VStem: 48 22<125.498 224> 407 22<122.277 690>
LayerCount: 2
Fore
SplineSet
429 690 m 1
 429 260 l 2
 429 229 429 201 427 169 c 0
 421 77 365 -14 239 -14 c 0
 123 -14 53 53 48 194 c 2
 47 224 l 1
 69 224 l 1
 70 194 l 2
 75 56 148 7 241 7 c 0
 339 7 396 68 405 172 c 0
 407 194 407 221 407 252 c 2
 407 690 l 1
 429 690 l 1
EndSplineSet
Validated: 1
Position2: "'cpsp' Capital Spacing in Cyrillic lookup 3 subtable" dx=5 dy=0 dh=10 dv=0
Colour: ffff
EndChar

StartChar: afii10061
Encoding: 172 1036 103
GlifName: afii10061
Width: 553
GlyphClass: 2
Flags: W
HStem: 0 21G<96 118 482.117 535> 670 20G<96 118 490.47 541>
VStem: 96 22<0 299 324 690>
LayerCount: 2
Fore
SplineSet
328 764 m 1
 309 764 l 1
 369 874 l 1
 397 874 l 1
 328 764 l 1
180 355 m 1
 535 0 l 1
 502 0 l 1
 163 341 l 1
 118 299 l 1
 118 0 l 1
 96 0 l 1
 96 690 l 1
 118 690 l 1
 118 324 l 1
 512 690 l 1
 541 690 l 1
 180 355 l 1
EndSplineSet
Validated: 1
Position2: "'cpsp' Capital Spacing in Cyrillic lookup 3 subtable" dx=5 dy=0 dh=10 dv=0
Colour: ffff
EndChar

StartChar: afii10062
Encoding: 174 1038 104
GlifName: afii10062
Width: 545
GlyphClass: 2
Flags: W
HStem: 0 21G<198 227.692> 670 20G<23 58.5258 480.381 516> 764 21<233.447 306.175>
VStem: 179 18<831.725 884> 342 18<831.725 884>
LayerCount: 2
Fore
SplineSet
342 884 m 1
 360 884 l 1
 360 811 331 764 270 764 c 0
 208 764 179 811 179 884 c 1
 197 884 l 1
 198 822 224 785 270 785 c 0
 316 785 341 822 342 884 c 1
290 182 m 1
 220 0 l 1
 198 0 l 1
 268 182 l 1
 23 690 l 1
 49 690 l 1
 280 205 l 1
 489 690 l 1
 516 690 l 1
 290 182 l 1
EndSplineSet
Validated: 1
Position2: "'cpsp' Capital Spacing in Cyrillic lookup 3 subtable" dx=5 dy=0 dh=10 dv=0
Colour: ffff
EndChar

StartChar: afii10017
Encoding: 176 1040 105
GlifName: afii10017
Width: 643
GlyphClass: 2
Flags: W
HStem: 0 21G<40 70.658 571.268 603> 269 21<174 466> 670 20G<299.261 343.739>
LayerCount: 2
Fore
SplineSet
475 269 m 1
 166 269 l 1
 63 0 l 1
 40 0 l 1
 307 690 l 1
 336 690 l 1
 603 0 l 1
 579 0 l 1
 475 269 l 1
174 290 m 1
 466 290 l 1
 321 671 l 1
 174 290 l 1
EndSplineSet
Position2: "'cpsp' Capital Spacing in Cyrillic lookup 3 subtable" dx=5 dy=0 dh=10 dv=0
Colour: ffff
EndChar

StartChar: afii10018
Encoding: 177 1041 106
GlifName: afii10018
Width: 622
GlyphClass: 2
Flags: W
HStem: 0 21<122 404.62> 351 21<122 359.966> 669 21<122 499>
VStem: 100 22<21 351 372 669> 528 24<120.624 253.444>
LayerCount: 2
Fore
SplineSet
552 183 m 0
 552 73 463 10 360 2 c 0
 335 0 316 0 292 0 c 2
 100 0 l 1
 100 690 l 1
 499 690 l 5
 499 669 l 5
 122 669 l 1
 122 372 l 1
 288 372 l 2
 313 372 360 370 360 370 c 1
 464 362 552 322 552 183 c 0
353 22 m 0
 438 28 528 73 528 182 c 0
 528 271 488 344 354 350 c 0
 331 351 318 351 302 351 c 2
 122 351 l 1
 122 21 l 1
 308 21 l 2
 324 21 340 21 353 22 c 0
EndSplineSet
Position2: "'cpsp' Capital Spacing in Cyrillic lookup 3 subtable" dx=5 dy=0 dh=10 dv=0
Colour: ffff
EndChar

StartChar: afii10019
Encoding: 178 1042 107
GlifName: afii10019
Width: 622
GlyphClass: 2
Flags: W
HStem: 0 21<122 404.62> 351 21<122 405.04> 669 21<122 398.122>
VStem: 100 22<21 351 372 669> 502 24<458.509 582.062> 528 24<120.525 249.993>
LayerCount: 2
Fore
SplineSet
392 364 m 1
 500 348 552 277 552 183 c 0
 552 73 463 8 360 2 c 0
 335 0 316 0 292 0 c 2
 100 0 l 1
 100 690 l 1
 274 690 l 2
 301 690 317 690 352 688 c 0
 456 681 526 621 526 525 c 0
 526 438 475 377 392 364 c 1
122 669 m 1
 122 372 l 1
 288 372 l 2
 304 372 320 372 343 373 c 0
 415 377 502 411 502 520 c 0
 502 629 419 665 339 668 c 0
 316 669 300 669 274 669 c 2
 122 669 l 1
353 22 m 0
 438 28 528 73 528 182 c 0
 528 261 488 344 354 350 c 0
 331 351 318 351 302 351 c 2
 122 351 l 1
 122 21 l 1
 308 21 l 2
 324 21 340 21 353 22 c 0
EndSplineSet
Position2: "'cpsp' Capital Spacing in Cyrillic lookup 3 subtable" dx=5 dy=0 dh=10 dv=0
Colour: ffff
EndChar

StartChar: afii10020
Encoding: 179 1043 108
GlifName: afii10020
Width: 539
GlyphClass: 2
Flags: W
HStem: 0 21G<100 122> 670 20<122 499>
VStem: 100 22<0 670>
LayerCount: 2
Fore
SplineSet
122 670 m 5
 122 0 l 5
 100 0 l 5
 100 690 l 5
 499 690 l 5
 499 670 l 5
 122 670 l 5
EndSplineSet
Position2: "'cpsp' Capital Spacing in Cyrillic lookup 3 subtable" dx=5 dy=0 dh=10 dv=0
Colour: ffff
EndChar

StartChar: afii10021
Encoding: 180 1044 109
GlifName: afii10021
Width: 688
GlyphClass: 2
Flags: W
HStem: 0 22<62 87.0035 108 576 598 616> 668 22<192 576>
VStem: 40 22<-160 0> 170 22<260.927 668> 576 22<22 668> 616 22<-160 0>
LayerCount: 2
Fore
SplineSet
638 22 m 1
 638 -160 l 1
 616 -160 l 1
 616 0 l 1
 62 0 l 1
 62 -160 l 1
 40 -160 l 1
 40 22 l 1
 82 22 l 1
 136 112.532226562 170 205.053710938 170 409 c 2
 170 540 l 1
 170 690 l 1
 598 690 l 1
 598 22 l 1
 638 22 l 1
576 22 m 1
 576 668 l 1
 192 668 l 1
 192 541 l 1
 189 410 l 1
 189 227.470703125 164 122.740234375 108 22 c 1
 576 22 l 1
EndSplineSet
Position2: "'cpsp' Capital Spacing in Cyrillic lookup 3 subtable" dx=5 dy=0 dh=10 dv=0
Substitution2: "'locl' Localized Forms in Cyrillic lookup 1 subtable" uni0414.loclBGR
Substitution2: "'aalt' Access All Alternates lookup 0 subtable" uni0414.loclBGR
Colour: ffff
EndChar

StartChar: afii10022
Encoding: 181 1045 110
GlifName: afii10022
Width: 599
GlyphClass: 2
Flags: W
HStem: 0 20<122 529> 335 20<122 499> 670 20<122 519>
VStem: 100 22<20 335 355 670>
CounterMasks: 1 e0
LayerCount: 2
Fore
SplineSet
529 20 m 1
 529 0 l 1
 100 0 l 1
 100 690 l 1
 519 690 l 1
 519 670 l 1
 122 670 l 1
 122 355 l 1
 499 355 l 5
 499 335 l 1
 122 335 l 1
 122 20 l 1
 529 20 l 1
EndSplineSet
Position2: "'cpsp' Capital Spacing in Cyrillic lookup 3 subtable" dx=5 dy=0 dh=10 dv=0
Colour: ffff
EndChar

StartChar: afii10024
Encoding: 182 1046 111
GlifName: afii10024
Width: 986
GlyphClass: 2
Flags: W
HStem: 0 21G<40 82.3544 482 504 903.646 946> 333 22<310 482 504 676> 670 20G<69 110.657 482 504 875.343 917>
VStem: 482 22<0 333 355 690>
LayerCount: 2
Back
SplineSet
696 347 m 1
 946 0 l 1
 918 0 l 1
 679 333 l 1
 504 333 l 1
 504 0 l 1
 482 0 l 1
 482 333 l 1
 307 333 l 1
 68 0 l 1
 40 0 l 1
 290 347 l 1
 69 690 l 1
 98 690 l 1
 310 355 l 1
 482 355 l 1
 482 690 l 1
 504 690 l 1
 504 355 l 1
 676 355 l 1
 888 690 l 1
 917 690 l 1
 696 347 l 1
EndSplineSet
Fore
SplineSet
696 347 m 1
 946 0 l 1
 918 0 l 1
 679 333 l 1
 504 333 l 1
 504 0 l 1
 482 0 l 1
 482 333 l 1
 307 333 l 1
 68 0 l 1
 40 0 l 1
 290 347 l 1
 69 690 l 1
 98 690 l 1
 310 355 l 1
 482 355 l 1
 482 690 l 1
 504 690 l 1
 504 355 l 1
 676 355 l 1
 888 690 l 1
 917 690 l 1
 696 347 l 1
EndSplineSet
Substitution2: "'swsh' Swash lookup 13-1" afii10024.swsh
Position2: "'cpsp' Capital Spacing in Cyrillic lookup 3 subtable" dx=5 dy=0 dh=10 dv=0
Colour: ffff
EndChar

StartChar: afii10025
Encoding: 183 1047 112
GlifName: afii10025
Width: 543
GlyphClass: 2
Flags: W
HStem: -14 21<202.032 342.955> 343 21<244 326.311> 683 21<225.846 360.187>
VStem: 50 22<146.016 204> 81 22<499 557.125> 458 24<474.393 592.784> 469 24<117.651 243.532>
LayerCount: 2
Fore
SplineSet
333 357 m 1xfc
 431 342 493 287 493 183 c 0
 493 60 396 -14 269 -14 c 0
 149 -14 65 58 51 194 c 2
 50 204 l 1
 72 204 l 1
 73 194 l 2
 84 86 151 7 269 7 c 0
 383 7 469 70 469 183 c 0xfa
 469 274 406 343 261 343 c 2
 244 343 l 1
 244 364 l 1
 261 364 l 2
 353 364 458 425 458 529 c 0
 458 635 384 683 291 683 c 0
 188 683 115 619 104 509 c 2
 103 499 l 1
 81 499 l 1
 82 509 l 2
 94 633 181 704 292 704 c 0
 416 704 482 629 482 531 c 0
 482 445 418 375 333 357 c 1xfc
EndSplineSet
Position2: "'cpsp' Capital Spacing in Cyrillic lookup 3 subtable" dx=5 dy=0 dh=10 dv=0
Colour: ffff
EndChar

StartChar: afii10026
Encoding: 184 1048 113
GlifName: afii10026
Width: 698
GlyphClass: 2
Flags: W
HStem: 0 21G<100 135.884 576 598> 670 20G<100 122 562.116 598>
VStem: 100 22<36 690> 576 22<0 654>
LayerCount: 2
Fore
SplineSet
598 690 m 1
 598 0 l 1
 576 0 l 1
 576 654 l 1
 122 0 l 1
 100 0 l 1
 100 690 l 1
 122 690 l 1
 122 36 l 1
 576 690 l 1
 598 690 l 1
EndSplineSet
Position2: "'cpsp' Capital Spacing in Cyrillic lookup 3 subtable" dx=5 dy=0 dh=10 dv=0
Colour: ffff
EndChar

StartChar: afii10027
Encoding: 185 1049 114
GlifName: afii10027
Width: 698
GlyphClass: 2
Flags: W
HStem: 0 21G<100 135.884 576 598> 670 20G<100 122 562.116 598> 764 21<304.447 377.175>
VStem: 100 22<36 690> 250 18<831.725 884> 413 18<831.725 884> 576 22<0 654>
LayerCount: 2
Fore
SplineSet
413 884 m 1
 431 884 l 1
 431 811 402 764 341 764 c 0
 279 764 250 811 250 884 c 1
 268 884 l 1
 269 822 295 785 341 785 c 0
 387 785 412 822 413 884 c 1
EndSplineSet
Refer: 113 1048 N 1 0 0 1 0 0 2
Position2: "'cpsp' Capital Spacing in Cyrillic lookup 3 subtable" dx=5 dy=0 dh=10 dv=0
Colour: ffff
EndChar

StartChar: afii10028
Encoding: 186 1050 115
GlifName: afii10028
Width: 604
GlyphClass: 2
Flags: W
HStem: 0 21G<100 122 521.731 564> 335 20<122 294> 670 20G<100 122 493.343 535>
VStem: 100 22<0 335 355 690>
LayerCount: 2
Back
SplineSet
275 256 m 1
 112 256 l 1
 112 0 l 1
 90 0 l 1
 90 526 l 1
 112 526 l 1
 112 278 l 1
 265 278 l 1
 304.899536644 297.280451334 327.330897842 325.579956724 343.55859375 370 c 2
 402 526 l 1
 426 526 l 1
 363 357 l 2
 347.00365029 314.089157126 330.185412997 290.771559738 298 274 c 1
 350.612426104 265 372.152324882 238.017055783 383.908203125 213 c 2
 484 0 l 1
 462 0 l 1
 368 198 l 2
 357.955480192 219.157605554 335.3 256 275 256 c 1
EndSplineSet
Fore
SplineSet
314 349 m 5
 564 0 l 5
 536 0 l 5
 297 335 l 5
 122 335 l 5
 122 0 l 5
 100 0 l 5
 100 690 l 5
 122 690 l 5
 122 355 l 5
 294 355 l 5
 506 690 l 5
 535 690 l 5
 314 349 l 5
EndSplineSet
Substitution2: "'swsh' Swash lookup 13-1" afii10028.swsh
Position2: "'cpsp' Capital Spacing in Cyrillic lookup 3 subtable" dx=5 dy=0 dh=10 dv=0
Colour: ffff
EndChar

StartChar: afii10029
Encoding: 187 1051 116
GlifName: afii10029
Width: 676
GlyphClass: 2
Flags: W
HStem: -5 22<43.75 86.6454> 669 21<180 554>
VStem: 158 22<227.466 669> 554 22<0 669>
LayerCount: 2
Back
SplineSet
164 330 m 2
 164 526 l 1
 490 526 l 1
 490 0 l 1
 468 0 l 1
 468 506 l 1
 186 506 l 1
 186 330 l 2
 186 109.228515625 134.748046875 -5 62 -5 c 5
 54.4404296875 -5 46.3203125 -4.0576171875 41 -3 c 1
 46 18 l 1
 49.2314453125 17.3330078125 55.6953125 17 58.6171875 17 c 1
 124.106445312 17 164 150.116210938 164 330 c 2
EndSplineSet
Fore
SplineSet
576 0 m 1
 554 0 l 1
 554 669 l 1
 180 669 l 1
 180 541 l 1
 177 410 l 1
 177 215.284179688 165.965820312 -5 57 -5 c 0
 51.3330078125 -5 44.0478515625 -4 40 -3 c 1
 45 19 l 1
 48.8134765625 17.9375 54.599609375 17 60 17 c 4
 133.454101562 17 158 201.702148438 158 409 c 2
 158 540 l 1
 158 690 l 1
 576 690 l 1
 576 0 l 1
EndSplineSet
Position2: "'cpsp' Capital Spacing in Cyrillic lookup 3 subtable" dx=5 dy=0 dh=10 dv=0
Substitution2: "'locl' Localized Forms in Cyrillic lookup 1 subtable" uni041B.loclBGR
Substitution2: "'aalt' Access All Alternates lookup 0 subtable" uni041B.loclBGR
Colour: ffff
EndChar

StartChar: afii10030
Encoding: 188 1052 117
GlifName: afii10030
Width: 827
GlyphClass: 2
Flags: W
HStem: 0 21G<100 122 395.077 431.026 706 727> 670 20G<100 130.822 697.178 727>
VStem: 100 22<0 640> 706 21<0 640>
LayerCount: 2
Fore
SplineSet
727 690 m 1
 727 0 l 1
 706 0 l 1
 706 500 l 2
 706 546.209960938 706.913085938 594.940429688 708 640 c 1
 676.288085938 560.330078125 634.211914062 470.243164062 598 390 c 2
 422 0 l 1
 404 0 l 1
 230 390 l 2
 194.384765625 469.827148438 153.693359375 560.330078125 120 640 c 1
 122 595.384765625 122 545.127929688 122 500 c 2
 122 0 l 1
 100 0 l 1
 100 690 l 1
 122 690 l 1
 414 28 l 1
 706 690 l 1
 727 690 l 1
EndSplineSet
Position2: "'cpsp' Capital Spacing in Cyrillic lookup 3 subtable" dx=5 dy=0 dh=10 dv=0
Colour: ffff
EndChar

StartChar: afii10031
Encoding: 189 1053 118
GlifName: afii10031
Width: 688
GlyphClass: 2
Flags: W
HStem: 0 21G<100 122 566 588> 328 22<122 566> 670 20G<100 122 566 588>
VStem: 100 22<0 328 350 690> 566 22<0 328 350 690>
LayerCount: 2
Fore
SplineSet
588 690 m 1
 588 0 l 1
 566 0 l 1
 566 328 l 1
 122 328 l 1
 122 0 l 1
 100 0 l 1
 100 690 l 1
 122 690 l 1
 122 350 l 1
 566 350 l 1
 566 690 l 1
 588 690 l 1
EndSplineSet
Position2: "'cpsp' Capital Spacing in Cyrillic lookup 3 subtable" dx=5 dy=0 dh=10 dv=0
Colour: ffff
EndChar

StartChar: afii10032
Encoding: 190 1054 119
GlifName: afii10032
Width: 764
GlyphClass: 2
Flags: W
HStem: -14 21<309.182 454.818> 683 21<309.182 454.818>
VStem: 70 24<243.042 447.312> 670 24<243.042 447.312>
LayerCount: 2
Fore
SplineSet
382 704 m 0
 570 704 694 552 694 345 c 0
 694 139 570 -14 382 -14 c 4
 194 -14 70 139 70 345 c 0
 70 552 194 704 382 704 c 0
382 7 m 0
 536 7 670 129 670 345 c 0
 670 562 536 683 382 683 c 0
 228 683 94 562 94 345 c 0
 94 129 228 7 382 7 c 0
EndSplineSet
Position2: "'cpsp' Capital Spacing in Cyrillic lookup 3 subtable" dx=5 dy=0 dh=10 dv=0
Colour: ffff
EndChar

StartChar: afii10033
Encoding: 191 1055 120
GlifName: afii10033
Width: 688
GlyphClass: 2
Flags: W
HStem: 0 21G<100 122 566 588> 669 21<122 566>
VStem: 100 22<0 669> 566 22<0 669>
LayerCount: 2
Fore
SplineSet
588 690 m 1
 588 0 l 1
 566 0 l 1
 566 669 l 1
 122 669 l 1
 122 0 l 1
 100 0 l 1
 100 690 l 1
 588 690 l 1
EndSplineSet
Position2: "'cpsp' Capital Spacing in Cyrillic lookup 3 subtable" dx=5 dy=0 dh=10 dv=0
Colour: ffff
EndChar

StartChar: afii10034
Encoding: 192 1056 121
GlifName: afii10034
Width: 589
GlyphClass: 2
Flags: W
HStem: 0 21G<100 122> 308 21<122 374.754> 669 21<122 374.754>
VStem: 100 22<0 308 329 669> 495 24<433.36 571.379>
LayerCount: 2
Fore
SplineSet
352 685 m 0
 445 673 519 621 519 504 c 0
 519 384 445 325 352 313 c 0
 320 309 288 308 253 308 c 2
 122 308 l 1
 122 0 l 1
 100 0 l 1
 100 690 l 1
 253 690 l 2
 288 690 320 689 352 685 c 0
348 334 m 0
 432 344 495 395 495 504 c 0
 495 607 432 654 348 664 c 0
 316 668 289 669 253 669 c 2
 122 669 l 1
 122 329 l 1
 253 329 l 2
 289 329 316 330 348 334 c 0
EndSplineSet
Position2: "'cpsp' Capital Spacing in Cyrillic lookup 3 subtable" dx=5 dy=0 dh=10 dv=0
Colour: ffff
EndChar

StartChar: afii10035
Encoding: 193 1057 122
GlifName: afii10035
Width: 717
GlyphClass: 2
Flags: W
HStem: -14 21<298.288 447.126> 683 21<308.371 455.303>
VStem: 70 24<236.002 448.051> 623 22<181.492 227 474 512.517>
LayerCount: 2
Fore
SplineSet
383 704 m 0
 534 704 618 608 643 484 c 2
 645 474 l 1
 623 474 l 1
 621 484 l 2
 598 597 516 683 379 683 c 0
 235 683 94 565 94 344 c 0
 94 115 223 7 371 7 c 0
 519 7 599 99 623 217 c 2
 625 227 l 1
 647 227 l 1
 645 217 l 2
 619 88 534 -14 369 -14 c 0
 198 -14 70 118 70 343 c 0
 70 558 206 704 383 704 c 0
EndSplineSet
Position2: "'cpsp' Capital Spacing in Cyrillic lookup 3 subtable" dx=5 dy=0 dh=10 dv=0
Colour: ffff
EndChar

StartChar: afii10036
Encoding: 194 1058 123
GlifName: afii10036
Width: 630
GlyphClass: 2
Flags: W
HStem: 0 21G<304 326> 670 20<40 304 326 590>
VStem: 304 22<0 670>
LayerCount: 2
Fore
SplineSet
590 670 m 1
 326 670 l 1
 326 0 l 1
 304 0 l 1
 304 670 l 1
 40 670 l 1
 40 690 l 1
 590 690 l 1
 590 670 l 1
EndSplineSet
Position2: "'cpsp' Capital Spacing in Cyrillic lookup 3 subtable" dx=5 dy=0 dh=10 dv=0
Colour: ffff
EndChar

StartChar: afii10037
Encoding: 195 1059 124
GlifName: afii10037
Width: 563
GlyphClass: 2
Flags: W
HStem: 0 21G<215 245.58> 670 20G<40 75.7934 497.612 533>
LayerCount: 2
Fore
SplineSet
237 0 m 1
 215 0 l 1
 292 182 l 1
 40 690 l 1
 66 690 l 1
 303 206 l 1
 506 690 l 1
 533 690 l 1
 237 0 l 1
EndSplineSet
Position2: "'cpsp' Capital Spacing in Cyrillic lookup 3 subtable" dx=5 dy=0 dh=10 dv=0
Colour: ffff
EndChar

StartChar: afii10038
Encoding: 196 1060 125
GlifName: afii10038
Width: 764
GlyphClass: 2
Flags: W
HStem: 0 21G<371 393> 66 21<280.958 371 393 483.042> 603 21<280.958 371 393 483.042> 670 20G<371 393>
VStem: 70 24<254.033 435.967> 371 22<0 66 87 603 624 690> 670 24<253.209 436.791>
CounterMasks: 1 0e
LayerCount: 2
Fore
SplineSet
393 0 m 1
 371 0 l 1
 371 66 l 1
 201 66 70 145 70 345 c 0
 70 545 201 624 371 624 c 1
 371 690 l 1
 393 690 l 1
 393 624 l 1
 563 624 694 545 694 345 c 0
 694 145 563 66 393 66 c 1
 393 0 l 1
670 345 m 4
 670 545 533 603 393 603 c 1
 393 87 l 1
 533 87 670 145 670 345 c 4
94 345 m 4
 94 145 231 87 371 87 c 5
 371 603 l 1
 231 603 94 545 94 345 c 4
EndSplineSet
Position2: "'cpsp' Capital Spacing in Cyrillic lookup 3 subtable" dx=5 dy=0 dh=10 dv=0
Colour: ffff
EndChar

StartChar: afii10039
Encoding: 197 1061 126
GlifName: afii10039
Width: 614
GlyphClass: 2
Flags: W
HStem: 0 21G<40 82.2857 523.714 568> 670 20G<57 95.4557 530.138 574>
LayerCount: 2
Fore
SplineSet
316 345 m 1
 568 0 l 1
 538 0 l 1
 303 329 l 1
 68 0 l 1
 40 0 l 1
 288 344 l 1
 57 690 l 1
 82 690 l 1
 302 363 l 1
 545 690 l 1
 574 690 l 1
 316 345 l 1
EndSplineSet
Position2: "'cpsp' Capital Spacing in Cyrillic lookup 3 subtable" dx=5 dy=0 dh=10 dv=0
Colour: ffff
EndChar

StartChar: afii10040
Encoding: 198 1062 127
GlifName: afii10040
Width: 669
GlyphClass: 2
Flags: W
HStem: 0 21<122 566 588 607> 670 20G<100 122 566 588>
VStem: 100 22<21 690> 566 22<21 690> 607 22<-160 0>
LayerCount: 2
Fore
SplineSet
629 21 m 1
 629 -160 l 5
 607 -160 l 1
 607 0 l 1
 100 0 l 1
 100 690 l 1
 122 690 l 1
 122 21 l 1
 566 21 l 1
 566 690 l 1
 588 690 l 1
 588 21 l 1
 629 21 l 1
EndSplineSet
Position2: "'cpsp' Capital Spacing in Cyrillic lookup 3 subtable" dx=5 dy=0 dh=10 dv=0
Colour: ffff
EndChar

StartChar: afii10041
Encoding: 199 1063 128
GlifName: afii10041
Width: 644
GlyphClass: 2
Flags: W
HStem: 0 21G<522 544> 236 21<246.062 406.446> 670 20G<100 122 522 544>
VStem: 100 22<377.832 690> 522 22<0 317 340.628 690>
LayerCount: 2
Fore
SplineSet
544 0 m 1
 522 0 l 1
 522 317 l 1
 501 280 444 236 322 236 c 0
 184 236 110 310 103 416 c 0
 101 447 100 468 100 483 c 2
 100 690 l 1
 122 690 l 1
 122 479 l 2
 122 456 123 438 125 417 c 0
 133 330 191 257 322 257 c 0
 466 257 504 324 522 359 c 1
 522 690 l 1
 544 690 l 1
 544 0 l 1
EndSplineSet
Position2: "'cpsp' Capital Spacing in Cyrillic lookup 3 subtable" dx=5 dy=0 dh=10 dv=0
Colour: ffff
EndChar

StartChar: afii10042
Encoding: 200 1064 129
GlifName: afii10042
Width: 854
GlyphClass: 2
Flags: W
HStem: 0 21<122 416 438 732> 670 20G<100 122 416 438 732 754>
VStem: 100 22<21 690> 416 22<21 690> 732 22<21 690>
CounterMasks: 1 38
LayerCount: 2
Fore
SplineSet
754 690 m 5
 754 0 l 5
 100 0 l 5
 100 690 l 5
 122 690 l 5
 122 21 l 5
 416 21 l 5
 416 690 l 5
 438 690 l 5
 438 21 l 5
 732 21 l 5
 732 690 l 5
 754 690 l 5
EndSplineSet
Position2: "'cpsp' Capital Spacing in Cyrillic lookup 3 subtable" dx=5 dy=0 dh=10 dv=0
Colour: ffff
EndChar

StartChar: afii10043
Encoding: 201 1065 130
GlifName: afii10043
Width: 839
GlyphClass: 2
Flags: W
HStem: 0 21<122 416 438 732 754 777> 670 20G<100 122 416 438 732 754>
VStem: 100 22<21 690> 416 22<21 690> 732 22<21 690> 777 22<-160 0>
LayerCount: 2
Fore
SplineSet
799 21 m 1
 799 -160 l 5
 777 -160 l 1
 777 0 l 1
 100 0 l 1
 100 690 l 1
 122 690 l 1
 122 21 l 1
 416 21 l 1
 416 690 l 1
 438 690 l 1
 438 21 l 1
 732 21 l 1
 732 690 l 1
 754 690 l 1
 754 21 l 1
 799 21 l 1
EndSplineSet
Position2: "'cpsp' Capital Spacing in Cyrillic lookup 3 subtable" dx=5 dy=0 dh=10 dv=0
Colour: ffff
EndChar

StartChar: afii10044
Encoding: 202 1066 131
GlifName: afii10044
Width: 698
GlyphClass: 2
Flags: W
HStem: 0 21<198 480.62> 351 21<198 435.966> 669 21<20 176>
VStem: 176 22<21 351 372 669> 604 24<120.624 253.444>
LayerCount: 2
Fore
SplineSet
628 183 m 0
 628 73 539 10 436 2 c 0
 411 0 392 0 368 0 c 2
 176 0 l 1
 176 669 l 1
 20 669 l 1
 20 690 l 1
 198 690 l 1
 198 372 l 1
 364 372 l 2
 389 372 436 370 436 370 c 1
 540 362 628 322 628 183 c 0
429 22 m 0
 514 28 604 73 604 182 c 0
 604 271 564 344 430 350 c 0
 407 351 394 351 378 351 c 2
 198 351 l 1
 198 21 l 1
 384 21 l 2
 400 21 416 21 429 22 c 0
EndSplineSet
Validated: 1
Position2: "'cpsp' Capital Spacing in Cyrillic lookup 3 subtable" dx=5 dy=0 dh=10 dv=0
Colour: ffff
EndChar

StartChar: afii10045
Encoding: 203 1067 132
GlifName: afii10045
Width: 782
GlyphClass: 2
Flags: W
HStem: 0 21<122 404.62> 351 21<122 415.04> 670 20G<100 122 660 682>
VStem: 100 22<21 351 372 690> 528 24<120.636 253.46> 660 22<0 690>
LayerCount: 2
Fore
SplineSet
682 0 m 5
 660 0 l 5
 660 690 l 5
 682 690 l 5
 682 0 l 5
552 183 m 0
 552 73 462.981445312 10.23828125 360 2 c 0
 335 0 316 0 292 0 c 2
 100 0 l 1
 100 690 l 1
 122 690 l 1
 122 372 l 1
 288 372 l 2
 313 372 360 370 360 370 c 1
 464 362 552 322 552 183 c 0
353 22 m 0
 438 28 528 73 528 182 c 0
 528 271 488.0078125 344.173828125 354 350 c 0
 331 351 318 351 302 351 c 2
 122 351 l 1
 122 21 l 1
 308 21 l 2
 324 21 339.994140625 21.08203125 353 22 c 0
EndSplineSet
Position2: "'cpsp' Capital Spacing in Cyrillic lookup 3 subtable" dx=5 dy=0 dh=10 dv=0
Colour: ffff
EndChar

StartChar: afii10046
Encoding: 204 1068 133
GlifName: afii10046
Width: 622
GlyphClass: 2
Flags: W
HStem: 0 21<122 404.62> 351 21<122 359.966> 670 20G<100 122>
VStem: 100 22<21 351 372 690> 528 24<120.624 253.444>
LayerCount: 2
Fore
SplineSet
552 183 m 4
 552 73 463 10 360 2 c 4
 335 0 316 0 292 0 c 6
 100 0 l 5
 100 690 l 5
 122 690 l 5
 122 372 l 5
 288 372 l 6
 313 372 360 370 360 370 c 5
 464 362 552 322 552 183 c 4
353 22 m 4
 438 28 528 73 528 182 c 4
 528 271 488 344 354 350 c 4
 331 351 318 351 302 351 c 6
 122 351 l 5
 122 21 l 5
 308 21 l 6
 324 21 340 21 353 22 c 4
EndSplineSet
Position2: "'cpsp' Capital Spacing in Cyrillic lookup 3 subtable" dx=5 dy=0 dh=10 dv=0
Colour: ffff
EndChar

StartChar: afii10047
Encoding: 205 1069 134
GlifName: afii10047
Width: 717
GlyphClass: 2
Flags: W
HStem: -14 21<288.166 437.389> 343 21<268 623> 683 21<279.843 426.306>
VStem: 72 22<181.492 227 474 512.517> 623 24<226.956 343 364 454.342>
LayerCount: 2
Fore
SplineSet
623 343 m 1
 268 343 l 1
 268 364 l 1
 623 364 l 1
 615 572 498 683 358 683 c 0
 221 683 119 597 96 484 c 2
 94 474 l 1
 72 474 l 1
 74 484 l 2
 99 608 203 704 354 704 c 0
 531 704 647 558 647 343 c 0
 647 118 539 -14 368 -14 c 0
 203 -14 98 88 72 217 c 2
 70 227 l 1
 92 227 l 1
 94 217 l 2
 118 99 218 7 366 7 c 0
 514 7 623 114 623 343 c 1
EndSplineSet
Position2: "'cpsp' Capital Spacing in Cyrillic lookup 3 subtable" dx=5 dy=0 dh=10 dv=0
Colour: ffff
EndChar

StartChar: afii10048
Encoding: 206 1070 135
GlifName: afii10048
Width: 880
GlyphClass: 2
Flags: W
HStem: -14 21<426.114 570.818> 0 21G<100 122> 328 21<122 186> 670 20G<100 122> 683 21<425.363 570.818>
VStem: 100 22<0 328 349 690> 186 24<242.098 328 349 448.256> 786 24<243.042 447.312>
LayerCount: 2
Fore
SplineSet
498 704 m 0x2f
 686 704 810 552 810 345 c 0
 810 139 686 -14 498 -14 c 0xaf
 315 -14 192 130 186 328 c 1
 122 328 l 1
 122 0 l 1
 100 0 l 1
 100 690 l 1
 122 690 l 1x77
 122 349 l 1
 186 349 l 1
 187 554 311 704 498 704 c 0x2f
498 7 m 0
 652 7 786 129 786 345 c 0
 786 562 652 683 498 683 c 0
 344 683 210 562 210 345 c 0
 210 129 344 7 498 7 c 0
EndSplineSet
Position2: "'cpsp' Capital Spacing in Cyrillic lookup 3 subtable" dx=5 dy=0 dh=10 dv=0
Colour: ffff
EndChar

StartChar: afii10049
Encoding: 207 1071 136
GlifName: afii10049
Width: 613
GlyphClass: 2
Flags: W
HStem: 0 21G<70 101.935 491 513> 338 21<244 491> 669 21<218.699 491>
VStem: 80 24<453.052 574.822> 491 22<0 338 359 669>
LayerCount: 2
Fore
SplineSet
221 341 m 1
 132.875 357.666992188 80 424.333007812 80 516 c 0
 80 630.37890625 166.454101562 690 298 690 c 2
 513 690 l 1
 513 0 l 1
 491 0 l 1
 491 338 l 1
 298 338 l 2
 244 338 l 0
 93 0 l 1
 70 0 l 1
 221 341 l 1
298 359 m 2
 491 359 l 1
 491 669 l 1
 298 669 l 2
 181.877929688 669 104 617.935546875 104 515 c 0
 104 409.90625 179.939453125 359 298 359 c 2
EndSplineSet
Position2: "'cpsp' Capital Spacing in Cyrillic lookup 3 subtable" dx=5 dy=0 dh=10 dv=0
Colour: ffff
EndChar

StartChar: afii10065
Encoding: 208 1072 137
GlifName: afii10065
Width: 525
GlyphClass: 2
Flags: W
HStem: -14 21<158.721 284.92> 0 21G<420.915 445> 282 21<260.812 414> 519 21<204.032 331.52>
VStem: 60 24<72.4551 174.632> 80 22<382 423.693> 414 22<142.574 281 303 438.502>
LayerCount: 2
Fore
SplineSet
422 0 m 1x76
 415 129 l 1
 392 76 l 1
 355 17 293 -14 222 -14 c 0
 122 -14 60 33 60 127 c 0xba
 60 250 216 303 380 303 c 2
 414 303 l 1
 414 330 l 2
 414 355 414 375 412 398 c 0
 405 477 353 519 267 519 c 0
 193 519 114 480 102 382 c 1
 80 382 l 1
 86 470 163 540 267 540 c 0
 370 540 427 489 434 401 c 0
 436 374 436 360 436 332 c 2
 436 170 l 2
 436 110 439 69 445 0 c 1
 422 0 l 1x76
225 7 m 0
 338 7 414 105 414 209 c 2
 414 281 l 1
 400 282 385 282 371 282 c 0
 229 282 84 237 84 128 c 0
 84 55 129 7 225 7 c 0
EndSplineSet
Colour: ffff
EndChar

StartChar: afii10066
Encoding: 209 1073 138
GlifName: afii10066
Width: 584
GlyphClass: 2
Flags: W
HStem: -14 21<237.463 363.222> 479 21<244.319 368.716>
VStem: 80 22<158.899 324.977 357 486.157> 500 24<159.11 331.894>
LayerCount: 2
Back
SplineSet
302 540 m 0
 450 540 549 429 549 262 c 0
 549 96 450 -14 302 -14 c 0
 154 -14 55 96 55 262 c 0
 55 429 154 540 302 540 c 0
302 7 m 0
 416 7 525 86 525 262 c 0
 525 439 416 519 302 519 c 0
 188 519 79 439 79 262 c 0
 79 86 188 7 302 7 c 0
EndSplineSet
Fore
SplineSet
417 732 m 1
 417 707 l 1
 375.240234375 693.384765625 270 658 243 647 c 0
 216.392578125 636.16015625 102 578.240234375 102 408 c 1
 102 357 l 1
 152.009765625 485 261.760742188 500 312 500 c 0
 439.004882812 500 524 402.059570312 524 243 c 0
 524 110.595703125 455.456054688 -14 302 -14 c 0
 155.303710938 -14 80 95.232421875 80 243 c 2
 80 388 l 2
 80 559 154.552734375 637.971679688 246 673 c 0
 290.381835938 690 364.786132812 715 417 732 c 1
302 7 m 0
 435.368164062 7 500 120.672851562 500 243 c 0
 500 392.287109375 419.150390625 479 312 479 c 0
 219.560546875 479 102 422.458984375 102 243 c 0
 102 105.280273438 175.170898438 7 302 7 c 0
EndSplineSet
Colour: ffff
EndChar

StartChar: afii10067
Encoding: 210 1074 139
GlifName: afii10067
Width: 523
GlyphClass: 2
Flags: W
HStem: 0 22<112 366.711> 278 22<112 345.028> 504 22<112 355.712>
VStem: 90 22<22 278 300 504> 417 22<358.064 450.817> 439 24<85.2329 211.48>
LayerCount: 2
Back
SplineSet
90 526 m 1
 112 526 l 1
 112 300 l 1
 270 300 l 2
 385 300 463 270 463 150 c 4
 463 30 383.748046875 -0 270 0 c 2
 90 0 l 1
 90 526 l 1
112 22 m 1
 290 22 l 2
 383.66796875 22 439 60 439 150 c 0
 439 240 385 278 290 278 c 2
 112 278 l 1
 112 22 l 1
EndSplineSet
Fore
SplineSet
439 404 m 4xf8
 439 343.458984375 405 306 356 292 c 5
 413.321289062 277.104492188 463 249.30078125 463 150 c 4xf4
 463 50 401.759765625 -0 289 0 c 6
 90 0 l 5
 90 526 l 5
 289 526 l 6
 406.732421875 526 439 464 439 404 c 4xf8
112 22 m 5
 289 22 l 6
 393.244140625 22 439 60 439 150 c 4
 439 240 385 278 290 278 c 6
 112 278 l 5
 112 22 l 5
112 300 m 5
 270 300 l 6
 385 300 417 354 417 404 c 4xf8
 417 452.077148438 391.4296875 504 290 504 c 6
 112 504 l 5
 112 300 l 5
EndSplineSet
Substitution2: "'locl' Localized Forms in Cyrillic lookup 1 subtable" uni0432.loclBGR
Substitution2: "'aalt' Access All Alternates lookup 0 subtable" uni0432.loclBGR
Colour: ffff
EndChar

StartChar: afii10068
Encoding: 211 1075 140
GlifName: afii10068
Width: 481
GlyphClass: 2
Flags: W
HStem: 0 21G<90 112> 504 22<112 441>
VStem: 90 22<0 504>
LayerCount: 2
Fore
SplineSet
441 526 m 1
 441 504 l 5
 112 504 l 5
 112 0 l 1
 90 0 l 1
 90 526 l 1
 441 526 l 1
EndSplineSet
Substitution2: "'locl' Localized Forms in Cyrillic lookup 1 subtable" uni0433.loclBGR
Substitution2: "'aalt' Access All Alternates lookup 0 subtable" uni0433.loclBGR
Colour: ffff
EndChar

StartChar: afii10069
Encoding: 212 1076 141
GlifName: afii10069
Width: 586
GlyphClass: 2
Flags: W
HStem: 1 21<52 63.0314 85 452 474 494> 504 22<170 452>
VStem: 30 22<-160 1> 148 22<211.312 504> 452 22<22 504> 494 22<-160 1>
LayerCount: 2
Fore
SplineSet
30 22 m 5
 57 22 l 5
 122.585585586 112.711111111 148 212.393650794 148 336 c 6
 148 526 l 5
 474 526 l 5
 474 22 l 5
 516 22 l 5
 516 -160 l 5
 494 -160 l 5
 494 1 l 5
 52 1 l 5
 52 -160 l 5
 30 -160 l 5
 30 22 l 5
170 351 m 6
 170 188.493939394 144.904761905 114.718181818 85 22 c 5
 452 22 l 5
 452 504 l 5
 170 504 l 5
 170 351 l 6
EndSplineSet
Substitution2: "'locl' Localized Forms in Cyrillic lookup 1 subtable" uni0434.loclBGR
Substitution2: "'aalt' Access All Alternates lookup 0 subtable" uni0434.loclBGR
Colour: ffff
EndChar

StartChar: afii10070
Encoding: 213 1077 142
GlifName: afii10070
Width: 575
GlyphClass: 2
Flags: W
HStem: -14 21<224.792 353.537> 258 21<83 493> 519 21<234.653 354.733>
VStem: 60 23<173.947 258 279 349.809> 485 22<134.857 161> 493 22<279 361.72>
LayerCount: 2
Fore
SplineSet
515 277 m 0xf4
 515 273 515 269 514 258 c 1
 83 258 l 1
 87 76 191 7 288 7 c 0
 371 7 454 54 485 161 c 1
 507 161 l 1xf8
 475 45 386 -14 286 -14 c 0
 164 -14 60 81 60 265 c 0
 60 431 164 540 294 540 c 0
 445 540 515 408 515 277 c 0xf4
292 519 m 0
 199 519 87 444 83 279 c 1
 493 279 l 1xf4
 489 461 382 519 292 519 c 0
EndSplineSet
Colour: ffff
EndChar

StartChar: afii10072
Encoding: 214 1078 143
GlifName: afii10072
Width: 790
GlyphClass: 2
Flags: W
HStem: 0 21G<40 87.5312 384 406 702.469 750> 256 22<263 384 406 527> 506 20G<61 107.629 384 406 682.371 729>
VStem: 384 22<0 256 278 526>
LayerCount: 2
Back
SplineSet
259 256 m 1
 73 0 l 1
 40 0 l 1
 241 271 l 1
 61 526 l 1
 94 526 l 1
 263 278 l 1
 384 278 l 1
 384 526 l 1
 406 526 l 1
 406 278 l 1
 527 278 l 1
 696 526 l 1
 729 526 l 1
 549 271 l 1
 750 0 l 1
 717 0 l 1
 531 256 l 1
 406 256 l 1
 406 0 l 1
 384 0 l 1
 384 256 l 1
 259 256 l 1
EndSplineSet
Fore
SplineSet
259 256 m 1
 73 0 l 1
 40 0 l 1
 241 271 l 1
 61 526 l 1
 94 526 l 1
 263 278 l 1
 384 278 l 1
 384 526 l 1
 406 526 l 1
 406 278 l 1
 527 278 l 1
 696 526 l 1
 729 526 l 1
 549 271 l 1
 750 0 l 1
 717 0 l 1
 531 256 l 1
 406 256 l 1
 406 0 l 1
 384 0 l 1
 384 256 l 1
 259 256 l 1
EndSplineSet
Substitution2: "'swsh' Swash lookup 13-1" afii10072.swsh
Substitution2: "'locl' Localized Forms in Cyrillic lookup 1 subtable" uni0436.loclBGR
Substitution2: "'aalt' Access All Alternates lookup 0 subtable" uni0436.loclBGR
Colour: ffff
EndChar

StartChar: afii10073
Encoding: 215 1079 144
GlifName: afii10073
Width: 492
GlyphClass: 2
Flags: W
HStem: -14 21<184.297 321.866> 263 21<211 329.808> 519 21<187.43 306.399>
VStem: 60 22<114.242 156 383 403.054> 384 23<344.27 450.682> 409 23<83.1515 193.939>
LayerCount: 2
Fore
SplineSet
407 398 m 0
 407 354 392 306 342 276 c 1
 342 272 l 1
 382 262 432 215 432 141 c 0
 432 27 353 -14 250 -14 c 0
 152 -14 73 36 60 156 c 1
 82 156 l 1
 99 45 164 7 252 7 c 0
 335 7 409 44 409 140 c 0
 409 222 341 263 301 263 c 2
 211 263 l 1
 211 284 l 1
 296 284 l 2
 339 284 384 331 384 399 c 0
 384 476 322 519 249 519 c 0
 163 519 109 475 87 383 c 1
 65 383 l 1
 79 470 139 540 248 540 c 0
 344 540 407 479 407 398 c 0
EndSplineSet
Substitution2: "'locl' Localized Forms in Cyrillic lookup 1 subtable" uni0437.loclBGR
Substitution2: "'aalt' Access All Alternates lookup 0 subtable" uni0437.loclBGR
Colour: ffff
EndChar

StartChar: afii10074
Encoding: 216 1080 145
GlifName: afii10074
Width: 583
GlyphClass: 2
Flags: W
HStem: 0 21G<90 127.597 471 493> 506 20G<90 112 455.403 493>
VStem: 90 22<30 526> 471 22<0 496>
LayerCount: 2
Fore
SplineSet
493 526 m 1
 493 0 l 1
 471 0 l 1
 471 450 l 1
 475 496 l 1
 113 0 l 1
 90 0 l 1
 90 526 l 1
 112 526 l 1
 112 76 l 1
 108 30 l 1
 470 526 l 1
 493 526 l 1
EndSplineSet
Substitution2: "'locl' Localized Forms in Cyrillic lookup 1 subtable" uni0438.loclBGR
Substitution2: "'aalt' Access All Alternates lookup 0 subtable" uni0438.loclBGR
Colour: ffff
EndChar

StartChar: afii10075
Encoding: 217 1081 146
GlifName: afii10075
Width: 583
GlyphClass: 2
Flags: W
HStem: 0 21G<90 127.597 471 493> 506 20G<90 112 455.403 493> 600 21<232.447 305.175>
VStem: 90 22<30 526> 178 18<667.725 720> 341 18<667.725 720> 471 22<0 496>
LayerCount: 2
Fore
SplineSet
341 720 m 5
 359 720 l 5
 359 647 330 600 269 600 c 4
 207 600 178 647 178 720 c 5
 196 720 l 5
 197 658 223 621 269 621 c 4
 315 621 340 658 341 720 c 5
EndSplineSet
Refer: 145 1080 N 1 0 0 1 0 0 2
Substitution2: "'locl' Localized Forms in Cyrillic lookup 1 subtable" uni0439.loclBGR
Substitution2: "'aalt' Access All Alternates lookup 0 subtable" uni0439.loclBGR
Colour: ffff
EndChar

StartChar: afii10076
Encoding: 218 1082 147
GlifName: afii10076
Width: 496
GlyphClass: 2
Flags: W
HStem: 0 21G<90 112 408.469 456> 256 22<112 233> 506 20G<90 112 388.371 435>
VStem: 90 22<0 256 278 526>
LayerCount: 2
Back
SplineSet
157 256 m 5
 112 215 l 5
 112 0 l 5
 90 0 l 5
 90 526 l 5
 112 526 l 5
 112 241 l 5
 422 526 l 5
 455 526 l 5
 175 271 l 5
 456 0 l 5
 423 0 l 5
 157 256 l 5
EndSplineSet
Fore
SplineSet
237 256 m 1
 112 256 l 1
 112 0 l 1
 90 0 l 1
 90 526 l 1
 112 526 l 1
 112 278 l 1
 233 278 l 1
 402 526 l 1
 435 526 l 1
 255 271 l 1
 456 0 l 1
 423 0 l 1
 237 256 l 1
EndSplineSet
Substitution2: "'swsh' Swash lookup 13-1" afii10076.swsh
Substitution2: "'locl' Localized Forms in Cyrillic lookup 1 subtable" uni043A.loclBGR
Substitution2: "'aalt' Access All Alternates lookup 0 subtable" uni043A.loclBGR
Colour: ffff
EndChar

StartChar: afii10077
Encoding: 219 1083 148
GlifName: afii10077
Width: 564
GlyphClass: 2
Flags: W
HStem: -5 22<28.5 71.8005> 506 20<170 452>
VStem: 148 22<184.518 506> 452 22<0 506>
LayerCount: 2
Back
SplineSet
12.0654296875 51.3076171875 m 5
 12.0654296875 56.5043117435 15.123046875 59.4609375 19.2001953125 59.4609375 c 0
 28.3720703125 59.4609375 38.564453125 55.384765625 44.6796875 55.384765625 c 0
 103.79296875 55.384765625 142.522460937 129.78515625 142.522460938 378.46875 c 2
 142.522460938 499.752929688 l 2
 142.522460938 515.041015625 152.713867188 522.174804688 174.1171875 522.174804688 c 2
 455.415039062 522.174804688 l 2
 470.702148438 522.174804688 477.836914062 515.041015625 477.836914062 499.752929688 c 2
 477.836914062 21.7509765625 l 2
 477.836914062 6.462890625 470.702148438 -0.6708984375 455.415039062 -0.6708984375 c 2
 412.608398438 -0.6708984375 l 2
 397.3203125 -0.6708984375 390.186523438 6.462890625 390.186523438 21.7509765625 c 2
 390.186523438 455.927734375 l 1
 218.961914062 455.927734375 l 1
 218.961914062 352.989257812 l 2
 218.961914062 107.36328125 166.982421875 -8.8251953125 55.890625 -8.8251953125 c 0
 7.98828125 -8.8251953125 2.892578125 -3.728515625 2.892578125 7.482421875 c 2
 2.892578125 10.5400390625 l 1
 12.0654296875 51.3076171875 l 5
EndSplineSet
Fore
SplineSet
148 330 m 6
 148 526 l 5
 474 526 l 5
 474 0 l 5
 452 0 l 5
 452 506 l 5
 170 506 l 5
 170 330 l 6
 170 109.22842125 118.747943445 -5 46 -5 c 5
 38.44 -5 30.32 -4.05799332789 25 -3 c 5
 30 18 l 5
 33.2316158079 17.3333333333 39.6948474237 17 42.6171875 17 c 5
 108.106805341 17 148 150.115951181 148 330 c 6
EndSplineSet
Substitution2: "'locl' Localized Forms in Cyrillic lookup 1 subtable" uni043B.loclBGR
Substitution2: "'aalt' Access All Alternates lookup 0 subtable" uni043B.loclBGR
Colour: ffff
EndChar

StartChar: afii10078
Encoding: 220 1084 149
GlifName: afii10078
Width: 750
GlyphClass: 2
Flags: W
HStem: 0 21G<90 112 638 660> 506 20G<90 127.22 621.579 660>
VStem: 90 22<0 470.4> 638 22<0 504>
LayerCount: 2
Fore
SplineSet
90 0 m 5
 90 526 l 5
 117 526 l 5
 372 27 l 5
 632 526 l 5
 660 526 l 5
 660 0 l 5
 638 0 l 5
 638 450 l 5
 643 504 l 5
 380 2 l 5
 362 2 l 5
 107 501 l 5
 112 450 l 5
 112 0 l 5
 90 0 l 5
EndSplineSet
Colour: ffff
EndChar

StartChar: afii10079
Encoding: 221 1085 150
GlifName: afii10079
Width: 574
GlyphClass: 2
Flags: W
HStem: 0 21G<90 112 462 484> 278 22<112 462> 506 20G<90 112 462 484>
VStem: 90 22<0 278 300 526> 462 22<0 278 300 526>
LayerCount: 2
Fore
SplineSet
462 526 m 1
 484 526 l 1
 484 0 l 1
 462 0 l 1
 462 278 l 1
 112 278 l 1
 112 0 l 1
 90 0 l 1
 90 526 l 1
 112 526 l 1
 112 300 l 1
 462 300 l 1
 462 526 l 1
EndSplineSet
Colour: ffff
EndChar

StartChar: afii10080
Encoding: 222 1086 151
GlifName: afii10080
Width: 614
GlyphClass: 2
Flags: W
HStem: -14 21<240.213 373.787> 519 21<240.213 373.787>
VStem: 60 24<174 350.556> 530 24<174 350.556>
LayerCount: 2
Fore
SplineSet
307 540 m 0
 455 540 554 429 554 262 c 0
 554 96 455 -14 307 -14 c 0
 159 -14 60 96 60 262 c 0
 60 429 159 540 307 540 c 0
307 7 m 0
 421 7 530 86 530 262 c 0
 530 439 421 519 307 519 c 4
 193 519 84 439 84 262 c 0
 84 86 193 7 307 7 c 0
EndSplineSet
Colour: ffff
EndChar

StartChar: afii10081
Encoding: 223 1087 152
GlifName: afii10081
Width: 564
GlyphClass: 2
Flags: W
HStem: 0 21G<90 112 452 474> 506 20<112 452>
VStem: 90 22<0 506> 452 22<0 506>
LayerCount: 2
Fore
SplineSet
90 526 m 1
 474 526 l 5
 474 0 l 5
 452 0 l 5
 452 506 l 5
 112 506 l 1
 112 0 l 1
 90 0 l 1
 90 526 l 1
EndSplineSet
Substitution2: "'locl' Localized Forms in Cyrillic lookup 1 subtable" uni043F.loclBGR
Substitution2: "'aalt' Access All Alternates lookup 0 subtable" uni043F.loclBGR
Colour: ffff
EndChar

StartChar: afii10082
Encoding: 224 1088 153
GlifName: afii10082
Width: 593
GlyphClass: 2
Flags: W
HStem: -14 21<231.704 356.544> 519 21<234.334 366.864>
VStem: 90 22<-196 120 144.643 379.665 406 534> 509 24<174.586 353.541>
LayerCount: 2
Fore
SplineSet
306 540 m 0
 443 540 533 427 533 267 c 0
 533 81 421 -14 294 -14 c 0
 227 -14 184 6 141 54 c 1
 112 120 l 1
 112 -196 l 1
 90 -196 l 1
 90 534 l 1
 112 534 l 1
 112 406 l 1
 140 466 l 1
 187 522 234 540 306 540 c 0
294 7 m 0
 420 7 509 112 509 263 c 0
 509 401 437 519 304 519 c 0
 200 519 112 461 112 288 c 2
 112 229 l 2
 112 57 212 7 294 7 c 0
EndSplineSet
Colour: ffff
EndChar

StartChar: afii10083
Encoding: 225 1089 154
GlifName: afii10083
Width: 571
GlyphClass: 2
Flags: W
HStem: -14 20<235.415 360.205> 520 20<241.767 366.741>
VStem: 60 24<175.088 353.037> 485 22<123.722 157 363 409.653>
LayerCount: 2
Fore
SplineSet
301 540 m 0
 415 540 496 468 511 363 c 1
 489 363 l 1
 472 458 406 520 299 520 c 0
 200 520 84 438 84 268 c 0
 84 90 189 6 295 6 c 0
 386 6 465 60 485 157 c 1
 507 157 l 1
 486 51 401 -14 293 -14 c 0
 164 -14 60 88 60 263 c 0
 60 433 169 540 301 540 c 0
EndSplineSet
Colour: ffff
EndChar

StartChar: afii10084
Encoding: 226 1090 155
GlifName: afii10084
Width: 540
GlyphClass: 2
Flags: W
HStem: 0 21G<259 281> 504 22<40 259 281 500>
VStem: 259 22<0 504>
LayerCount: 2
Fore
SplineSet
40 504 m 1
 40 526 l 1
 500 526 l 1
 500 504 l 1
 281 504 l 1
 281 0 l 1
 259 0 l 1
 259 504 l 1
 40 504 l 1
EndSplineSet
Substitution2: "'locl' Localized Forms in Cyrillic lookup 1 subtable" uni0442.loclBGR
Substitution2: "'aalt' Access All Alternates lookup 0 subtable" uni0442.loclBGR
Colour: ffff
EndChar

StartChar: afii10085
Encoding: 227 1091 156
GlifName: afii10085
Width: 476
GlyphClass: 2
Flags: W
HStem: -210 20<47 123.196> 506 20G<20 52.5984 423.402 456>
LayerCount: 2
Fore
SplineSet
456 526 m 1
 253 0 l 2
 182 -185 140 -210 82 -210 c 0
 68 -210 58 -209 47 -206 c 1
 47 -186 l 1
 60 -189 73 -190 86 -190 c 0
 126 -190 164 -162 209 -52 c 2
 226 -10 l 1
 20 526 l 1
 45 526 l 1
 238 18 l 1
 431 526 l 1
 456 526 l 1
EndSplineSet
Colour: ffff
EndChar

StartChar: afii10086
Encoding: 228 1092 157
GlifName: afii10086
Width: 614
GlyphClass: 2
Flags: W
HStem: -14 21<233.743 296 318 380.257> 519 21<237.994 296 318 376.006>
VStem: 40 24<175.599 348.685> 296 22<-120 -14 7 519 540 646> 550 24<175.599 348.685>
CounterMasks: 1 38
LayerCount: 2
Fore
SplineSet
318 -120 m 1
 296 -120 l 1
 296 -14 l 1
 154 -10 40 99 40 262 c 0
 40 426 154 535 296 540 c 1
 296 646 l 1
 318 646 l 1
 318 540 l 1
 460 535 574 426 574 262 c 0
 574 99 460 -10 318 -14 c 1
 318 -120 l 1
550 262 m 0
 550 434 428 515 318 519 c 1
 318 7 l 1
 428 10 550 90 550 262 c 0
64 262 m 0
 64 90 186 10 296 7 c 1
 296 519 l 1
 186 515 64 434 64 262 c 0
EndSplineSet
Colour: ffff
EndChar

StartChar: afii10087
Encoding: 229 1093 158
GlifName: afii10087
Width: 417
GlyphClass: 2
Flags: W
HStem: 0 21G<3 44.0562 362.265 404> 506 20G<11 50.6585 363.016 404>
LayerCount: 2
Fore
SplineSet
218 264 m 1
 404 0 l 1
 376 0 l 1
 205 249 l 1
 30 0 l 1
 3 0 l 1
 190 264 l 1
 11 526 l 1
 37 526 l 1
 205 280 l 1
 377 526 l 1
 404 526 l 1
 218 264 l 1
EndSplineSet
Validated: 1
Colour: ffff
EndChar

StartChar: afii10088
Encoding: 230 1094 159
GlifName: afii10088
Width: 540
GlyphClass: 2
Flags: W
HStem: 0 22<92 426 448 478> 506 20G<70 92 426 448>
VStem: 70 22<22 526> 426 22<22 526> 478 22<-160 0>
LayerCount: 2
Fore
SplineSet
448 526 m 1
 448 22 l 1
 500 22 l 1
 500 -160 l 1
 478 -160 l 5
 478 0 l 1
 70 0 l 1
 70 526 l 1
 92 526 l 1
 92 22 l 1
 426 22 l 1
 426 526 l 1
 448 526 l 1
EndSplineSet
Substitution2: "'locl' Localized Forms in Cyrillic lookup 1 subtable" uni0446.loclBGR
Substitution2: "'aalt' Access All Alternates lookup 0 subtable" uni0446.loclBGR
Colour: ffff
EndChar

StartChar: afii10089
Encoding: 231 1095 160
GlifName: afii10089
Width: 543
GlyphClass: 2
Flags: W
HStem: 0 21G<431 453> 156 24<180.649 351.238> 506 20G<70 92 431 453>
VStem: 70 22<268.866 526> 431 22<0 200 218.917 526>
LayerCount: 2
Fore
SplineSet
453 526 m 1
 453 0 l 1
 431 0 l 1
 431 200 l 1
 398.030513593 180.193253412 341.291248249 156 250 156 c 0
 144.58563536 156 70 215 70 318 c 1
 70 526 l 1
 92 526 l 1
 92 326 l 1
 92 237.812080537 150.628930818 180 250 180 c 0
 343.419354839 180 381 196.154589372 431 224 c 5
 431 526 l 1
 453 526 l 1
EndSplineSet
Colour: ffff
EndChar

StartChar: afii10090
Encoding: 232 1096 161
GlifName: afii10090
Width: 812
GlyphClass: 2
Flags: W
HStem: 0 22<112 395 417 700> 506 20G<90 112 395 417 700 722>
VStem: 90 22<22 526> 395 22<22 526> 700 22<22 526>
CounterMasks: 1 38
LayerCount: 2
Fore
SplineSet
722 0 m 1
 90 0 l 1
 90 526 l 1
 112 526 l 1
 112 22 l 5
 395 22 l 5
 395 526 l 1
 417 526 l 1
 417 22 l 5
 700 22 l 5
 700 526 l 1
 722 526 l 1
 722 0 l 1
EndSplineSet
Substitution2: "'locl' Localized Forms in Cyrillic lookup 1 subtable" uni0448.loclBGR
Substitution2: "'aalt' Access All Alternates lookup 0 subtable" uni0448.loclBGR
Colour: ffff
EndChar

StartChar: afii10091
Encoding: 233 1097 162
GlifName: afii10091
Width: 814
GlyphClass: 2
Flags: W
HStem: 0 22<112 395 417 700 722 752> 506 20G<90 112 395 417 700 722>
VStem: 90 22<22 526> 395 22<22 526> 700 22<22 526> 752 22<-160 0>
LayerCount: 2
Back
SplineSet
722 0 m 5
 90 0 l 5
 90 526 l 5
 112 526 l 5
 112 20 l 5
 395 20 l 5
 395 526 l 5
 417 526 l 5
 417 20 l 5
 700 20 l 5
 700 526 l 5
 722 526 l 5
 722 0 l 5
EndSplineSet
Fore
SplineSet
752 0 m 1
 90 0 l 1
 90 526 l 1
 112 526 l 1
 112 22 l 1
 395 22 l 1
 395 526 l 1
 417 526 l 1
 417 22 l 1
 700 22 l 1
 700 526 l 1
 722 526 l 1
 722 22 l 1
 774 22 l 1
 774 -160 l 1
 752 -160 l 1
 752 0 l 1
EndSplineSet
Substitution2: "'locl' Localized Forms in Cyrillic lookup 1 subtable" uni0449.loclBGR
Substitution2: "'aalt' Access All Alternates lookup 0 subtable" uni0449.loclBGR
Colour: ffff
EndChar

StartChar: afii10092
Encoding: 234 1098 163
GlifName: afii10092
Width: 559
GlyphClass: 2
Flags: W
HStem: 0 22<148 396.686> 278 22<148 396.686> 504 22<20 126>
VStem: 126 22<22 278 300 504> 475 24<90.3112 209.689>
LayerCount: 2
Back
SplineSet
126 526 m 1
 148 526 l 1
 148 300 l 1
 306 300 l 2
 419 300 499 270 499 150 c 0
 499 30 419 0 306 0 c 2
 126 0 l 1
 126 526 l 1
148 22 m 1
 326 22 l 2
 420 22 475 60 475 150 c 4
 475 240 420 278 326 278 c 2
 148 278 l 1
 148 22 l 1
EndSplineSet
Fore
SplineSet
20 526 m 1
 148 526 l 1
 148 300 l 1
 306 300 l 2
 419 300 499 270 499 150 c 0
 499 30 419 0 306 0 c 2
 126 0 l 1
 126 504 l 1
 20 504 l 1
 20 526 l 1
148 22 m 5
 326 22 l 2
 420 22 475 60 475 150 c 0
 475 240 420 278 326 278 c 2
 148 278 l 1
 148 22 l 5
EndSplineSet
Substitution2: "'locl' Localized Forms in Cyrillic lookup 1 subtable" uni044A.loclBGR
Substitution2: "'aalt' Access All Alternates lookup 0 subtable" uni044A.loclBGR
Colour: ffff
EndChar

StartChar: afii10093
Encoding: 235 1099 164
GlifName: afii10093
Width: 663
GlyphClass: 2
Flags: W
HStem: 0 21G<551 573> 0 22<112 361.015> 278 22<112 363.262> 506 20G<90 112 551 573>
VStem: 90 22<22 278 300 526> 439 24<90.3112 211.731> 551 22<0 526>
LayerCount: 2
Fore
SplineSet
573 0 m 5xbe
 551 0 l 5
 551 526 l 5
 573 526 l 5
 573 0 l 5xbe
EndSplineSet
Refer: 165 1100 N 1 0 0 1 0 0 2
Substitution2: "'locl' Localized Forms in Cyrillic lookup 1 subtable" uni044B.loclBGR
Substitution2: "'aalt' Access All Alternates lookup 0 subtable" uni044B.loclBGR
Colour: ffff
EndChar

StartChar: afii10094
Encoding: 236 1100 165
GlifName: afii10094
Width: 523
GlyphClass: 2
Flags: W
HStem: 0 22<112 361.015> 278 22<112 363.262> 506 20G<90 112>
VStem: 90 22<22 278 300 526> 439 24<90.3112 211.731>
LayerCount: 2
Fore
SplineSet
90 526 m 5
 112 526 l 5
 112 300 l 5
 270 300 l 6
 383.19921875 300 463 270 463 150 c 4
 463 30 383.748046875 -0 270 0 c 6
 90 0 l 5
 90 526 l 5
112 22 m 5
 290 22 l 6
 383.66796875 22 439 60 439 150 c 4
 439 240 384.622070312 278 290 278 c 6
 112 278 l 5
 112 22 l 5
EndSplineSet
Substitution2: "'locl' Localized Forms in Cyrillic lookup 1 subtable" uni044C.loclBGR
Substitution2: "'aalt' Access All Alternates lookup 0 subtable" uni044C.loclBGR
Colour: ffff
EndChar

StartChar: afii10095
Encoding: 237 1101 166
GlifName: afii10095
Width: 571
GlyphClass: 2
Flags: W
HStem: -14 20<215.098 346.927> 260 21<171 487> 520 20<208.644 342.682>
VStem: 64 22<123.722 157 363 408.913> 487 24<165.874 260 281 358.427>
LayerCount: 2
Fore
SplineSet
487 260 m 1
 171 260 l 1
 171 281 l 1
 487 281 l 1
 481 442 394 520 277 520 c 0
 170 520 99 458 82 363 c 1
 60 363 l 1
 75 468 161 540 275 540 c 0
 427 540 511 433 511 263 c 0
 511 88 432 -14 283 -14 c 0
 175 -14 85 51 64 157 c 1
 86 157 l 1
 106 60 190 6 281 6 c 0
 406 6 484 87 487 260 c 1
EndSplineSet
Colour: ffff
EndChar

StartChar: afii10096
Encoding: 238 1102 167
GlifName: afii10096
Width: 713
GlyphClass: 2
Flags: W
HStem: -14 21<339.213 472.787> 0 21G<70 92> 280 20<92 159> 506 20G<70 92> 519 21<338.651 472.787>
VStem: 70 22<0 280 300 526> 159 24<174.887 280 300 351.444> 629 24<174 350.556>
LayerCount: 2
Fore
SplineSet
406 540 m 0x2f
 554 540 653 429 653 262 c 0
 653 96 554 -14 406 -14 c 0xaf
 258 -14 159 96 159 262 c 2
 159 280 l 1
 92 280 l 1
 92 0 l 1
 70 0 l 1
 70 526 l 1
 92 526 l 1x77
 92 300 l 1
 160 300 l 1
 174 445 269 540 406 540 c 0x2f
406 7 m 0
 520 7 629 86 629 262 c 0
 629 439 520 519 406 519 c 0
 292 519 183 439 183 262 c 0
 183 86 292 7 406 7 c 0
EndSplineSet
Substitution2: "'locl' Localized Forms in Cyrillic lookup 1 subtable" uni044E.loclBGR
Substitution2: "'aalt' Access All Alternates lookup 0 subtable" uni044E.loclBGR
Colour: ffff
EndChar

StartChar: afii10097
Encoding: 239 1103 168
GlifName: afii10097
Width: 447
GlyphClass: 2
Flags: HMW
HStem: -2 22G<20 52.9611 355 377> 257 22<171 355> 504 22<112.506 355>
VStem: 28 22<344.601 446.671> 355 22<0 257 279 504>
LayerCount: 2
Back
SplineSet
28 404 m 4xf8
 28 343.458984375 62 306 111 292 c 1
 53.6787109375 277.104492188 4 249.30078125 4 150 c 0xf4
 4 50 65.240234375 0 178 0 c 2
 377 0 l 1
 377 526 l 1
 178 526 l 2
 60.267578125 526 28 464 28 404 c 4xf8
355 22 m 1
 178 22 l 2
 73.755859375 22 28 60 28 150 c 0
 28 240 82 278 177 278 c 2
 355 278 l 1
 355 22 l 1
355 300 m 1
 197 300 l 2
 82 300 50 354 50 404 c 0xf8
 50 452.077148438 75.5703125 504 177 504 c 2
 355 504 l 1
 355 300 l 1
EndSplineSet
Fore
SplineSet
28 397 m 0
 28 492.622070312 88.9853515625 526 184 526 c 2
 377 526 l 1
 377 -2 l 1
 355 -2 l 1
 355 257 l 1
 171 257 l 1
 43 -2 l 1
 20 -2 l 1
 150 261 l 1
 96.0244140625 267.181640625 28 305.302734375 28 397 c 0
355 504 m 1
 184 504 l 2
 110.598632812 504 50 482.951171875 50 397 c 0
 50 314.193359375 120.01171875 279 166 279 c 2
 355 279 l 1
 355 504 l 1
EndSplineSet
Colour: ffff
EndChar

StartChar: afii61352
Encoding: 240 8470 169
GlifName: afii61352
Width: 1113
GlyphClass: 2
Flags: W
HStem: -2 21G<96 118 519.582 566> 275 14<789.618 876.382> 673 18<784.535 877.328>
VStem: 96 22<-2 668> 544 22<18 688> 666 17<412.864 550.366> 983 17<412.164 551.875>
LayerCount: 2
Fore
SplineSet
833 691 m 1
 833 689 l 1
 933 689 1000 606 1000 481 c 0
 1000 357 933 275 833 275 c 0
 733 275 666 358 666 483 c 0
 666 608 733 691 833 691 c 1
833 289 m 0
 910 289 983 348 983 480 c 0
 983 613 910 673 833 673 c 0
 756 673 683 613 683 480 c 0
 683 348 756 289 833 289 c 0
566 -2 m 1
 532 -2 l 1
 116 668 l 1
 118 575 118 466 118 373 c 2
 118 -2 l 1
 96 -2 l 1
 96 688 l 1
 129 688 l 1
 546 18 l 1
 544 111 544 220 544 313 c 2
 544 688 l 1
 566 688 l 1
 566 -2 l 1
EndSplineSet
Validated: 1
Position2: "'cpsp' Capital Spacing in Cyrillic lookup 3 subtable" dx=5 dy=0 dh=10 dv=0
Colour: ffff
EndChar

StartChar: afii10071
Encoding: 241 1105 170
GlifName: afii10071
Width: 521
GlyphClass: 2
Flags: W
HStem: -14 21<194.792 323.537> 258 21<53 463> 519 21<204.653 324.733> 613 40<204.007 243.993 284.007 323.993>
VStem: 30 23<173.947 258 279 349.809> 204 40<613.007 652.993> 284 40<613.007 652.993> 455 22<134.857 161> 463 22<279 361.72>
LayerCount: 2
Fore
SplineSet
224 653 m 4xfe
 235 653 244 644 244 633 c 4
 244 622 235 613 224 613 c 4
 213 613 204 622 204 633 c 4
 204 644 213 653 224 653 c 4xfe
304 653 m 4
 315 653 324 644 324 633 c 4
 324 622 315 613 304 613 c 4
 293 613 284 622 284 633 c 4
 284 644 293 653 304 653 c 4
485 277 m 0xfe80
 485 273 485 269 484 258 c 1
 53 258 l 1
 57 76 161 7 258 7 c 0
 341 7 424 54 455 161 c 1
 477 161 l 1xff
 445 45 356 -14 256 -14 c 0
 134 -14 30 81 30 265 c 0
 30 431 134 540 264 540 c 0
 415 540 485 408 485 277 c 0xfe80
262 519 m 0
 169 519 57 444 53 279 c 1
 463 279 l 1xfe80
 459 461 352 519 262 519 c 0
EndSplineSet
Colour: ffff
EndChar

StartChar: afii10101
Encoding: 244 1108 172
GlifName: afii10101
Width: 510
GlyphClass: 2
Flags: W
HStem: -14 20<205.729 330.205> 260 21<54 370> 520 20<210.093 336.741>
VStem: 30 24<172.453 260 281 350.409> 455 22<123.722 157 363 409.653>
LayerCount: 2
Fore
SplineSet
370 260 m 1
 54 260 l 1
 57 87 160 6 265 6 c 0
 356 6 435 60 455 157 c 1
 477 157 l 1
 456 51 371 -14 263 -14 c 0
 134 -14 30 88 30 263 c 0
 30 433 139 540 271 540 c 0
 385 540 466 468 481 363 c 1
 459 363 l 1
 442 458 376 520 269 520 c 0
 172 520 60 442 54 281 c 1
 370 281 l 1
 370 260 l 1
EndSplineSet
Validated: 1
Colour: ffff
EndChar

StartChar: afii10102
Encoding: 245 1109 173
GlifName: afii10102
Width: 435
GlyphClass: 2
Flags: W
HStem: -14 21<154.467 289.922> 519 21<155.813 274.867>
VStem: 26 22<114.242 156> 51 23<350.814 447.639> 375 23<76.1368 175.249 383 406.977>
LayerCount: 2
Fore
SplineSet
215 540 m 0
 324 540 379 470 393 383 c 1
 371 383 l 1
 349 475 300 519 214 519 c 0
 141 519 74 476 74 399 c 0
 74 325 133 296 217 277 c 0
 338 250 398 212 398 124 c 0
 398 40 324 -14 221 -14 c 0
 123 -14 39 36 26 156 c 1
 48 156 l 1
 65 45 135 7 223 7 c 0
 306 7 375 47 375 123 c 0
 375 196 333 227 207 256 c 0
 124 275 51 309 51 398 c 0
 51 479 119 540 215 540 c 0
EndSplineSet
Validated: 1
Colour: ffff
EndChar

StartChar: afii10103
Encoding: 246 1110 174
GlifName: afii10103
Width: 164
GlyphClass: 2
Flags: W
HStem: 0 21G<71 93> 506 20G<71 93> 613 40<62.0066 101.993>
VStem: 62 40<613.007 652.993> 71 22<0 526>
LayerCount: 2
Fore
SplineSet
82 653 m 0xf0
 93 653 102 644 102 633 c 0
 102 622 93 613 82 613 c 0
 71 613 62 622 62 633 c 0
 62 644 71 653 82 653 c 0xf0
93 0 m 1xe8
 71 0 l 1
 71 526 l 1
 93 526 l 1
 93 0 l 1xe8
EndSplineSet
Validated: 1
Colour: ffff
EndChar

StartChar: afii10104
Encoding: 247 1111 175
GlifName: afii10104
Width: 164
GlyphClass: 2
Flags: W
HStem: 0 21G<71 93> 506 20G<71 93> 613 40<22.0066 61.9934 102.007 141.993>
VStem: 22 40<613.007 652.993> 71 22<0 526> 102 40<613.007 652.993>
CounterMasks: 1 1c
LayerCount: 2
Fore
SplineSet
42 653 m 4
 53 653 62 644 62 633 c 4
 62 622 53 613 42 613 c 4
 31 613 22 622 22 633 c 4
 22 644 31 653 42 653 c 4
122 653 m 4
 133 653 142 644 142 633 c 4
 142 622 133 613 122 613 c 4
 111 613 102 622 102 633 c 4
 102 644 111 653 122 653 c 4
93 0 m 1
 71 0 l 1
 71 526 l 1
 93 526 l 1
 93 0 l 1
EndSplineSet
Colour: ffff
EndChar

StartChar: afii10105
Encoding: 248 1112 176
GlifName: afii10105
Width: 156
GlyphClass: 2
Flags: W
HStem: -210 20<-32 38.1896> 506 20G<64 86> 613 40<55.0066 94.9934>
VStem: 55 40<613.007 652.993> 64 22<-163.172 526>
LayerCount: 2
Fore
SplineSet
75 653 m 0xf0
 86 653 95 644 95 633 c 0
 95 622 86 613 75 613 c 4
 64 613 55 622 55 633 c 0
 55 644 64 653 75 653 c 0xf0
86 526 m 1xe8
 86 -73 l 2
 86 -93 86 -107 85 -125 c 0
 82 -184 45 -210 3 -210 c 0
 -8 -210 -19 -209 -32 -206 c 1
 -32 -187 l 1
 -21 -189 -10 -190 0 -190 c 0
 37 -190 61 -173 63 -123 c 0
 64 -109 64 -99 64 -84 c 2
 64 526 l 1
 86 526 l 1xe8
EndSplineSet
Validated: 1
Colour: ffff
EndChar

StartChar: afii10109
Encoding: 252 1116 177
GlifName: afii10109
Width: 458
GlyphClass: 2
Flags: W
HStem: 0 21G<70 92 382.219 436> 506 20G<380.246 435> 715 20G<70 92>
VStem: 70 22<0 215 241 735>
LayerCount: 2
Fore
SplineSet
91 795 m 1
 72 795 l 1
 132 905 l 1
 160 905 l 1
 91 795 l 1
137 256 m 1
 92 215 l 1
 92 0 l 1
 70 0 l 1
 70 735 l 1
 92 735 l 1
 92 241 l 1
 402 526 l 1
 435 526 l 1
 155 271 l 1
 436 0 l 1
 403 0 l 1
 137 256 l 1
EndSplineSet
Validated: 1
Colour: ffff
EndChar

StartChar: section
Encoding: 253 167 178
GlifName: section
Width: 530
GlyphClass: 2
Flags: W
HStem: -174 21<204.148 336.51> -29 20G<74 108.5> 683 21<201.171 323.492>
VStem: 49 24<232.393 335.914> 74 22<-39.6422 -9> 99 24<514.587 616.973> 424 24<-84.3463 17.9406 549 573.101> 475 24<202.77 307.948>
LayerCount: 2
Fore
SplineSet
499 259 m 0
 499 166 428 117 344 104 c 1
 418 73 448 29 448 -37 c 0
 448 -121 372 -174 269 -174 c 0
 167 -174 99 -124 74 -9 c 1
 96 -9 l 1
 121 -108 180 -153 271 -153 c 0
 354 -153 424 -111 424 -39 c 0
 424 36 386 79 231 112 c 0
 148 130 49 182 49 278 c 0
 49 370 116 417 194 432 c 1
 141 455 99 495 99 562 c 0
 99 649 166 704 262 704 c 0
 371 704 425 637 442 549 c 1
 420 549 l 1
 397 639 347 683 261 683 c 0
 188 683 123 643 123 565 c 0
 123 478 207 443 291 428 c 0
 412 406 499 355 499 259 c 0
303 119 m 1
 385 120 475 160 475 257 c 0
 475 337 406 381 280 406 c 0
 263 409 245 414 227 419 c 1
 156 412 73 379 73 281 c 0
 73 200 157 151 241 134 c 0
 264 130 284 125 303 119 c 1
EndSplineSet
Validated: 1
Colour: ffff
EndChar

StartChar: afii10110
Encoding: 254 1118 179
GlifName: afii10110
Width: 457
GlyphClass: 2
Flags: W
HStem: -210 20<39 115.196> 506 20G<12 44.5984 415.402 448> 600 21<194.447 267.175>
VStem: 140 18<667.725 720> 303 18<667.725 720>
LayerCount: 2
Fore
SplineSet
303 720 m 1
 321 720 l 1
 321 647 292 600 231 600 c 0
 169 600 140 647 140 720 c 1
 158 720 l 1
 159 658 185 621 231 621 c 0
 277 621 302 658 303 720 c 1
448 526 m 1
 245 0 l 2
 174 -185 132 -210 74 -210 c 0
 60 -210 50 -209 39 -206 c 1
 39 -186 l 1
 52 -189 65 -190 78 -190 c 0
 118 -190 156 -162 201 -52 c 2
 218 -10 l 1
 12 526 l 1
 37 526 l 1
 230 18 l 1
 423 526 l 1
 448 526 l 1
EndSplineSet
Validated: 1
Colour: ffff
EndChar

StartChar: uni0414.loclBGR
Encoding: 257 -1 180
GlifName: uni0414.loclB_G_R_
Width: 672
GlyphClass: 2
Flags: W
HStem: 0 21<52 62 86 586 610 620> 670 20G<313.257 358.743>
VStem: 30 22<-160 0> 620 22<-160 0>
LayerCount: 2
Fore
SplineSet
321 690 m 1
 351 690 l 1
 610 21 l 1
 642 21 l 1
 642 -160 l 1
 620 -160 l 1
 620 0 l 1
 52 0 l 1
 52 -160 l 1
 30 -160 l 1
 30 21 l 1
 62 21 l 1
 321 690 l 1
336 671 m 1
 86 21 l 1
 586 21 l 1
 336 671 l 1
EndSplineSet
Position2: "'cpsp' Capital Spacing in Cyrillic lookup 3 subtable" dx=5 dy=0 dh=10 dv=0
Colour: ffff
EndChar

StartChar: uni041B.loclBGR
Encoding: 258 -1 181
GlifName: uni041B_.loclB_G_R_
Width: 644
GlyphClass: 2
Flags: W
HStem: 0 21G<40 71.69 572.31 604> 670 20G<299.261 344.739>
LayerCount: 2
Fore
SplineSet
307 690 m 1
 337 690 l 1
 604 0 l 1
 580 0 l 1
 322 671 l 1
 64 0 l 1
 40 0 l 1
 307 690 l 1
EndSplineSet
Position2: "'cpsp' Capital Spacing in Cyrillic lookup 3 subtable" dx=5 dy=0 dh=10 dv=0
Colour: ffff
EndChar

StartChar: uni0432.loclBGR
Encoding: 259 -1 182
GlifName: uni0432.loclB_G_R_
Width: 544
GlyphClass: 2
Flags: W
HStem: -14 21<220.924 352.817> 479 18<213.816 346.998> 752 18<220.5 352.15>
VStem: 71 22<152.523 399.366 410 624.807> 448 24<560.401 676.244> 490 24<153.712 335.343>
LayerCount: 2
Fore
SplineSet
472 620 m 0
 472 563 444 516 396 477 c 1
 470 440 514 373 514 247 c 0
 514 61 417 -14 280 -14 c 0
 187 -14 71 37 71 247 c 2
 71 545 l 2
 71 704 170 770 279 770 c 0
 414 770 472 706 472 620 c 0
280 7 m 0
 411 7 490 92 490 243 c 0
 490 401 410 479 277 479 c 0
 202 479 136 445 93 386 c 1
 93 243 l 2
 93 58 198 7 280 7 c 0
277 497 m 0
 307 497 342 495 378 484 c 1
 422 522 448 567 448 617 c 0
 448 700 399 752 280 752 c 0
 211 752 93 715 93 565 c 2
 93 410 l 1
 125 455 195 497 277 497 c 0
EndSplineSet
Validated: 1
Colour: ffff
EndChar

StartChar: uni0433.loclBGR
Encoding: 260 -1 183
GlifName: uni0433.loclB_G_R_
Width: 435
GlyphClass: 2
Flags: W
HStem: -14 21<134.078 269.533> 519 21<149.133 268.187>
VStem: 26 23<76.1368 175.249 383 406.977> 350 23<350.814 447.639> 376 22<114.242 156>
LayerCount: 2
Fore
SplineSet
209 540 m 0
 305 540 373 479 373 398 c 0
 373 309 300 275 217 256 c 0
 91 227 49 196 49 123 c 0
 49 47 118 7 201 7 c 0
 289 7 359 45 376 156 c 1
 398 156 l 1
 385 36 301 -14 203 -14 c 0
 100 -14 26 40 26 124 c 0
 26 212 86 250 207 277 c 0
 291 296 350 325 350 399 c 0
 350 476 283 519 210 519 c 0
 124 519 75 475 53 383 c 1
 31 383 l 1
 45 470 100 540 209 540 c 0
EndSplineSet
Validated: 1
Colour: ffff
EndChar

StartChar: uni0434.loclBGR
Encoding: 261 -1 184
GlifName: uni0434.loclB_G_R_
Width: 544
GlyphClass: 2
Flags: W
HStem: -220 21<184.823 325.792> -14 21<196.136 328.666> 510 20G<451 473> 519 21<206.456 331.296>
VStem: 30 24<172.459 351.414> 53 22<-96.8848 -47> 451 22<-70.9652 120 146.335 381.357 406 530>
LayerCount: 2
Fore
SplineSet
473 530 m 1xea
 473 140 l 2
 473 57 473 16 472 -18 c 0
 468 -137 390 -220 256 -220 c 0
 159 -220 71 -181 55 -62 c 2
 53 -47 l 1
 75 -47 l 1xe6
 77 -62 l 2
 90 -163 171 -199 258 -199 c 0
 382 -199 447 -121 450 -11 c 0
 451 24 451 51 451 100 c 2
 451 120 l 1
 423 60 l 1
 376 4 329 -14 257 -14 c 0
 120 -14 30 99 30 259 c 0
 30 445 142 540 269 540 c 0xda
 336 540 379 520 422 472 c 1
 451 406 l 1
 451 530 l 1
 473 530 l 1xea
259 7 m 0
 363 7 451 65 451 238 c 2
 451 297 l 2
 451 469 351 519 269 519 c 0
 143 519 54 414 54 263 c 0xda
 54 125 126 7 259 7 c 0
EndSplineSet
Validated: 1
Colour: ffff
EndChar

StartChar: uni0436.loclBGR
Encoding: 262 -1 185
GlifName: uni0436.loclB_G_R_
Width: 790
GlyphClass: 2
Flags: W
HStem: 0 21G<40 87.5312 384 406 702.469 750> 256 22<263 384 406 527> 506 20G<61 107.629 682.371 729> 715 20G<384 406>
VStem: 384 22<0 256 278 735>
LayerCount: 2
Back
SplineSet
451 256 m 5
 406 215 l 5
 406 0 l 5
 384 0 l 5
 384 215 l 5
 339 256 l 5
 73 0 l 5
 40 0 l 5
 321 271 l 5
 41 526 l 5
 74 526 l 5
 384 241 l 5
 384 735 l 5
 406 735 l 5
 406 241 l 5
 716 526 l 5
 749 526 l 5
 469 271 l 5
 750 0 l 5
 717 0 l 5
 451 256 l 5
EndSplineSet
Fore
SplineSet
259 256 m 5
 73 0 l 5
 40 0 l 5
 241 271 l 5
 61 526 l 5
 94 526 l 5
 263 278 l 5
 384 278 l 5
 384 735 l 5
 406 735 l 5
 406 278 l 5
 527 278 l 5
 696 526 l 5
 729 526 l 5
 549 271 l 5
 750 0 l 5
 717 0 l 5
 531 256 l 5
 406 256 l 5
 406 0 l 5
 384 0 l 5
 384 256 l 5
 259 256 l 5
EndSplineSet
Colour: ffff
EndChar

StartChar: uni0437.loclBGR
Encoding: 263 -1 186
GlifName: uni0437.loclB_G_R_
Width: 507
GlyphClass: 2
Flags: W
HStem: -220 21<175.79 326.054> 163 21<186 324.758> 519 21<179.285 313.2>
VStem: 35 22<-86.889 -50 383 399.1> 419 23<285.768 414.554> 444 23<-84.4411 52.7469>
LayerCount: 2
Fore
SplineSet
442 348 m 0
 442 286 408 202 327 176 c 1
 327 172 l 1
 389 158 467 93 467 -9 c 0
 467 -164 375 -220 255 -220 c 0
 142 -220 50 -170 35 -50 c 1
 57 -50 l 1
 77 -161 153 -199 257 -199 c 0
 356 -199 444 -146 444 -10 c 0
 444 105 345 163 286 163 c 2
 186 163 l 1
 186 184 l 1
 281 184 l 2
 348 184 419 251 419 349 c 0
 419 458 343 519 254 519 c 0
 152 519 88 475 62 383 c 1
 40 383 l 1
 56 470 126 540 253 540 c 0
 367 540 442 458 442 348 c 0
EndSplineSet
Validated: 1
Colour: ffff
EndChar

StartChar: uni0438.loclBGR
Encoding: 264 -1 187
GlifName: uni0438.loclB_G_R_
Width: 573
GlyphClass: 2
Flags: W
HStem: -14 21<212.26 336.658> 0 21G<461 483> 506 20G<90 112 461 483>
VStem: 90 22<120.26 526> 461 22<0 120 137.673 526>
LayerCount: 2
Fore
SplineSet
483 526 m 1xb8
 483 0 l 1
 461 0 l 1x78
 461 120 l 1
 440 68 l 1
 401 13 340 -14 275 -14 c 0
 169 -14 105 45 94 148 c 0
 91 175 90 191 90 234 c 2
 90 526 l 1
 112 526 l 1
 112 243 l 2
 112 206 113 183 116 156 c 0
 126 67 175 7 275 7 c 0
 371 7 461 74 461 214 c 2
 461 526 l 1
 483 526 l 1xb8
EndSplineSet
Colour: ffff
EndChar

StartChar: uni0439.loclBGR
Encoding: 265 -1 188
GlifName: uni0439.loclB_G_R_
Width: 573
GlyphClass: 2
Flags: W
HStem: -14 21<212.26 336.658> 0 21G<461 483> 506 20G<90 112 461 483> 600 21<250.447 323.175>
VStem: 90 22<120.26 526> 196 18<667.725 720> 359 18<667.725 720> 461 22<0 120 137.673 526>
LayerCount: 2
Fore
SplineSet
359 720 m 1x3f
 377 720 l 1
 377 647 348 600 287 600 c 0
 225 600 196 647 196 720 c 1
 214 720 l 1
 215 658 241 621 287 621 c 0
 333 621 358 658 359 720 c 1x3f
483 526 m 1
 483 0 l 1
 461 0 l 1x7f
 461 120 l 1
 440 68 l 1
 401 13 340 -14 275 -14 c 0
 169 -14 105 45 94 148 c 0
 91 175 90 191 90 234 c 2
 90 526 l 1
 112 526 l 1
 112 243 l 2
 112 206 113 183 116 156 c 0
 126 67 175 7 275 7 c 0xbf
 371 7 461 74 461 214 c 2
 461 526 l 1
 483 526 l 1
EndSplineSet
Colour: ffff
EndChar

StartChar: uni043A.loclBGR
Encoding: 266 -1 189
GlifName: uni043A_.loclB_G_R_
Width: 496
GlyphClass: 2
Flags: W
HStem: 0 21G<90 112 408.469 456> 256 22<112 233> 506 20G<388.371 435> 715 20G<90 112>
VStem: 90 22<0 256 278 735>
LayerCount: 2
Back
SplineSet
157 256 m 1
 112 215 l 1
 112 0 l 1
 90 0 l 1
 90 735 l 1
 112 735 l 1
 112 241 l 1
 422 526 l 1
 455 526 l 1
 175 271 l 1
 456 0 l 1
 423 0 l 1
 157 256 l 1
EndSplineSet
Fore
SplineSet
237 256 m 5
 112 256 l 5
 112 0 l 5
 90 0 l 5
 90 735 l 5
 112 735 l 5
 112 278 l 5
 233 278 l 5
 402 526 l 5
 435 526 l 5
 255 271 l 5
 456 0 l 5
 423 0 l 5
 237 256 l 5
EndSplineSet
Colour: ffff
EndChar

StartChar: uni043B.loclBGR
Encoding: 267 -1 190
GlifName: uni043B_.loclB_G_R_
Width: 468
GlyphClass: 2
Flags: W
HStem: 0 21G<13 45.8107 427.15 460> 506 20G<213.091 259.909>
LayerCount: 2
Fore
SplineSet
13 0 m 1
 221 526 l 1
 252 526 l 1
 460 0 l 1
 435 0 l 1
 236 507 l 1
 38 0 l 1
 13 0 l 1
EndSplineSet
Validated: 1
Colour: ffff
EndChar

StartChar: uni043F.loclBGR
Encoding: 268 -1 191
GlifName: uni043F_.loclB_G_R_
Width: 573
GlyphClass: 2
Flags: W
HStem: 0 21G<90 112 461 483> 506 20G<90 112> 519 21<236.342 360.74>
VStem: 90 22<0 388.327 406 526> 461 22<0 405.74>
LayerCount: 2
Fore
SplineSet
479 378 m 0xb8
 482 351 483 335 483 292 c 2
 483 0 l 1
 461 0 l 1
 461 283 l 2
 461 320 460 343 457 370 c 0
 447 459 398 519 298 519 c 0xb8
 202 519 112 452 112 312 c 2
 112 0 l 1
 90 0 l 1
 90 526 l 1
 112 526 l 1xd8
 112 406 l 1
 133 458 l 1
 172 513 233 540 298 540 c 0
 404 540 468 481 479 378 c 0xb8
EndSplineSet
Colour: ffff
EndChar

StartChar: uni0442.loclBGR
Encoding: 269 -1 192
GlifName: uni0442.loclB_G_R_
Width: 852
GlyphClass: 2
Flags: W
HStem: 0 21G<90 112 415 437 740 762> 506 20G<90 112> 520 20<219.927 326.884 544.927 652.216>
VStem: 90 22<0 388.813 414 526> 415 22<0 388.813> 740 22<0 405.794>
CounterMasks: 1 1c
LayerCount: 2
Fore
SplineSet
758 378 m 0xbc
 761 351 762 335 762 292 c 2
 762 0 l 1
 740 0 l 1
 740 283 l 2
 740 320 739 343 736 370 c 0
 726 459 685 520 599 520 c 0
 511 520 437 452 437 302 c 2
 437 0 l 1
 415 0 l 1
 415 283 l 2
 415 320 414 343 411 370 c 0
 401 459 360 520 274 520 c 0xbc
 186 520 112 452 112 302 c 2
 112 0 l 1
 90 0 l 1
 90 526 l 1
 112 526 l 1xdc
 112 414 l 1
 136 471 l 1
 172 518 220 540 275 540 c 0
 361 540 413 490 429 403 c 1
 461 471 l 1
 497 518 545 540 600 540 c 0
 694 540 747 481 758 378 c 0xbc
EndSplineSet
Colour: ffff
EndChar

StartChar: uni0446.loclBGR
Encoding: 270 -1 193
GlifName: uni0446.loclB_G_R_
Width: 526
GlyphClass: 2
Flags: W
HStem: -14 21<184.26 308.658> 506 20G<62 84 433 455>
VStem: 62 22<120.26 526> 433 22<50.7812 120 137.673 526> 485 22<-160 6.54253>
LayerCount: 2
Fore
SplineSet
455 526 m 1
 455 161 l 2
 455 49 462 35 507 21 c 1
 507 -160 l 1
 485 -160 l 5
 485 0 l 1
 440 29 433 42 433 120 c 1
 412 68 l 1
 373 13 312 -14 247 -14 c 0
 141 -14 77 45 66 148 c 0
 63 175 62 191 62 234 c 2
 62 526 l 1
 84 526 l 1
 84 243 l 2
 84 206 85 183 88 156 c 0
 98 67 147 7 247 7 c 0
 343 7 433 74 433 214 c 2
 433 526 l 1
 455 526 l 1
EndSplineSet
Colour: ffff
EndChar

StartChar: uni0448.loclBGR
Encoding: 271 -1 194
GlifName: uni0448.loclB_G_R_
Width: 852
GlyphClass: 2
Flags: W
HStem: -14 20<199.784 307.073 525.116 632.073> 0 21G<740 762> 506 20G<90 112 415 437 740 762>
VStem: 90 22<120.206 526> 415 22<137.187 526> 740 22<0 112 137.187 526>
CounterMasks: 1 1c
LayerCount: 2
Fore
SplineSet
94 148 m 0xbc
 91 175 90 191 90 234 c 2
 90 526 l 1
 112 526 l 1
 112 243 l 2
 112 206 113 183 116 156 c 0
 126 67 167 6 253 6 c 0
 341 6 415 74 415 224 c 2
 415 526 l 1
 437 526 l 1
 437 243 l 2
 437 206 438 183 441 156 c 0
 451 67 492 6 578 6 c 0xbc
 666 6 740 74 740 224 c 2
 740 526 l 1
 762 526 l 1
 762 0 l 1
 740 0 l 1x7c
 740 112 l 1
 716 55 l 1
 680 8 632 -14 577 -14 c 0
 491 -14 439 36 423 123 c 1
 391 55 l 1
 355 8 307 -14 252 -14 c 0
 158 -14 105 45 94 148 c 0xbc
EndSplineSet
Colour: ffff
EndChar

StartChar: uni0449.loclBGR
Encoding: 272 -1 195
GlifName: uni0449.loclB_G_R_
Width: 809
GlyphClass: 2
Flags: W
HStem: -14 20<180.784 288.073 506.116 613.073> 506 20G<71 93 396 418 721 743>
VStem: 71 22<120.206 526> 396 22<137.187 526> 721 22<50.7812 112 137.187 526> 773 22<-160 6.20211>
LayerCount: 2
Fore
SplineSet
75 148 m 0
 72 175 71 191 71 234 c 2
 71 526 l 1
 93 526 l 1
 93 243 l 2
 93 206 94 183 97 156 c 0
 107 67 148 6 234 6 c 0
 322 6 396 74 396 224 c 2
 396 526 l 1
 418 526 l 1
 418 243 l 2
 418 206 419 183 422 156 c 0
 432 67 473 6 559 6 c 0
 647 6 721 74 721 224 c 2
 721 526 l 1
 743 526 l 1
 743 161 l 2
 743 49 750 35 795 21 c 1
 795 -160 l 1
 773 -160 l 1
 773 0 l 1
 729 28 721 34 721 107 c 2
 721 112 l 1
 697 55 l 1
 661 8 613 -14 558 -14 c 0
 472 -14 420 36 404 123 c 1
 372 55 l 1
 336 8 288 -14 233 -14 c 0
 139 -14 86 45 75 148 c 0
EndSplineSet
Colour: ffff
EndChar

StartChar: uni044A.loclBGR
Encoding: 273 -1 196
GlifName: uni044A_.loclB_G_R_
Width: 638
GlyphClass: 2
Flags: W
HStem: -14 21<274.191 397.843> 429 21<286.202 402.864> 506 20<20 126>
VStem: 126 22<135.978 285.123 322 506> 545 24<147.266 286.168>
LayerCount: 2
Fore
SplineSet
20 506 m 1
 20 526 l 1
 148 526 l 1
 148 322 l 1
 162 346 l 2
 206 419 282 450 342 450 c 0
 479 450 569 357 569 217 c 0
 569 71 467 -14 330 -14 c 0
 184 -14 126 111 126 188 c 2
 126 506 l 1
 20 506 l 1
330 7 m 0
 461 7 545 112 545 213 c 0
 545 321 473 429 340 429 c 0
 266 429 148 361 148 218 c 2
 148 199 l 2
 148 77 248 7 330 7 c 0
EndSplineSet
Validated: 1
Colour: ffff
EndChar

StartChar: uni044B.loclBGR
Encoding: 274 -1 197
GlifName: uni044B_.loclB_G_R_
Width: 732
GlyphClass: 2
Flags: W
HStem: -14 21<238.191 361.843> 0 21G<620 642> 429 21<250.202 366.864> 506 20G<90 112 620 642>
VStem: 90 22<135.978 285.123 322 526> 509 24<147.266 286.168> 620 22<0 526>
LayerCount: 2
Fore
SplineSet
90 526 m 1xbe
 112 526 l 1
 112 322 l 1
 126 346 l 2
 170 419 246 450 306 450 c 0
 443 450 533 357 533 217 c 0
 533 71 431 -14 294 -14 c 0
 148 -14 90 111 90 188 c 2
 90 526 l 1xbe
294 7 m 0
 425 7 509 112 509 213 c 0
 509 321 437 429 304 429 c 0
 230 429 112 361 112 218 c 2
 112 199 l 2
 112 77 212 7 294 7 c 0
642 0 m 1x7e
 620 0 l 1
 620 526 l 1
 642 526 l 1
 642 0 l 1x7e
EndSplineSet
Colour: ffff
EndChar

StartChar: uni044C.loclBGR
Encoding: 275 -1 198
GlifName: uni044C_.loclB_G_R_
Width: 584
GlyphClass: 2
Flags: W
HStem: -14 21<219.191 342.843> 429 21<231.202 347.864> 506 20G<71 93>
VStem: 71 22<135.978 285.123 322 526> 490 24<147.266 286.168>
LayerCount: 2
Fore
SplineSet
71 526 m 1
 93 526 l 1
 93 322 l 1
 107 346 l 2
 151 419 227 450 287 450 c 0
 424 450 514 357 514 217 c 0
 514 71 412 -14 275 -14 c 0
 129 -14 71 111 71 188 c 2
 71 526 l 1
275 7 m 0
 406 7 490 112 490 213 c 0
 490 321 418 429 285 429 c 0
 211 429 93 361 93 218 c 2
 93 199 l 2
 93 77 193 7 275 7 c 0
EndSplineSet
Validated: 1
Colour: ffff
EndChar

StartChar: uni044E.loclBGR
Encoding: 276 -1 199
GlifName: uni044E_.loclB_G_R_
Width: 720
GlyphClass: 2
Flags: W
HStem: -14 21<340.213 473.787> 0 21G<71 93> 280 20<93 160> 519 21<339.651 473.787> 715 20G<71 93>
VStem: 71 22<0 280 300 735> 160 24<174.887 280 300 351.444> 630 24<174 350.556>
LayerCount: 2
Fore
SplineSet
407 540 m 0x7f
 555 540 654 429 654 262 c 0
 654 96 555 -14 407 -14 c 0xbf
 259 -14 160 96 160 262 c 2
 160 280 l 1
 93 280 l 1
 93 0 l 1
 71 0 l 1
 71 735 l 1
 93 735 l 1
 93 300 l 1
 161 300 l 1
 175 445 270 540 407 540 c 0x7f
407 7 m 0
 521 7 630 86 630 262 c 0
 630 439 521 519 407 519 c 0
 293 519 184 439 184 262 c 0
 184 86 293 7 407 7 c 0
EndSplineSet
Validated: 1
Colour: ffff
EndChar

StartChar: Aacute
Encoding: 277 193 200
GlifName: A_acute
Width: 616
GlyphClass: 2
Flags: W
HStem: 0 21G<36 66.658 567.268 599> 269 21<170 462> 670 20G<295.261 339.739> 736 21G<305 337.191>
LayerCount: 2
Fore
SplineSet
324 736 m 1
 305 736 l 1
 358 830 l 1
 386 830 l 1
 324 736 l 1
471 269 m 1
 162 269 l 1
 59 0 l 1
 36 0 l 1
 303 690 l 1
 332 690 l 1
 599 0 l 1
 575 0 l 1
 471 269 l 1
170 290 m 1
 462 290 l 1
 317 671 l 1
 170 290 l 1
EndSplineSet
Validated: 1
Position2: "'cpsp' Capital Spacing in Latin lookup 7 subtable" dx=5 dy=0 dh=10 dv=0
Position2: "'cpsp' Capital Spacing in Latin lookup 6 subtable" dx=5 dy=0 dh=10 dv=0
Position2: "'cpsp' Capital Spacing in Latin lookup 5 subtable" dx=5 dy=0 dh=10 dv=0
Position2: "'cpsp' Capital Spacing in Latin lookup 4 subtable" dx=5 dy=0 dh=10 dv=0
Position2: "'cpsp' Capital Spacing in Cyrillic lookup 3 subtable" dx=5 dy=0 dh=10 dv=0
Position2: "'cpsp' Capital Spacing lookup 2 subtable" dx=5 dy=0 dh=10 dv=0
Position2: "'cpsp' Capital Spacing lookup 1 subtable" dx=5 dy=0 dh=10 dv=0
EndChar

StartChar: Abreve
Encoding: 278 258 201
GlifName: A_breve
Width: 616
GlyphClass: 2
Flags: W
HStem: 0 21G<36 66.658 567.268 599> 269 21<170 462> 670 20G<295.261 339.739> 722 21<277.33 356.459>
VStem: 220 18<787.368 830> 396 18<787.368 830>
LayerCount: 2
Fore
SplineSet
317 722 m 0
 259 722 220 763 220 830 c 1
 238 830 l 1
 239 774 272 743 317 743 c 0
 362 743 395 774 396 830 c 1
 414 830 l 1
 414 763 374 722 317 722 c 0
471 269 m 1
 162 269 l 1
 59 0 l 1
 36 0 l 1
 303 690 l 1
 332 690 l 1
 599 0 l 1
 575 0 l 1
 471 269 l 1
170 290 m 1
 462 290 l 1
 317 671 l 1
 170 290 l 1
EndSplineSet
Validated: 1
Position2: "'cpsp' Capital Spacing in Latin lookup 7 subtable" dx=5 dy=0 dh=10 dv=0
Position2: "'cpsp' Capital Spacing in Latin lookup 6 subtable" dx=5 dy=0 dh=10 dv=0
Position2: "'cpsp' Capital Spacing in Latin lookup 5 subtable" dx=5 dy=0 dh=10 dv=0
Position2: "'cpsp' Capital Spacing in Latin lookup 4 subtable" dx=5 dy=0 dh=10 dv=0
Position2: "'cpsp' Capital Spacing in Cyrillic lookup 3 subtable" dx=5 dy=0 dh=10 dv=0
Position2: "'cpsp' Capital Spacing lookup 2 subtable" dx=5 dy=0 dh=10 dv=0
Position2: "'cpsp' Capital Spacing lookup 1 subtable" dx=5 dy=0 dh=10 dv=0
EndChar

StartChar: Acircumflex
Encoding: 279 194 202
GlifName: A_circumflex
Width: 616
GlyphClass: 2
Flags: W
HStem: 0 21G<36 66.658 567.268 599> 269 21<170 462> 670 20G<295.261 339.739> 736 21G<241 277.25 356.75 394>
LayerCount: 2
Fore
SplineSet
264 736 m 1
 241 736 l 1
 306 830 l 1
 329 830 l 1
 394 736 l 1
 370 736 l 1
 317 816 l 1
 264 736 l 1
471 269 m 1
 162 269 l 1
 59 0 l 1
 36 0 l 1
 303 690 l 1
 332 690 l 1
 599 0 l 1
 575 0 l 1
 471 269 l 1
170 290 m 1
 462 290 l 1
 317 671 l 1
 170 290 l 1
EndSplineSet
Validated: 1
Position2: "'cpsp' Capital Spacing in Latin lookup 7 subtable" dx=5 dy=0 dh=10 dv=0
Position2: "'cpsp' Capital Spacing in Latin lookup 6 subtable" dx=5 dy=0 dh=10 dv=0
Position2: "'cpsp' Capital Spacing in Latin lookup 5 subtable" dx=5 dy=0 dh=10 dv=0
Position2: "'cpsp' Capital Spacing in Latin lookup 4 subtable" dx=5 dy=0 dh=10 dv=0
Position2: "'cpsp' Capital Spacing in Cyrillic lookup 3 subtable" dx=5 dy=0 dh=10 dv=0
Position2: "'cpsp' Capital Spacing lookup 2 subtable" dx=5 dy=0 dh=10 dv=0
Position2: "'cpsp' Capital Spacing lookup 1 subtable" dx=5 dy=0 dh=10 dv=0
EndChar

StartChar: Adieresis
Encoding: 280 196 203
GlifName: A_dieresis
Width: 616
GlyphClass: 2
Flags: W
HStem: 0 21G<36 66.658 567.268 599> 269 21<170 462> 670 20G<295.261 339.739> 763 40<262.007 301.993 332.007 371.993>
VStem: 262 40<763.007 802.993> 332 40<763.007 802.993>
LayerCount: 2
Fore
SplineSet
282 763 m 0
 271 763 262 772 262 783 c 0
 262 794 271 803 282 803 c 0
 293 803 302 794 302 783 c 0
 302 772 293 763 282 763 c 0
352 763 m 0
 341 763 332 772 332 783 c 0
 332 794 341 803 352 803 c 0
 363 803 372 794 372 783 c 0
 372 772 363 763 352 763 c 0
471 269 m 1
 162 269 l 1
 59 0 l 1
 36 0 l 1
 303 690 l 1
 332 690 l 1
 599 0 l 1
 575 0 l 1
 471 269 l 1
170 290 m 1
 462 290 l 1
 317 671 l 1
 170 290 l 1
EndSplineSet
Validated: 1
Position2: "'cpsp' Capital Spacing in Latin lookup 7 subtable" dx=5 dy=0 dh=10 dv=0
Position2: "'cpsp' Capital Spacing in Latin lookup 6 subtable" dx=5 dy=0 dh=10 dv=0
Position2: "'cpsp' Capital Spacing in Latin lookup 5 subtable" dx=5 dy=0 dh=10 dv=0
Position2: "'cpsp' Capital Spacing in Latin lookup 4 subtable" dx=5 dy=0 dh=10 dv=0
Position2: "'cpsp' Capital Spacing in Cyrillic lookup 3 subtable" dx=5 dy=0 dh=10 dv=0
Position2: "'cpsp' Capital Spacing lookup 2 subtable" dx=5 dy=0 dh=10 dv=0
Position2: "'cpsp' Capital Spacing lookup 1 subtable" dx=5 dy=0 dh=10 dv=0
EndChar

StartChar: Agrave
Encoding: 281 192 204
GlifName: A_grave
Width: 616
GlyphClass: 2
Flags: W
HStem: 0 21G<36 66.658 567.268 599> 269 21<170 462> 670 20G<295.261 339.739> 736 21G<293.809 326>
LayerCount: 2
Fore
SplineSet
307 736 m 1
 245 830 l 1
 273 830 l 1
 326 736 l 1
 307 736 l 1
471 269 m 1
 162 269 l 1
 59 0 l 1
 36 0 l 1
 303 690 l 1
 332 690 l 1
 599 0 l 1
 575 0 l 1
 471 269 l 1
170 290 m 1
 462 290 l 1
 317 671 l 1
 170 290 l 1
EndSplineSet
Validated: 1
Position2: "'cpsp' Capital Spacing in Latin lookup 7 subtable" dx=5 dy=0 dh=10 dv=0
Position2: "'cpsp' Capital Spacing in Latin lookup 6 subtable" dx=5 dy=0 dh=10 dv=0
Position2: "'cpsp' Capital Spacing in Latin lookup 5 subtable" dx=5 dy=0 dh=10 dv=0
Position2: "'cpsp' Capital Spacing in Latin lookup 4 subtable" dx=5 dy=0 dh=10 dv=0
Position2: "'cpsp' Capital Spacing in Cyrillic lookup 3 subtable" dx=5 dy=0 dh=10 dv=0
Position2: "'cpsp' Capital Spacing lookup 2 subtable" dx=5 dy=0 dh=10 dv=0
Position2: "'cpsp' Capital Spacing lookup 1 subtable" dx=5 dy=0 dh=10 dv=0
EndChar

StartChar: Amacron
Encoding: 282 256 205
GlifName: A_macron
Width: 616
GlyphClass: 2
Flags: W
HStem: 0 21G<36 66.658 567.268 599> 269 21<170 462> 670 20G<295.261 339.739> 772 21<247 387>
LayerCount: 2
Fore
SplineSet
387 772 m 1
 247 772 l 1
 247 793 l 1
 387 793 l 1
 387 772 l 1
471 269 m 1
 162 269 l 1
 59 0 l 1
 36 0 l 1
 303 690 l 1
 332 690 l 1
 599 0 l 1
 575 0 l 1
 471 269 l 1
170 290 m 1
 462 290 l 1
 317 671 l 1
 170 290 l 1
EndSplineSet
Validated: 1
Position2: "'cpsp' Capital Spacing in Latin lookup 7 subtable" dx=5 dy=0 dh=10 dv=0
Position2: "'cpsp' Capital Spacing in Latin lookup 6 subtable" dx=5 dy=0 dh=10 dv=0
Position2: "'cpsp' Capital Spacing in Latin lookup 5 subtable" dx=5 dy=0 dh=10 dv=0
Position2: "'cpsp' Capital Spacing in Latin lookup 4 subtable" dx=5 dy=0 dh=10 dv=0
Position2: "'cpsp' Capital Spacing in Cyrillic lookup 3 subtable" dx=5 dy=0 dh=10 dv=0
Position2: "'cpsp' Capital Spacing lookup 2 subtable" dx=5 dy=0 dh=10 dv=0
Position2: "'cpsp' Capital Spacing lookup 1 subtable" dx=5 dy=0 dh=10 dv=0
EndChar

StartChar: Aogonek
Encoding: 283 260 206
GlifName: A_ogonek
Width: 616
GlyphClass: 2
Flags: W
HStem: -223 20<489.48 557.969> 0 21G<36 66.658> 269 21<170 462> 670 20G<295.261 339.739>
VStem: 452 22<-187.98 -100.757>
LayerCount: 2
Fore
SplineSet
599 0 m 1
 594 0 l 1
 525 -30 474 -84 474 -151 c 0
 474 -188 493 -203 520 -203 c 0
 543 -203 563 -194 585 -172 c 1
 585 -195 l 1
 566 -214 544 -223 516 -223 c 0
 484 -223 452 -208 452 -154 c 0
 452 -85 499 -23 572 8 c 1
 471 269 l 1
 162 269 l 1
 59 0 l 1
 36 0 l 1
 303 690 l 1
 332 690 l 1
 599 0 l 1
170 290 m 1
 462 290 l 1
 317 671 l 1
 170 290 l 1
EndSplineSet
Validated: 1
Position2: "'cpsp' Capital Spacing in Latin lookup 7 subtable" dx=5 dy=0 dh=10 dv=0
Position2: "'cpsp' Capital Spacing in Latin lookup 6 subtable" dx=5 dy=0 dh=10 dv=0
Position2: "'cpsp' Capital Spacing in Latin lookup 5 subtable" dx=5 dy=0 dh=10 dv=0
Position2: "'cpsp' Capital Spacing in Latin lookup 4 subtable" dx=5 dy=0 dh=10 dv=0
Position2: "'cpsp' Capital Spacing in Cyrillic lookup 3 subtable" dx=5 dy=0 dh=10 dv=0
Position2: "'cpsp' Capital Spacing lookup 2 subtable" dx=5 dy=0 dh=10 dv=0
Position2: "'cpsp' Capital Spacing lookup 1 subtable" dx=5 dy=0 dh=10 dv=0
EndChar

StartChar: Aring
Encoding: 284 197 207
GlifName: A_ring
Width: 616
GlyphClass: 2
Flags: W
HStem: 0 21G<36 66.658 567.268 599> 269 21<170 462> 670 20G<295.261 339.739> 722 21<289.718 344.282> 823 21<289.718 344.282>
VStem: 254 24<753.377 812.623> 356 24<753.377 812.623>
LayerCount: 2
Fore
SplineSet
317 722 m 0
 283 722 254 745 254 783 c 0
 254 821 283 844 317 844 c 0
 351 844 380 821 380 783 c 0
 380 745 351 722 317 722 c 0
317 823 m 0
 292 823 278 805 278 783 c 0
 278 761 292 743 317 743 c 0
 342 743 356 761 356 783 c 0
 356 805 342 823 317 823 c 0
471 269 m 1
 162 269 l 1
 59 0 l 1
 36 0 l 1
 303 690 l 1
 332 690 l 1
 599 0 l 1
 575 0 l 1
 471 269 l 1
170 290 m 1
 462 290 l 1
 317 671 l 1
 170 290 l 1
EndSplineSet
Validated: 1
Position2: "'cpsp' Capital Spacing in Latin lookup 7 subtable" dx=5 dy=0 dh=10 dv=0
Position2: "'cpsp' Capital Spacing in Latin lookup 6 subtable" dx=5 dy=0 dh=10 dv=0
Position2: "'cpsp' Capital Spacing in Latin lookup 5 subtable" dx=5 dy=0 dh=10 dv=0
Position2: "'cpsp' Capital Spacing in Latin lookup 4 subtable" dx=5 dy=0 dh=10 dv=0
Position2: "'cpsp' Capital Spacing in Cyrillic lookup 3 subtable" dx=5 dy=0 dh=10 dv=0
Position2: "'cpsp' Capital Spacing lookup 2 subtable" dx=5 dy=0 dh=10 dv=0
Position2: "'cpsp' Capital Spacing lookup 1 subtable" dx=5 dy=0 dh=10 dv=0
EndChar

StartChar: Atilde
Encoding: 285 195 208
GlifName: A_tilde
Width: 616
GlyphClass: 2
Flags: W
HStem: 0 21G<36 66.658 567.268 599> 269 21<170 462> 670 20G<295.261 339.739> 761 20<328.763 383.247> 786 20<250.753 305.237>
VStem: 229 20<765 784.238> 385 20<782.762 802>
LayerCount: 2
Fore
SplineSet
265 786 m 0
 255 786 249 780 249 765 c 1
 229 765 l 1
 229 791 241 806 265 806 c 0
 281 806 295 802 322 793 c 0
 346 785 360 781 369 781 c 0
 379 781 385 787 385 802 c 1
 405 802 l 1
 405 776 393 761 369 761 c 0
 353 761 339 765 312 774 c 0
 288 782 274 786 265 786 c 0
471 269 m 1
 162 269 l 1
 59 0 l 1
 36 0 l 1
 303 690 l 1
 332 690 l 1
 599 0 l 1
 575 0 l 1
 471 269 l 1
170 290 m 1
 462 290 l 1
 317 671 l 1
 170 290 l 1
EndSplineSet
Validated: 1
Position2: "'cpsp' Capital Spacing in Latin lookup 7 subtable" dx=5 dy=0 dh=10 dv=0
Position2: "'cpsp' Capital Spacing in Latin lookup 6 subtable" dx=5 dy=0 dh=10 dv=0
Position2: "'cpsp' Capital Spacing in Latin lookup 5 subtable" dx=5 dy=0 dh=10 dv=0
Position2: "'cpsp' Capital Spacing in Latin lookup 4 subtable" dx=5 dy=0 dh=10 dv=0
Position2: "'cpsp' Capital Spacing in Cyrillic lookup 3 subtable" dx=5 dy=0 dh=10 dv=0
Position2: "'cpsp' Capital Spacing lookup 2 subtable" dx=5 dy=0 dh=10 dv=0
Position2: "'cpsp' Capital Spacing lookup 1 subtable" dx=5 dy=0 dh=10 dv=0
EndChar

StartChar: AE
Encoding: 286 198 209
GlifName: A_E_
Width: 897
GlyphClass: 2
Flags: W
HStem: 0 20<484 865> 269 21<198 451> 335 20<470 835> 670 20<456 855>
VStem: 434 22<512.5 668> 451 19<177.5 269 290 335 355 445.647> 463 21<20 156.917>
LayerCount: 2
Fore
SplineSet
865 20 m 1xf2
 865 0 l 1
 463 0 l 1xf2
 451 269 l 1xf4
 184 269 l 1
 16 0 l 1
 -10 0 l 1
 424 690 l 1
 855 690 l 1
 855 670 l 1
 456 670 l 1xf8
 470 355 l 1
 835 355 l 1
 835 335 l 1
 470 335 l 1xf4
 484 20 l 1
 865 20 l 1xf2
451 290 m 1xf4
 434 668 l 1xf8
 198 290 l 1
 451 290 l 1xf4
EndSplineSet
Validated: 1
Position2: "'cpsp' Capital Spacing in Latin lookup 7 subtable" dx=5 dy=0 dh=10 dv=0
Position2: "'cpsp' Capital Spacing in Latin lookup 6 subtable" dx=5 dy=0 dh=10 dv=0
Position2: "'cpsp' Capital Spacing in Latin lookup 5 subtable" dx=5 dy=0 dh=10 dv=0
Position2: "'cpsp' Capital Spacing in Latin lookup 4 subtable" dx=5 dy=0 dh=10 dv=0
Position2: "'cpsp' Capital Spacing in Cyrillic lookup 3 subtable" dx=5 dy=0 dh=10 dv=0
Position2: "'cpsp' Capital Spacing lookup 2 subtable" dx=5 dy=0 dh=10 dv=0
Position2: "'cpsp' Capital Spacing lookup 1 subtable" dx=5 dy=0 dh=10 dv=0
EndChar

StartChar: Cacute
Encoding: 287 262 210
GlifName: C_acute
Width: 677
GlyphClass: 2
Flags: W
HStem: -14 21<279.288 428.126> 683 21<289.371 436.303> 736 21G<332 364.191>
VStem: 51 24<236.002 448.051> 604 22<181.492 227 474 512.517>
LayerCount: 2
Fore
SplineSet
351 736 m 1
 332 736 l 1
 385 830 l 1
 413 830 l 1
 351 736 l 1
364 704 m 0
 515 704 599 608 624 484 c 2
 626 474 l 1
 604 474 l 1
 602 484 l 2
 579 597 497 683 360 683 c 0
 216 683 75 565 75 344 c 0
 75 115 204 7 352 7 c 0
 500 7 580 99 604 217 c 2
 606 227 l 1
 628 227 l 1
 626 217 l 2
 600 88 515 -14 350 -14 c 0
 179 -14 51 118 51 343 c 0
 51 558 187 704 364 704 c 0
EndSplineSet
Validated: 1
Position2: "'cpsp' Capital Spacing in Latin lookup 7 subtable" dx=5 dy=0 dh=10 dv=0
Position2: "'cpsp' Capital Spacing in Latin lookup 6 subtable" dx=5 dy=0 dh=10 dv=0
Position2: "'cpsp' Capital Spacing in Latin lookup 5 subtable" dx=5 dy=0 dh=10 dv=0
Position2: "'cpsp' Capital Spacing in Latin lookup 4 subtable" dx=5 dy=0 dh=10 dv=0
Position2: "'cpsp' Capital Spacing in Cyrillic lookup 3 subtable" dx=5 dy=0 dh=10 dv=0
Position2: "'cpsp' Capital Spacing lookup 2 subtable" dx=5 dy=0 dh=10 dv=0
Position2: "'cpsp' Capital Spacing lookup 1 subtable" dx=5 dy=0 dh=10 dv=0
EndChar

StartChar: Ccaron
Encoding: 288 268 211
GlifName: C_caron
Width: 677
GlyphClass: 2
Flags: W
HStem: -14 21<279.288 428.126> 683 21<289.371 436.303> 736 21G<319.17 369.83>
VStem: 51 24<236.002 448.051> 602 22<474 520.032> 604 22<181.492 227>
LayerCount: 2
Fore
SplineSet
333 736 m 1xf0
 268 830 l 1
 292 830 l 1
 345 750 l 1
 398 830 l 1
 421 830 l 1
 356 736 l 1
 333 736 l 1xf0
628 227 m 1
 626 217 l 2xf4
 600 88 515 -14 350 -14 c 0
 179 -14 51 118 51 343 c 0
 51 558 187 704 364 704 c 0
 515 704 599 608 624 484 c 2xf8
 626 474 l 1
 604 474 l 1xf4
 602 484 l 2xf8
 579 597 497 683 360 683 c 0
 216 683 75 565 75 344 c 0
 75 115 204 7 352 7 c 0
 500 7 580 99 604 217 c 2xf4
 606 227 l 1
 628 227 l 1
EndSplineSet
Validated: 1
Position2: "'cpsp' Capital Spacing in Latin lookup 7 subtable" dx=5 dy=0 dh=10 dv=0
Position2: "'cpsp' Capital Spacing in Latin lookup 6 subtable" dx=5 dy=0 dh=10 dv=0
Position2: "'cpsp' Capital Spacing in Latin lookup 5 subtable" dx=5 dy=0 dh=10 dv=0
Position2: "'cpsp' Capital Spacing in Latin lookup 4 subtable" dx=5 dy=0 dh=10 dv=0
Position2: "'cpsp' Capital Spacing in Cyrillic lookup 3 subtable" dx=5 dy=0 dh=10 dv=0
Position2: "'cpsp' Capital Spacing lookup 2 subtable" dx=5 dy=0 dh=10 dv=0
Position2: "'cpsp' Capital Spacing lookup 1 subtable" dx=5 dy=0 dh=10 dv=0
EndChar

StartChar: Ccedilla
Encoding: 289 199 212
GlifName: C_cedilla
Width: 677
GlyphClass: 2
Flags: W
HStem: -210 21<279.365 378.377> -14 21<279.252 339 364 428.157> 683 21<289.371 436.303>
VStem: 51 24<237.106 448.051> 409 23<-163.092 -94.2763> 602 22<474 520.032> 604 22<179.301 227>
LayerCount: 2
Fore
SplineSet
628 227 m 1xfa
 626 217 l 2xfa
 601 92 520 -8 364 -14 c 1
 344 -51 l 1
 398 -56 432 -79 432 -128 c 0
 432 -186 380 -210 331 -210 c 0
 309 -210 292 -207 278 -200 c 1
 278 -178 l 1
 293 -186 309 -189 331 -189 c 0
 376 -189 409 -169 409 -128 c 0
 409 -91 382 -69 323 -69 c 2
 311 -69 l 1
 339 -14 l 1
 174 -8 51 123 51 343 c 0
 51 558 187 704 364 704 c 0
 515 704 599 608 624 484 c 2xfc
 626 474 l 1
 604 474 l 1xfa
 602 484 l 2xfc
 579 597 497 683 360 683 c 0
 216 683 75 565 75 344 c 0
 75 115 204 7 352 7 c 0
 500 7 580 99 604 217 c 2
 606 227 l 1
 628 227 l 1xfa
EndSplineSet
Validated: 1
Position2: "'cpsp' Capital Spacing in Latin lookup 7 subtable" dx=5 dy=0 dh=10 dv=0
Position2: "'cpsp' Capital Spacing in Latin lookup 6 subtable" dx=5 dy=0 dh=10 dv=0
Position2: "'cpsp' Capital Spacing in Latin lookup 5 subtable" dx=5 dy=0 dh=10 dv=0
Position2: "'cpsp' Capital Spacing in Latin lookup 4 subtable" dx=5 dy=0 dh=10 dv=0
Position2: "'cpsp' Capital Spacing in Cyrillic lookup 3 subtable" dx=5 dy=0 dh=10 dv=0
Position2: "'cpsp' Capital Spacing lookup 2 subtable" dx=5 dy=0 dh=10 dv=0
Position2: "'cpsp' Capital Spacing lookup 1 subtable" dx=5 dy=0 dh=10 dv=0
EndChar

StartChar: Cdotaccent
Encoding: 290 266 213
GlifName: C_dotaccent
Width: 677
GlyphClass: 2
Flags: W
HStem: -14 21<279.288 428.126> 683 21<289.371 436.303> 763 40<324.007 363.993>
VStem: 51 24<236.002 448.051> 324 40<763.007 802.993> 604 22<181.492 227 474 512.517>
LayerCount: 2
Fore
SplineSet
344 803 m 0
 355 803 364 794 364 783 c 0
 364 772 355 763 344 763 c 0
 333 763 324 772 324 783 c 0
 324 794 333 803 344 803 c 0
364 704 m 0
 515 704 599 608 624 484 c 2
 626 474 l 1
 604 474 l 1
 602 484 l 2
 579 597 497 683 360 683 c 0
 216 683 75 565 75 344 c 0
 75 115 204 7 352 7 c 0
 500 7 580 99 604 217 c 2
 606 227 l 1
 628 227 l 1
 626 217 l 2
 600 88 515 -14 350 -14 c 0
 179 -14 51 118 51 343 c 0
 51 558 187 704 364 704 c 0
EndSplineSet
Validated: 1
Position2: "'cpsp' Capital Spacing in Latin lookup 7 subtable" dx=5 dy=0 dh=10 dv=0
Position2: "'cpsp' Capital Spacing in Latin lookup 6 subtable" dx=5 dy=0 dh=10 dv=0
Position2: "'cpsp' Capital Spacing in Latin lookup 5 subtable" dx=5 dy=0 dh=10 dv=0
Position2: "'cpsp' Capital Spacing in Latin lookup 4 subtable" dx=5 dy=0 dh=10 dv=0
Position2: "'cpsp' Capital Spacing in Cyrillic lookup 3 subtable" dx=5 dy=0 dh=10 dv=0
Position2: "'cpsp' Capital Spacing lookup 2 subtable" dx=5 dy=0 dh=10 dv=0
Position2: "'cpsp' Capital Spacing lookup 1 subtable" dx=5 dy=0 dh=10 dv=0
EndChar

StartChar: Eth
Encoding: 291 208 214
GlifName: E_th
Width: 685
GlyphClass: 2
Flags: W
HStem: 0 21<124 416.859> 323 21<42 102 124 308> 669 21<124 415.037>
VStem: 102 22<21 323 344 669> 623 24<247.714 445.463>
LayerCount: 2
Fore
SplineSet
374 688 m 0
 480 680 647 592 647 348 c 0
 647 105 482 15 389 4 c 0
 354 0 333 0 301 0 c 2
 102 0 l 1
 102 323 l 1
 42 323 l 1
 42 344 l 1
 102 344 l 1
 102 690 l 1
 301 690 l 2
 333 690 349 690 374 688 c 0
386 25 m 0
 495 38 623 141 623 348 c 0
 623 565 482 657 373 667 c 0
 351 669 337 669 301 669 c 2
 124 669 l 1
 124 344 l 1
 308 344 l 1
 308 323 l 1
 124 323 l 1
 124 21 l 1
 301 21 l 2
 332 21 353 21 386 25 c 0
EndSplineSet
Validated: 1
Position2: "'cpsp' Capital Spacing in Latin lookup 7 subtable" dx=5 dy=0 dh=10 dv=0
Position2: "'cpsp' Capital Spacing in Latin lookup 6 subtable" dx=5 dy=0 dh=10 dv=0
Position2: "'cpsp' Capital Spacing in Latin lookup 5 subtable" dx=5 dy=0 dh=10 dv=0
Position2: "'cpsp' Capital Spacing in Latin lookup 4 subtable" dx=5 dy=0 dh=10 dv=0
Position2: "'cpsp' Capital Spacing in Cyrillic lookup 3 subtable" dx=5 dy=0 dh=10 dv=0
Position2: "'cpsp' Capital Spacing lookup 2 subtable" dx=5 dy=0 dh=10 dv=0
Position2: "'cpsp' Capital Spacing lookup 1 subtable" dx=5 dy=0 dh=10 dv=0
EndChar

StartChar: Dcaron
Encoding: 292 270 215
GlifName: D_caron
Width: 679
GlyphClass: 2
Flags: W
HStem: 0 21<118 410.859> 669 21<118 409.037> 736 21G<317.17 367.83>
VStem: 96 22<21 669> 617 24<247.714 445.463>
LayerCount: 2
Fore
SplineSet
331 736 m 1
 266 830 l 1
 290 830 l 1
 343 750 l 1
 396 830 l 1
 419 830 l 1
 354 736 l 1
 331 736 l 1
368 688 m 0
 474 680 641 592 641 348 c 0
 641 105 476 15 383 4 c 0
 348 0 327 0 295 0 c 2
 96 0 l 1
 96 690 l 1
 295 690 l 2
 327 690 343 690 368 688 c 0
380 25 m 0
 489 38 617 141 617 348 c 0
 617 565 476 657 367 667 c 0
 345 669 331 669 295 669 c 2
 118 669 l 1
 118 21 l 1
 295 21 l 2
 326 21 347 21 380 25 c 0
EndSplineSet
Validated: 1
Position2: "'cpsp' Capital Spacing in Latin lookup 7 subtable" dx=5 dy=0 dh=10 dv=0
Position2: "'cpsp' Capital Spacing in Latin lookup 6 subtable" dx=5 dy=0 dh=10 dv=0
Position2: "'cpsp' Capital Spacing in Latin lookup 5 subtable" dx=5 dy=0 dh=10 dv=0
Position2: "'cpsp' Capital Spacing in Latin lookup 4 subtable" dx=5 dy=0 dh=10 dv=0
Position2: "'cpsp' Capital Spacing in Cyrillic lookup 3 subtable" dx=5 dy=0 dh=10 dv=0
Position2: "'cpsp' Capital Spacing lookup 2 subtable" dx=5 dy=0 dh=10 dv=0
Position2: "'cpsp' Capital Spacing lookup 1 subtable" dx=5 dy=0 dh=10 dv=0
EndChar

StartChar: Dcroat
Encoding: 293 272 216
GlifName: D_croat
Width: 685
GlyphClass: 2
Flags: W
HStem: 0 21<124 416.859> 323 21<42 102 124 308> 669 21<124 415.037>
VStem: 102 22<21 323 344 669> 623 24<247.714 445.463>
LayerCount: 2
Fore
SplineSet
374 688 m 0
 480 680 647 592 647 348 c 0
 647 105 482 15 389 4 c 0
 354 0 333 0 301 0 c 2
 102 0 l 1
 102 323 l 1
 42 323 l 1
 42 344 l 1
 102 344 l 1
 102 690 l 1
 301 690 l 2
 333 690 349 690 374 688 c 0
386 25 m 0
 495 38 623 141 623 348 c 0
 623 565 482 657 373 667 c 0
 351 669 337 669 301 669 c 2
 124 669 l 1
 124 344 l 1
 308 344 l 1
 308 323 l 1
 124 323 l 1
 124 21 l 1
 301 21 l 2
 332 21 353 21 386 25 c 0
EndSplineSet
Validated: 1
Position2: "'cpsp' Capital Spacing in Latin lookup 7 subtable" dx=5 dy=0 dh=10 dv=0
Position2: "'cpsp' Capital Spacing in Latin lookup 6 subtable" dx=5 dy=0 dh=10 dv=0
Position2: "'cpsp' Capital Spacing in Latin lookup 5 subtable" dx=5 dy=0 dh=10 dv=0
Position2: "'cpsp' Capital Spacing in Latin lookup 4 subtable" dx=5 dy=0 dh=10 dv=0
Position2: "'cpsp' Capital Spacing in Cyrillic lookup 3 subtable" dx=5 dy=0 dh=10 dv=0
Position2: "'cpsp' Capital Spacing lookup 2 subtable" dx=5 dy=0 dh=10 dv=0
Position2: "'cpsp' Capital Spacing lookup 1 subtable" dx=5 dy=0 dh=10 dv=0
EndChar

StartChar: Eacute
Encoding: 294 201 217
GlifName: E_acute
Width: 557
GlyphClass: 2
Flags: W
HStem: 0 20<118 525> 335 20<118 495> 670 20<118 515> 736 21G<278 310.191>
VStem: 96 22<20 335 355 670>
LayerCount: 2
Fore
SplineSet
297 736 m 1
 278 736 l 1
 331 830 l 1
 359 830 l 1
 297 736 l 1
525 20 m 1
 525 0 l 1
 96 0 l 1
 96 690 l 1
 515 690 l 1
 515 670 l 1
 118 670 l 1
 118 355 l 1
 495 355 l 1
 495 335 l 1
 118 335 l 1
 118 20 l 1
 525 20 l 1
EndSplineSet
Validated: 1
Position2: "'cpsp' Capital Spacing in Latin lookup 7 subtable" dx=5 dy=0 dh=10 dv=0
Position2: "'cpsp' Capital Spacing in Latin lookup 6 subtable" dx=5 dy=0 dh=10 dv=0
Position2: "'cpsp' Capital Spacing in Latin lookup 5 subtable" dx=5 dy=0 dh=10 dv=0
Position2: "'cpsp' Capital Spacing in Latin lookup 4 subtable" dx=5 dy=0 dh=10 dv=0
Position2: "'cpsp' Capital Spacing in Cyrillic lookup 3 subtable" dx=5 dy=0 dh=10 dv=0
Position2: "'cpsp' Capital Spacing lookup 2 subtable" dx=5 dy=0 dh=10 dv=0
Position2: "'cpsp' Capital Spacing lookup 1 subtable" dx=5 dy=0 dh=10 dv=0
EndChar

StartChar: Ecaron
Encoding: 295 282 218
GlifName: E_caron
Width: 557
GlyphClass: 2
Flags: W
HStem: 0 20<118 525> 335 20<118 495> 670 20<118 515> 736 21G<265.17 315.83>
VStem: 96 22<20 335 355 670>
LayerCount: 2
Fore
SplineSet
279 736 m 1
 214 830 l 1
 238 830 l 1
 291 750 l 1
 344 830 l 1
 367 830 l 1
 302 736 l 1
 279 736 l 1
525 20 m 1
 525 0 l 1
 96 0 l 1
 96 690 l 1
 515 690 l 1
 515 670 l 1
 118 670 l 1
 118 355 l 1
 495 355 l 1
 495 335 l 1
 118 335 l 1
 118 20 l 1
 525 20 l 1
EndSplineSet
Validated: 1
Position2: "'cpsp' Capital Spacing in Latin lookup 7 subtable" dx=5 dy=0 dh=10 dv=0
Position2: "'cpsp' Capital Spacing in Latin lookup 6 subtable" dx=5 dy=0 dh=10 dv=0
Position2: "'cpsp' Capital Spacing in Latin lookup 5 subtable" dx=5 dy=0 dh=10 dv=0
Position2: "'cpsp' Capital Spacing in Latin lookup 4 subtable" dx=5 dy=0 dh=10 dv=0
Position2: "'cpsp' Capital Spacing in Cyrillic lookup 3 subtable" dx=5 dy=0 dh=10 dv=0
Position2: "'cpsp' Capital Spacing lookup 2 subtable" dx=5 dy=0 dh=10 dv=0
Position2: "'cpsp' Capital Spacing lookup 1 subtable" dx=5 dy=0 dh=10 dv=0
EndChar

StartChar: Ecircumflex
Encoding: 296 202 219
GlifName: E_circumflex
Width: 557
GlyphClass: 2
Flags: W
HStem: 0 20<118 525> 335 20<118 495> 670 20<118 515> 736 21G<214 250.25 329.75 367>
VStem: 96 22<20 335 355 670>
LayerCount: 2
Fore
SplineSet
237 736 m 1
 214 736 l 1
 279 830 l 1
 302 830 l 1
 367 736 l 1
 343 736 l 1
 290 816 l 1
 237 736 l 1
525 20 m 1
 525 0 l 1
 96 0 l 1
 96 690 l 1
 515 690 l 1
 515 670 l 1
 118 670 l 1
 118 355 l 1
 495 355 l 1
 495 335 l 1
 118 335 l 1
 118 20 l 1
 525 20 l 1
EndSplineSet
Validated: 1
Position2: "'cpsp' Capital Spacing in Latin lookup 7 subtable" dx=5 dy=0 dh=10 dv=0
Position2: "'cpsp' Capital Spacing in Latin lookup 6 subtable" dx=5 dy=0 dh=10 dv=0
Position2: "'cpsp' Capital Spacing in Latin lookup 5 subtable" dx=5 dy=0 dh=10 dv=0
Position2: "'cpsp' Capital Spacing in Latin lookup 4 subtable" dx=5 dy=0 dh=10 dv=0
Position2: "'cpsp' Capital Spacing in Cyrillic lookup 3 subtable" dx=5 dy=0 dh=10 dv=0
Position2: "'cpsp' Capital Spacing lookup 2 subtable" dx=5 dy=0 dh=10 dv=0
Position2: "'cpsp' Capital Spacing lookup 1 subtable" dx=5 dy=0 dh=10 dv=0
EndChar

StartChar: Edieresis
Encoding: 297 203 220
GlifName: E_dieresis
Width: 557
GlyphClass: 2
Flags: W
HStem: 0 20<118 525> 335 20<118 495> 670 20<118 515> 763 40<235.007 274.993 305.007 344.993>
VStem: 96 22<20 335 355 670> 235 40<763.007 802.993> 305 40<763.007 802.993>
LayerCount: 2
Fore
SplineSet
255 763 m 0
 244 763 235 772 235 783 c 0
 235 794 244 803 255 803 c 0
 266 803 275 794 275 783 c 0
 275 772 266 763 255 763 c 0
325 763 m 4
 314 763 305 772 305 783 c 0
 305 794 314 803 325 803 c 0
 336 803 345 794 345 783 c 0
 345 772 336 763 325 763 c 4
525 20 m 1
 525 0 l 1
 96 0 l 1
 96 690 l 1
 515 690 l 1
 515 670 l 1
 118 670 l 1
 118 355 l 1
 495 355 l 1
 495 335 l 1
 118 335 l 1
 118 20 l 1
 525 20 l 1
EndSplineSet
Validated: 1
Position2: "'cpsp' Capital Spacing in Latin lookup 7 subtable" dx=5 dy=0 dh=10 dv=0
Position2: "'cpsp' Capital Spacing in Latin lookup 6 subtable" dx=5 dy=0 dh=10 dv=0
Position2: "'cpsp' Capital Spacing in Latin lookup 5 subtable" dx=5 dy=0 dh=10 dv=0
Position2: "'cpsp' Capital Spacing in Latin lookup 4 subtable" dx=5 dy=0 dh=10 dv=0
Position2: "'cpsp' Capital Spacing in Cyrillic lookup 3 subtable" dx=5 dy=0 dh=10 dv=0
Position2: "'cpsp' Capital Spacing lookup 2 subtable" dx=5 dy=0 dh=10 dv=0
Position2: "'cpsp' Capital Spacing lookup 1 subtable" dx=5 dy=0 dh=10 dv=0
EndChar

StartChar: Edotaccent
Encoding: 298 278 221
GlifName: E_dotaccent
Width: 557
GlyphClass: 2
Flags: W
HStem: 0 20<118 525> 335 20<118 495> 670 20<118 515> 763 40<270.007 309.993>
VStem: 96 22<20 335 355 670> 270 40<763.007 802.993>
LayerCount: 2
Fore
SplineSet
290 763 m 0
 279 763 270 772 270 783 c 0
 270 794 279 803 290 803 c 0
 301 803 310 794 310 783 c 0
 310 772 301 763 290 763 c 0
525 20 m 1
 525 0 l 1
 96 0 l 1
 96 690 l 1
 515 690 l 1
 515 670 l 1
 118 670 l 1
 118 355 l 1
 495 355 l 1
 495 335 l 1
 118 335 l 1
 118 20 l 1
 525 20 l 1
EndSplineSet
Validated: 1
Position2: "'cpsp' Capital Spacing in Latin lookup 7 subtable" dx=5 dy=0 dh=10 dv=0
Position2: "'cpsp' Capital Spacing in Latin lookup 6 subtable" dx=5 dy=0 dh=10 dv=0
Position2: "'cpsp' Capital Spacing in Latin lookup 5 subtable" dx=5 dy=0 dh=10 dv=0
Position2: "'cpsp' Capital Spacing in Latin lookup 4 subtable" dx=5 dy=0 dh=10 dv=0
Position2: "'cpsp' Capital Spacing in Cyrillic lookup 3 subtable" dx=5 dy=0 dh=10 dv=0
Position2: "'cpsp' Capital Spacing lookup 2 subtable" dx=5 dy=0 dh=10 dv=0
Position2: "'cpsp' Capital Spacing lookup 1 subtable" dx=5 dy=0 dh=10 dv=0
EndChar

StartChar: Egrave
Encoding: 299 200 222
GlifName: E_grave
Width: 557
GlyphClass: 2
Flags: W
HStem: 0 20<118 525> 335 20<118 495> 670 20<118 515> 736 21G<266.809 299>
VStem: 96 22<20 335 355 670>
LayerCount: 2
Fore
SplineSet
280 736 m 1
 218 830 l 1
 246 830 l 1
 299 736 l 1
 280 736 l 1
525 20 m 1
 525 0 l 1
 96 0 l 1
 96 690 l 1
 515 690 l 1
 515 670 l 1
 118 670 l 1
 118 355 l 1
 495 355 l 1
 495 335 l 1
 118 335 l 1
 118 20 l 1
 525 20 l 1
EndSplineSet
Validated: 1
Position2: "'cpsp' Capital Spacing in Latin lookup 7 subtable" dx=5 dy=0 dh=10 dv=0
Position2: "'cpsp' Capital Spacing in Latin lookup 6 subtable" dx=5 dy=0 dh=10 dv=0
Position2: "'cpsp' Capital Spacing in Latin lookup 5 subtable" dx=5 dy=0 dh=10 dv=0
Position2: "'cpsp' Capital Spacing in Latin lookup 4 subtable" dx=5 dy=0 dh=10 dv=0
Position2: "'cpsp' Capital Spacing in Cyrillic lookup 3 subtable" dx=5 dy=0 dh=10 dv=0
Position2: "'cpsp' Capital Spacing lookup 2 subtable" dx=5 dy=0 dh=10 dv=0
Position2: "'cpsp' Capital Spacing lookup 1 subtable" dx=5 dy=0 dh=10 dv=0
EndChar

StartChar: Emacron
Encoding: 300 274 223
GlifName: E_macron
Width: 557
GlyphClass: 2
Flags: W
HStem: 0 20<118 525> 335 20<118 495> 670 20<118 515> 772 21<220 360>
VStem: 96 22<20 335 355 670>
LayerCount: 2
Fore
SplineSet
360 772 m 1
 220 772 l 1
 220 793 l 1
 360 793 l 1
 360 772 l 1
525 20 m 1
 525 0 l 1
 96 0 l 1
 96 690 l 1
 515 690 l 1
 515 670 l 1
 118 670 l 1
 118 355 l 1
 495 355 l 1
 495 335 l 1
 118 335 l 1
 118 20 l 1
 525 20 l 1
EndSplineSet
Validated: 1
Position2: "'cpsp' Capital Spacing in Latin lookup 7 subtable" dx=5 dy=0 dh=10 dv=0
Position2: "'cpsp' Capital Spacing in Latin lookup 6 subtable" dx=5 dy=0 dh=10 dv=0
Position2: "'cpsp' Capital Spacing in Latin lookup 5 subtable" dx=5 dy=0 dh=10 dv=0
Position2: "'cpsp' Capital Spacing in Latin lookup 4 subtable" dx=5 dy=0 dh=10 dv=0
Position2: "'cpsp' Capital Spacing in Cyrillic lookup 3 subtable" dx=5 dy=0 dh=10 dv=0
Position2: "'cpsp' Capital Spacing lookup 2 subtable" dx=5 dy=0 dh=10 dv=0
Position2: "'cpsp' Capital Spacing lookup 1 subtable" dx=5 dy=0 dh=10 dv=0
EndChar

StartChar: Eogonek
Encoding: 301 280 224
GlifName: E_ogonek
Width: 557
GlyphClass: 2
Flags: W
HStem: -223 20<420.48 488.969> 0 20<118 485 506.096 525> 335 20<118 495> 670 20<118 515>
VStem: 96 22<20 335 355 670> 383 22<-187.98 -99.9314>
LayerCount: 2
Fore
SplineSet
525 20 m 1
 525 0 l 1
 456 -30 405 -84 405 -151 c 0
 405 -188 424 -203 451 -203 c 0
 474 -203 494 -194 516 -172 c 1
 516 -195 l 1
 497 -214 475 -223 447 -223 c 0
 415 -223 383 -208 383 -154 c 0
 383 -90 423 -33 485 0 c 1
 96 0 l 1
 96 690 l 1
 515 690 l 1
 515 670 l 1
 118 670 l 1
 118 355 l 1
 495 355 l 1
 495 335 l 1
 118 335 l 1
 118 20 l 1
 525 20 l 1
EndSplineSet
Validated: 1
Position2: "'cpsp' Capital Spacing in Latin lookup 7 subtable" dx=5 dy=0 dh=10 dv=0
Position2: "'cpsp' Capital Spacing in Latin lookup 6 subtable" dx=5 dy=0 dh=10 dv=0
Position2: "'cpsp' Capital Spacing in Latin lookup 5 subtable" dx=5 dy=0 dh=10 dv=0
Position2: "'cpsp' Capital Spacing in Latin lookup 4 subtable" dx=5 dy=0 dh=10 dv=0
Position2: "'cpsp' Capital Spacing in Cyrillic lookup 3 subtable" dx=5 dy=0 dh=10 dv=0
Position2: "'cpsp' Capital Spacing lookup 2 subtable" dx=5 dy=0 dh=10 dv=0
Position2: "'cpsp' Capital Spacing lookup 1 subtable" dx=5 dy=0 dh=10 dv=0
EndChar

StartChar: Gbreve
Encoding: 302 286 225
GlifName: G_breve
Width: 694
GlyphClass: 2
Flags: W
HStem: -14 21<281.092 425.644> 0 21G<612 634> 287 20<379 612> 683 21<296.381 446.303> 722 21<320.33 399.459>
VStem: 51 24<236.002 443.673> 263 18<787.368 830> 439 18<787.368 830> 612 22<0 287 474 520.032>
LayerCount: 2
Fore
SplineSet
360 722 m 0x3f80
 302 722 263 763 263 830 c 1
 281 830 l 1
 282 774 315 743 360 743 c 0
 405 743 438 774 439 830 c 1
 457 830 l 1
 457 763 417 722 360 722 c 0x3f80
379 307 m 1
 634 307 l 1
 634 0 l 1
 612 0 l 1x7f80
 612 184 l 1
 592 119 l 1
 535 23 442 -14 353 -14 c 0
 179 -14 51 118 51 343 c 0
 51 558 190 704 374 704 c 0
 525 704 609 608 634 484 c 2
 636 474 l 1
 614 474 l 1
 612 484 l 2
 589 597 507 683 370 683 c 0
 219 683 75 565 75 344 c 0
 75 115 204 7 355 7 c 0xbf80
 460 7 612 75 612 287 c 1
 379 287 l 1
 379 307 l 1
EndSplineSet
Validated: 1
Position2: "'cpsp' Capital Spacing in Latin lookup 7 subtable" dx=5 dy=0 dh=10 dv=0
Position2: "'cpsp' Capital Spacing in Latin lookup 6 subtable" dx=5 dy=0 dh=10 dv=0
Position2: "'cpsp' Capital Spacing in Latin lookup 5 subtable" dx=5 dy=0 dh=10 dv=0
Position2: "'cpsp' Capital Spacing in Latin lookup 4 subtable" dx=5 dy=0 dh=10 dv=0
Position2: "'cpsp' Capital Spacing in Cyrillic lookup 3 subtable" dx=5 dy=0 dh=10 dv=0
Position2: "'cpsp' Capital Spacing lookup 2 subtable" dx=5 dy=0 dh=10 dv=0
Position2: "'cpsp' Capital Spacing lookup 1 subtable" dx=5 dy=0 dh=10 dv=0
EndChar

StartChar: Gcommaaccent
Encoding: 303 290 226
GlifName: G_commaaccent
Width: 694
GlyphClass: 2
Flags: W
HStem: -14 21<281.092 425.644> 0 21G<612 634> 287 20<379 612> 683 21<296.381 446.303>
VStem: 51 24<236.002 443.673> 612 22<0 287 474 520.032>
LayerCount: 2
Fore
SplineSet
379 307 m 1xbc
 634 307 l 1
 634 0 l 1
 612 0 l 1x7c
 612 184 l 1
 592 119 l 1
 535 23 442 -14 353 -14 c 0
 179 -14 51 118 51 343 c 0
 51 558 190 704 374 704 c 0
 525 704 609 608 634 484 c 2
 636 474 l 1
 614 474 l 1
 612 484 l 2
 589 597 507 683 370 683 c 0
 219 683 75 565 75 344 c 0
 75 115 204 7 355 7 c 0
 460 7 612 75 612 287 c 1
 379 287 l 1
 379 307 l 1xbc
348 -51 m 1
 373 -51 l 1
 373 -56 l 1
 324 -173 l 1
 305 -173 l 1
 348 -51 l 1
EndSplineSet
Validated: 1
Position2: "'cpsp' Capital Spacing in Latin lookup 7 subtable" dx=5 dy=0 dh=10 dv=0
Position2: "'cpsp' Capital Spacing in Latin lookup 6 subtable" dx=5 dy=0 dh=10 dv=0
Position2: "'cpsp' Capital Spacing in Latin lookup 5 subtable" dx=5 dy=0 dh=10 dv=0
Position2: "'cpsp' Capital Spacing in Latin lookup 4 subtable" dx=5 dy=0 dh=10 dv=0
Position2: "'cpsp' Capital Spacing in Cyrillic lookup 3 subtable" dx=5 dy=0 dh=10 dv=0
Position2: "'cpsp' Capital Spacing lookup 2 subtable" dx=5 dy=0 dh=10 dv=0
Position2: "'cpsp' Capital Spacing lookup 1 subtable" dx=5 dy=0 dh=10 dv=0
EndChar

StartChar: Gdotaccent
Encoding: 304 288 227
GlifName: G_dotaccent
Width: 694
GlyphClass: 2
Flags: W
HStem: -14 21<281.092 425.644> 0 21G<612 634> 287 20<379 612> 683 21<296.381 446.303> 763 40<340.007 379.993>
VStem: 51 24<236.002 443.673> 340 40<763.007 802.993> 612 22<0 287 474 520.032>
LayerCount: 2
Fore
SplineSet
360 763 m 0x3f
 349 763 340 772 340 783 c 0
 340 794 349 803 360 803 c 0
 371 803 380 794 380 783 c 0
 380 772 371 763 360 763 c 0x3f
379 307 m 1
 634 307 l 1
 634 0 l 1
 612 0 l 1x7f
 612 184 l 1
 592 119 l 1
 535 23 442 -14 353 -14 c 0
 179 -14 51 118 51 343 c 0
 51 558 190 704 374 704 c 0
 525 704 609 608 634 484 c 2
 636 474 l 1
 614 474 l 1
 612 484 l 2
 589 597 507 683 370 683 c 0
 219 683 75 565 75 344 c 0
 75 115 204 7 355 7 c 0xbf
 460 7 612 75 612 287 c 1
 379 287 l 1
 379 307 l 1
EndSplineSet
Validated: 1
Position2: "'cpsp' Capital Spacing in Latin lookup 7 subtable" dx=5 dy=0 dh=10 dv=0
Position2: "'cpsp' Capital Spacing in Latin lookup 6 subtable" dx=5 dy=0 dh=10 dv=0
Position2: "'cpsp' Capital Spacing in Latin lookup 5 subtable" dx=5 dy=0 dh=10 dv=0
Position2: "'cpsp' Capital Spacing in Latin lookup 4 subtable" dx=5 dy=0 dh=10 dv=0
Position2: "'cpsp' Capital Spacing in Cyrillic lookup 3 subtable" dx=5 dy=0 dh=10 dv=0
Position2: "'cpsp' Capital Spacing lookup 2 subtable" dx=5 dy=0 dh=10 dv=0
Position2: "'cpsp' Capital Spacing lookup 1 subtable" dx=5 dy=0 dh=10 dv=0
EndChar

StartChar: Hbar
Encoding: 305 294 228
GlifName: H_bar
Width: 655
GlyphClass: 2
Flags: W
HStem: 0 21G<96 118 562 584> 328 21<118 562> 520 21<56 96 118 562 584 624> 670 20G<96 118 562 584>
VStem: 96 22<0 328 349 520 541 690> 562 22<0 328 349 520 541 690>
LayerCount: 2
Fore
SplineSet
624 520 m 1
 584 520 l 1
 584 0 l 1
 562 0 l 1
 562 328 l 1
 118 328 l 1
 118 0 l 1
 96 0 l 1
 96 520 l 1
 56 520 l 1
 56 541 l 1
 96 541 l 1
 96 690 l 1
 118 690 l 1
 118 541 l 1
 562 541 l 1
 562 690 l 1
 584 690 l 1
 584 541 l 1
 624 541 l 1
 624 520 l 1
562 520 m 1
 118 520 l 1
 118 349 l 1
 562 349 l 1
 562 520 l 1
EndSplineSet
Validated: 1
Position2: "'cpsp' Capital Spacing in Latin lookup 7 subtable" dx=5 dy=0 dh=10 dv=0
Position2: "'cpsp' Capital Spacing in Latin lookup 6 subtable" dx=5 dy=0 dh=10 dv=0
Position2: "'cpsp' Capital Spacing in Latin lookup 5 subtable" dx=5 dy=0 dh=10 dv=0
Position2: "'cpsp' Capital Spacing in Latin lookup 4 subtable" dx=5 dy=0 dh=10 dv=0
Position2: "'cpsp' Capital Spacing in Cyrillic lookup 3 subtable" dx=5 dy=0 dh=10 dv=0
Position2: "'cpsp' Capital Spacing lookup 2 subtable" dx=5 dy=0 dh=10 dv=0
Position2: "'cpsp' Capital Spacing lookup 1 subtable" dx=5 dy=0 dh=10 dv=0
EndChar

StartChar: IJ
Encoding: 306 306 229
GlifName: I_J_
Width: 684
GlyphClass: 2
Flags: W
HStem: -14 21<363.958 491.842> 0 21G<96 118> 670 20G<96 118 596 618>
VStem: 96 22<0 690> 237 22<125.498 224> 596 22<122.277 690>
LayerCount: 2
Fore
SplineSet
118 0 m 1x7c
 96 0 l 1
 96 690 l 1
 118 690 l 1
 118 0 l 1x7c
618 690 m 1
 618 260 l 2
 618 229 618 201 616 169 c 0
 610 77 554 -14 428 -14 c 0
 312 -14 242 53 237 194 c 2
 236 224 l 1
 258 224 l 1
 259 194 l 2
 264 56 337 7 430 7 c 0xbc
 528 7 585 68 594 172 c 0
 596 194 596 221 596 252 c 2
 596 690 l 1
 618 690 l 1
EndSplineSet
Validated: 1
Position2: "'cpsp' Capital Spacing in Latin lookup 7 subtable" dx=5 dy=0 dh=10 dv=0
Position2: "'cpsp' Capital Spacing in Latin lookup 6 subtable" dx=5 dy=0 dh=10 dv=0
Position2: "'cpsp' Capital Spacing in Latin lookup 5 subtable" dx=5 dy=0 dh=10 dv=0
Position2: "'cpsp' Capital Spacing in Latin lookup 4 subtable" dx=5 dy=0 dh=10 dv=0
Position2: "'cpsp' Capital Spacing in Cyrillic lookup 3 subtable" dx=5 dy=0 dh=10 dv=0
Position2: "'cpsp' Capital Spacing lookup 2 subtable" dx=5 dy=0 dh=10 dv=0
Position2: "'cpsp' Capital Spacing lookup 1 subtable" dx=5 dy=0 dh=10 dv=0
EndChar

StartChar: Iacute
Encoding: 307 205 230
GlifName: I_acute
Width: 189
GlyphClass: 2
Flags: W
HStem: 0 21G<96 118> 670 20G<96 118> 736 21G<95 127.191>
VStem: 96 22<0 690>
LayerCount: 2
Fore
SplineSet
114 736 m 1
 95 736 l 1
 148 830 l 1
 176 830 l 1
 114 736 l 1
118 0 m 1
 96 0 l 1
 96 690 l 1
 118 690 l 1
 118 0 l 1
EndSplineSet
Validated: 1
Position2: "'cpsp' Capital Spacing in Latin lookup 7 subtable" dx=5 dy=0 dh=10 dv=0
Position2: "'cpsp' Capital Spacing in Latin lookup 6 subtable" dx=5 dy=0 dh=10 dv=0
Position2: "'cpsp' Capital Spacing in Latin lookup 5 subtable" dx=5 dy=0 dh=10 dv=0
Position2: "'cpsp' Capital Spacing in Latin lookup 4 subtable" dx=5 dy=0 dh=10 dv=0
Position2: "'cpsp' Capital Spacing in Cyrillic lookup 3 subtable" dx=5 dy=0 dh=10 dv=0
Position2: "'cpsp' Capital Spacing lookup 2 subtable" dx=5 dy=0 dh=10 dv=0
Position2: "'cpsp' Capital Spacing lookup 1 subtable" dx=5 dy=0 dh=10 dv=0
EndChar

StartChar: Icircumflex
Encoding: 308 206 231
GlifName: I_circumflex
Width: 189
GlyphClass: 2
Flags: W
HStem: 0 21G<96 118> 670 20G<96 118> 736 21G<31 67.25 146.75 184>
VStem: 96 22<0 690>
LayerCount: 2
Fore
SplineSet
184 736 m 1
 160 736 l 1
 107 816 l 1
 54 736 l 1
 31 736 l 1
 96 830 l 1
 119 830 l 1
 184 736 l 1
96 690 m 1
 118 690 l 1
 118 0 l 1
 96 0 l 1
 96 690 l 1
EndSplineSet
Validated: 1
Position2: "'cpsp' Capital Spacing in Latin lookup 7 subtable" dx=5 dy=0 dh=10 dv=0
Position2: "'cpsp' Capital Spacing in Latin lookup 6 subtable" dx=5 dy=0 dh=10 dv=0
Position2: "'cpsp' Capital Spacing in Latin lookup 5 subtable" dx=5 dy=0 dh=10 dv=0
Position2: "'cpsp' Capital Spacing in Latin lookup 4 subtable" dx=5 dy=0 dh=10 dv=0
Position2: "'cpsp' Capital Spacing in Cyrillic lookup 3 subtable" dx=5 dy=0 dh=10 dv=0
Position2: "'cpsp' Capital Spacing lookup 2 subtable" dx=5 dy=0 dh=10 dv=0
Position2: "'cpsp' Capital Spacing lookup 1 subtable" dx=5 dy=0 dh=10 dv=0
EndChar

StartChar: Idieresis
Encoding: 309 207 232
GlifName: I_dieresis
Width: 189
GlyphClass: 2
Flags: W
HStem: 0 21G<96 118> 670 20G<96 118> 763 40<52.0066 91.9934 122.007 161.993>
VStem: 52 40<763.007 802.993> 96 22<0 690> 122 40<763.007 802.993>
CounterMasks: 1 1c
LayerCount: 2
Fore
SplineSet
72 803 m 0
 83 803 92 794 92 783 c 0
 92 772 83 763 72 763 c 0
 61 763 52 772 52 783 c 0
 52 794 61 803 72 803 c 0
142 803 m 0
 153 803 162 794 162 783 c 0
 162 772 153 763 142 763 c 0
 131 763 122 772 122 783 c 0
 122 794 131 803 142 803 c 0
118 0 m 1
 96 0 l 1
 96 690 l 1
 118 690 l 1
 118 0 l 1
EndSplineSet
Validated: 1
Position2: "'cpsp' Capital Spacing in Latin lookup 7 subtable" dx=5 dy=0 dh=10 dv=0
Position2: "'cpsp' Capital Spacing in Latin lookup 6 subtable" dx=5 dy=0 dh=10 dv=0
Position2: "'cpsp' Capital Spacing in Latin lookup 5 subtable" dx=5 dy=0 dh=10 dv=0
Position2: "'cpsp' Capital Spacing in Latin lookup 4 subtable" dx=5 dy=0 dh=10 dv=0
Position2: "'cpsp' Capital Spacing in Cyrillic lookup 3 subtable" dx=5 dy=0 dh=10 dv=0
Position2: "'cpsp' Capital Spacing lookup 2 subtable" dx=5 dy=0 dh=10 dv=0
Position2: "'cpsp' Capital Spacing lookup 1 subtable" dx=5 dy=0 dh=10 dv=0
EndChar

StartChar: Idotaccent
Encoding: 310 304 233
GlifName: I_dotaccent
Width: 189
GlyphClass: 2
Flags: W
HStem: 0 21G<96 118> 670 20G<96 118> 763 40<87.0066 126.993>
VStem: 87 40<763.007 802.993> 96 22<0 690>
LayerCount: 2
Fore
SplineSet
107 803 m 0xf0
 118 803 127 794 127 783 c 0
 127 772 118 763 107 763 c 0
 96 763 87 772 87 783 c 0
 87 794 96 803 107 803 c 0xf0
118 0 m 1xe8
 96 0 l 1
 96 690 l 1
 118 690 l 1
 118 0 l 1xe8
EndSplineSet
Validated: 1
Position2: "'cpsp' Capital Spacing in Latin lookup 7 subtable" dx=5 dy=0 dh=10 dv=0
Position2: "'cpsp' Capital Spacing in Latin lookup 6 subtable" dx=5 dy=0 dh=10 dv=0
Position2: "'cpsp' Capital Spacing in Latin lookup 5 subtable" dx=5 dy=0 dh=10 dv=0
Position2: "'cpsp' Capital Spacing in Latin lookup 4 subtable" dx=5 dy=0 dh=10 dv=0
Position2: "'cpsp' Capital Spacing in Cyrillic lookup 3 subtable" dx=5 dy=0 dh=10 dv=0
Position2: "'cpsp' Capital Spacing lookup 2 subtable" dx=5 dy=0 dh=10 dv=0
Position2: "'cpsp' Capital Spacing lookup 1 subtable" dx=5 dy=0 dh=10 dv=0
EndChar

StartChar: Igrave
Encoding: 311 204 234
GlifName: I_grave
Width: 189
GlyphClass: 2
Flags: W
HStem: 0 21G<96 118> 670 20G<96 118> 736 21G<83.8085 116>
VStem: 96 22<0 690>
LayerCount: 2
Fore
SplineSet
116 736 m 1
 97 736 l 1
 35 830 l 1
 63 830 l 1
 116 736 l 1
118 0 m 1
 96 0 l 1
 96 690 l 1
 118 690 l 1
 118 0 l 1
EndSplineSet
Validated: 1
Position2: "'cpsp' Capital Spacing in Latin lookup 7 subtable" dx=5 dy=0 dh=10 dv=0
Position2: "'cpsp' Capital Spacing in Latin lookup 6 subtable" dx=5 dy=0 dh=10 dv=0
Position2: "'cpsp' Capital Spacing in Latin lookup 5 subtable" dx=5 dy=0 dh=10 dv=0
Position2: "'cpsp' Capital Spacing in Latin lookup 4 subtable" dx=5 dy=0 dh=10 dv=0
Position2: "'cpsp' Capital Spacing in Cyrillic lookup 3 subtable" dx=5 dy=0 dh=10 dv=0
Position2: "'cpsp' Capital Spacing lookup 2 subtable" dx=5 dy=0 dh=10 dv=0
Position2: "'cpsp' Capital Spacing lookup 1 subtable" dx=5 dy=0 dh=10 dv=0
EndChar

StartChar: Imacron
Encoding: 312 298 235
GlifName: I_macron
Width: 189
GlyphClass: 2
Flags: W
HStem: 0 21G<96 118> 670 20G<96 118> 772 21<37 177>
VStem: 96 22<0 690>
LayerCount: 2
Fore
SplineSet
177 772 m 1
 37 772 l 1
 37 793 l 1
 177 793 l 1
 177 772 l 1
118 0 m 1
 96 0 l 1
 96 690 l 1
 118 690 l 1
 118 0 l 1
EndSplineSet
Validated: 1
Position2: "'cpsp' Capital Spacing in Latin lookup 7 subtable" dx=5 dy=0 dh=10 dv=0
Position2: "'cpsp' Capital Spacing in Latin lookup 6 subtable" dx=5 dy=0 dh=10 dv=0
Position2: "'cpsp' Capital Spacing in Latin lookup 5 subtable" dx=5 dy=0 dh=10 dv=0
Position2: "'cpsp' Capital Spacing in Latin lookup 4 subtable" dx=5 dy=0 dh=10 dv=0
Position2: "'cpsp' Capital Spacing in Cyrillic lookup 3 subtable" dx=5 dy=0 dh=10 dv=0
Position2: "'cpsp' Capital Spacing lookup 2 subtable" dx=5 dy=0 dh=10 dv=0
Position2: "'cpsp' Capital Spacing lookup 1 subtable" dx=5 dy=0 dh=10 dv=0
EndChar

StartChar: Iogonek
Encoding: 313 302 236
GlifName: I_ogonek
Width: 189
GlyphClass: 2
Flags: W
HStem: -223 20<13.48 81.9687> 670 20G<96 118>
VStem: -24 22<-187.98 -100.533> 96 22<4.3109 690>
LayerCount: 2
Fore
SplineSet
118 690 m 1
 118 0 l 1
 49 -30 -2 -84 -2 -151 c 0
 -2 -188 17 -203 44 -203 c 0
 67 -203 87 -194 109 -172 c 1
 109 -195 l 1
 90 -214 68 -223 40 -223 c 0
 8 -223 -24 -208 -24 -154 c 0
 -24 -84 23 -23 96 9 c 1
 96 690 l 1
 118 690 l 1
EndSplineSet
Validated: 1
Position2: "'cpsp' Capital Spacing in Latin lookup 7 subtable" dx=5 dy=0 dh=10 dv=0
Position2: "'cpsp' Capital Spacing in Latin lookup 6 subtable" dx=5 dy=0 dh=10 dv=0
Position2: "'cpsp' Capital Spacing in Latin lookup 5 subtable" dx=5 dy=0 dh=10 dv=0
Position2: "'cpsp' Capital Spacing in Latin lookup 4 subtable" dx=5 dy=0 dh=10 dv=0
Position2: "'cpsp' Capital Spacing in Cyrillic lookup 3 subtable" dx=5 dy=0 dh=10 dv=0
Position2: "'cpsp' Capital Spacing lookup 2 subtable" dx=5 dy=0 dh=10 dv=0
Position2: "'cpsp' Capital Spacing lookup 1 subtable" dx=5 dy=0 dh=10 dv=0
EndChar

StartChar: Kcommaaccent
Encoding: 314 310 237
GlifName: K_commaaccent
Width: 553
GlyphClass: 2
Flags: W
HStem: 0 21G<96 118 482.117 535> 670 20G<96 118 490.47 541>
VStem: 96 22<0 299 324 690>
LayerCount: 2
Fore
SplineSet
180 355 m 1
 535 0 l 1
 502 0 l 1
 163 341 l 1
 118 299 l 1
 118 0 l 1
 96 0 l 1
 96 690 l 1
 118 690 l 1
 118 324 l 1
 512 690 l 1
 541 690 l 1
 180 355 l 1
285 -51 m 1
 310 -51 l 1
 310 -56 l 1
 261 -173 l 1
 242 -173 l 1
 285 -51 l 1
EndSplineSet
Validated: 1
Position2: "'cpsp' Capital Spacing in Latin lookup 7 subtable" dx=5 dy=0 dh=10 dv=0
Position2: "'cpsp' Capital Spacing in Latin lookup 6 subtable" dx=5 dy=0 dh=10 dv=0
Position2: "'cpsp' Capital Spacing in Latin lookup 5 subtable" dx=5 dy=0 dh=10 dv=0
Position2: "'cpsp' Capital Spacing in Latin lookup 4 subtable" dx=5 dy=0 dh=10 dv=0
Position2: "'cpsp' Capital Spacing in Cyrillic lookup 3 subtable" dx=5 dy=0 dh=10 dv=0
Position2: "'cpsp' Capital Spacing lookup 2 subtable" dx=5 dy=0 dh=10 dv=0
Position2: "'cpsp' Capital Spacing lookup 1 subtable" dx=5 dy=0 dh=10 dv=0
EndChar

StartChar: Lacute
Encoding: 315 313 238
GlifName: L_acute
Width: 539
GlyphClass: 2
Flags: W
HStem: 0 20<118 525> 670 20G<96 118> 736 21G<95 127.191>
VStem: 96 22<20 690>
LayerCount: 2
Fore
SplineSet
114 736 m 1
 95 736 l 1
 148 830 l 1
 176 830 l 1
 114 736 l 1
525 20 m 1
 525 0 l 1
 96 0 l 1
 96 690 l 1
 118 690 l 1
 118 20 l 1
 525 20 l 1
EndSplineSet
Validated: 1
Position2: "'cpsp' Capital Spacing in Latin lookup 7 subtable" dx=5 dy=0 dh=10 dv=0
Position2: "'cpsp' Capital Spacing in Latin lookup 6 subtable" dx=5 dy=0 dh=10 dv=0
Position2: "'cpsp' Capital Spacing in Latin lookup 5 subtable" dx=5 dy=0 dh=10 dv=0
Position2: "'cpsp' Capital Spacing in Latin lookup 4 subtable" dx=5 dy=0 dh=10 dv=0
Position2: "'cpsp' Capital Spacing in Cyrillic lookup 3 subtable" dx=5 dy=0 dh=10 dv=0
Position2: "'cpsp' Capital Spacing lookup 2 subtable" dx=5 dy=0 dh=10 dv=0
Position2: "'cpsp' Capital Spacing lookup 1 subtable" dx=5 dy=0 dh=10 dv=0
EndChar

StartChar: Lcaron
Encoding: 316 317 239
GlifName: L_caron
Width: 539
GlyphClass: 2
Flags: W
HStem: 0 20<118 525> 670 20G<96 118>
VStem: 96 22<20 690>
LayerCount: 2
Fore
SplineSet
525 20 m 1
 525 0 l 1
 96 0 l 1
 96 690 l 1
 118 690 l 1
 118 20 l 1
 525 20 l 1
EndSplineSet
Validated: 1
Position2: "'cpsp' Capital Spacing in Latin lookup 7 subtable" dx=5 dy=0 dh=10 dv=0
Position2: "'cpsp' Capital Spacing in Latin lookup 6 subtable" dx=5 dy=0 dh=10 dv=0
Position2: "'cpsp' Capital Spacing in Latin lookup 5 subtable" dx=5 dy=0 dh=10 dv=0
Position2: "'cpsp' Capital Spacing in Latin lookup 4 subtable" dx=5 dy=0 dh=10 dv=0
Position2: "'cpsp' Capital Spacing in Cyrillic lookup 3 subtable" dx=5 dy=0 dh=10 dv=0
Position2: "'cpsp' Capital Spacing lookup 2 subtable" dx=5 dy=0 dh=10 dv=0
Position2: "'cpsp' Capital Spacing lookup 1 subtable" dx=5 dy=0 dh=10 dv=0
EndChar

StartChar: Lcommaaccent
Encoding: 317 315 240
GlifName: L_commaaccent
Width: 539
GlyphClass: 2
Flags: W
HStem: 0 20<118 525> 670 20G<96 118>
VStem: 96 22<20 690>
LayerCount: 2
Fore
SplineSet
525 20 m 1
 525 0 l 1
 96 0 l 1
 96 690 l 1
 118 690 l 1
 118 20 l 1
 525 20 l 1
278 -51 m 1
 303 -51 l 1
 303 -56 l 1
 254 -173 l 1
 235 -173 l 1
 278 -51 l 1
EndSplineSet
Validated: 1
Position2: "'cpsp' Capital Spacing in Latin lookup 7 subtable" dx=5 dy=0 dh=10 dv=0
Position2: "'cpsp' Capital Spacing in Latin lookup 6 subtable" dx=5 dy=0 dh=10 dv=0
Position2: "'cpsp' Capital Spacing in Latin lookup 5 subtable" dx=5 dy=0 dh=10 dv=0
Position2: "'cpsp' Capital Spacing in Latin lookup 4 subtable" dx=5 dy=0 dh=10 dv=0
Position2: "'cpsp' Capital Spacing in Cyrillic lookup 3 subtable" dx=5 dy=0 dh=10 dv=0
Position2: "'cpsp' Capital Spacing lookup 2 subtable" dx=5 dy=0 dh=10 dv=0
Position2: "'cpsp' Capital Spacing lookup 1 subtable" dx=5 dy=0 dh=10 dv=0
EndChar

StartChar: Ldot
Encoding: 318 319 241
GlifName: L_dot
Width: 539
GlyphClass: 3
Flags: W
HStem: 0 20<118 525> 380 40<310.007 349.993> 670 20G<96 118>
VStem: 96 22<20 690> 310 40<380.007 419.993>
LayerCount: 2
Fore
SplineSet
525 20 m 1
 525 0 l 1
 96 0 l 1
 96 690 l 1
 118 690 l 1
 118 20 l 1
 525 20 l 1
330 380 m 0
 319 380 310 389 310 400 c 0
 310 411 319 420 330 420 c 0
 341 420 350 411 350 400 c 0
 350 389 341 380 330 380 c 0
EndSplineSet
Validated: 1
Ligature2: "Ligature Substitution lookup 12 subtable" L periodcentered
Position2: "'cpsp' Capital Spacing in Latin lookup 7 subtable" dx=5 dy=0 dh=10 dv=0
Position2: "'cpsp' Capital Spacing in Latin lookup 6 subtable" dx=5 dy=0 dh=10 dv=0
Position2: "'cpsp' Capital Spacing in Latin lookup 5 subtable" dx=5 dy=0 dh=10 dv=0
Position2: "'cpsp' Capital Spacing in Latin lookup 4 subtable" dx=5 dy=0 dh=10 dv=0
Position2: "'cpsp' Capital Spacing in Cyrillic lookup 3 subtable" dx=5 dy=0 dh=10 dv=0
Position2: "'cpsp' Capital Spacing lookup 2 subtable" dx=5 dy=0 dh=10 dv=0
Position2: "'cpsp' Capital Spacing lookup 1 subtable" dx=5 dy=0 dh=10 dv=0
EndChar

StartChar: Lslash
Encoding: 319 321 242
GlifName: L_slash
Width: 571
GlyphClass: 2
Flags: W
HStem: 0 20<150 557> 670 20G<128 150>
VStem: 128 22<20 313 350 690>
LayerCount: 2
Fore
SplineSet
557 20 m 1
 557 0 l 1
 128 0 l 1
 128 313 l 1
 14 245 l 1
 14 269 l 1
 128 337 l 1
 128 690 l 1
 150 690 l 1
 150 350 l 1
 334 459 l 1
 334 435 l 1
 150 326 l 1
 150 20 l 1
 557 20 l 1
EndSplineSet
Validated: 1
Position2: "'cpsp' Capital Spacing in Latin lookup 7 subtable" dx=5 dy=0 dh=10 dv=0
Position2: "'cpsp' Capital Spacing in Latin lookup 6 subtable" dx=5 dy=0 dh=10 dv=0
Position2: "'cpsp' Capital Spacing in Latin lookup 5 subtable" dx=5 dy=0 dh=10 dv=0
Position2: "'cpsp' Capital Spacing in Latin lookup 4 subtable" dx=5 dy=0 dh=10 dv=0
Position2: "'cpsp' Capital Spacing in Cyrillic lookup 3 subtable" dx=5 dy=0 dh=10 dv=0
Position2: "'cpsp' Capital Spacing lookup 2 subtable" dx=5 dy=0 dh=10 dv=0
Position2: "'cpsp' Capital Spacing lookup 1 subtable" dx=5 dy=0 dh=10 dv=0
EndChar

StartChar: Nacute
Encoding: 320 323 243
GlifName: N_acute
Width: 637
GlyphClass: 2
Flags: W
HStem: 0 21G<96 118 519.582 566> 670 20G<96 141.448 544 566> 736 21G<319 351.191>
VStem: 96 22<0 670> 544 22<20 690>
LayerCount: 2
Fore
SplineSet
338 736 m 1
 319 736 l 1
 372 830 l 1
 400 830 l 1
 338 736 l 1
566 0 m 1
 532 0 l 1
 116 670 l 1
 118 577 118 468 118 375 c 2
 118 0 l 1
 96 0 l 1
 96 690 l 1
 129 690 l 1
 546 20 l 1
 544 113 544 222 544 315 c 2
 544 690 l 1
 566 690 l 1
 566 0 l 1
EndSplineSet
Validated: 1
Position2: "'cpsp' Capital Spacing in Latin lookup 7 subtable" dx=5 dy=0 dh=10 dv=0
Position2: "'cpsp' Capital Spacing in Latin lookup 6 subtable" dx=5 dy=0 dh=10 dv=0
Position2: "'cpsp' Capital Spacing in Latin lookup 5 subtable" dx=5 dy=0 dh=10 dv=0
Position2: "'cpsp' Capital Spacing in Latin lookup 4 subtable" dx=5 dy=0 dh=10 dv=0
Position2: "'cpsp' Capital Spacing in Cyrillic lookup 3 subtable" dx=5 dy=0 dh=10 dv=0
Position2: "'cpsp' Capital Spacing lookup 2 subtable" dx=5 dy=0 dh=10 dv=0
Position2: "'cpsp' Capital Spacing lookup 1 subtable" dx=5 dy=0 dh=10 dv=0
EndChar

StartChar: Ncaron
Encoding: 321 327 244
GlifName: N_caron
Width: 637
GlyphClass: 2
Flags: W
HStem: 0 21G<96 118 519.582 566> 670 20G<96 141.448 544 566> 736 21G<306.17 356.83>
VStem: 96 22<0 670> 544 22<20 690>
LayerCount: 2
Fore
SplineSet
320 736 m 1
 255 830 l 1
 279 830 l 1
 332 750 l 1
 385 830 l 1
 408 830 l 1
 343 736 l 1
 320 736 l 1
566 690 m 1
 566 0 l 1
 532 0 l 1
 116 670 l 1
 118 577 118 468 118 375 c 2
 118 0 l 1
 96 0 l 1
 96 690 l 1
 129 690 l 1
 546 20 l 1
 544 113 544 222 544 315 c 2
 544 690 l 1
 566 690 l 1
EndSplineSet
Validated: 1
Position2: "'cpsp' Capital Spacing in Latin lookup 7 subtable" dx=5 dy=0 dh=10 dv=0
Position2: "'cpsp' Capital Spacing in Latin lookup 6 subtable" dx=5 dy=0 dh=10 dv=0
Position2: "'cpsp' Capital Spacing in Latin lookup 5 subtable" dx=5 dy=0 dh=10 dv=0
Position2: "'cpsp' Capital Spacing in Latin lookup 4 subtable" dx=5 dy=0 dh=10 dv=0
Position2: "'cpsp' Capital Spacing in Cyrillic lookup 3 subtable" dx=5 dy=0 dh=10 dv=0
Position2: "'cpsp' Capital Spacing lookup 2 subtable" dx=5 dy=0 dh=10 dv=0
Position2: "'cpsp' Capital Spacing lookup 1 subtable" dx=5 dy=0 dh=10 dv=0
EndChar

StartChar: Ncommaaccent
Encoding: 322 325 245
GlifName: N_commaaccent
Width: 637
GlyphClass: 2
Flags: W
HStem: 0 21G<96 118 519.582 566> 670 20G<96 141.448 544 566>
VStem: 96 22<0 670> 544 22<20 690>
LayerCount: 2
Fore
SplineSet
566 0 m 1
 532 0 l 1
 116 670 l 1
 118 577 118 468 118 375 c 2
 118 0 l 1
 96 0 l 1
 96 690 l 1
 129 690 l 1
 546 20 l 1
 544 113 544 222 544 315 c 2
 544 690 l 1
 566 690 l 1
 566 0 l 1
344 -56 m 1
 295 -173 l 1
 276 -173 l 1
 319 -51 l 1
 344 -51 l 1
 344 -56 l 1
EndSplineSet
Validated: 1
Position2: "'cpsp' Capital Spacing in Latin lookup 7 subtable" dx=5 dy=0 dh=10 dv=0
Position2: "'cpsp' Capital Spacing in Latin lookup 6 subtable" dx=5 dy=0 dh=10 dv=0
Position2: "'cpsp' Capital Spacing in Latin lookup 5 subtable" dx=5 dy=0 dh=10 dv=0
Position2: "'cpsp' Capital Spacing in Latin lookup 4 subtable" dx=5 dy=0 dh=10 dv=0
Position2: "'cpsp' Capital Spacing in Cyrillic lookup 3 subtable" dx=5 dy=0 dh=10 dv=0
Position2: "'cpsp' Capital Spacing lookup 2 subtable" dx=5 dy=0 dh=10 dv=0
Position2: "'cpsp' Capital Spacing lookup 1 subtable" dx=5 dy=0 dh=10 dv=0
EndChar

StartChar: Eng
Encoding: 323 330 246
GlifName: E_ng
Width: 637
GlyphClass: 2
Flags: W
HStem: -223 21<428 491.313> 0 21G<96 118> 670 20G<96 141.448 544 566>
VStem: 96 22<0 670> 544 22<-148.434 -19 20 690>
LayerCount: 2
Fore
SplineSet
566 690 m 1
 566 -67 l 2
 566 -85 566 -94 565 -108 c 0
 559 -189 515 -220 428 -223 c 1
 428 -202 l 1
 505 -202 544 -175 544 -83 c 2
 544 -19 l 1
 116 670 l 1
 118 577 118 468 118 375 c 2
 118 0 l 1
 96 0 l 1
 96 690 l 1
 129 690 l 1
 546 20 l 1
 544 113 544 222 544 315 c 2
 544 690 l 1
 566 690 l 1
EndSplineSet
Validated: 1
Position2: "'cpsp' Capital Spacing in Latin lookup 7 subtable" dx=5 dy=0 dh=10 dv=0
Position2: "'cpsp' Capital Spacing in Latin lookup 6 subtable" dx=5 dy=0 dh=10 dv=0
Position2: "'cpsp' Capital Spacing in Latin lookup 5 subtable" dx=5 dy=0 dh=10 dv=0
Position2: "'cpsp' Capital Spacing in Latin lookup 4 subtable" dx=5 dy=0 dh=10 dv=0
Position2: "'cpsp' Capital Spacing in Cyrillic lookup 3 subtable" dx=5 dy=0 dh=10 dv=0
Position2: "'cpsp' Capital Spacing lookup 2 subtable" dx=5 dy=0 dh=10 dv=0
Position2: "'cpsp' Capital Spacing lookup 1 subtable" dx=5 dy=0 dh=10 dv=0
EndChar

StartChar: Ntilde
Encoding: 324 209 247
GlifName: N_tilde
Width: 637
GlyphClass: 2
Flags: W
HStem: 0 21G<96 118 519.582 566> 670 20G<96 141.448 544 566> 761 20<342.763 397.247> 786 20<264.753 319.237>
VStem: 96 22<0 670> 243 20<765 784.238> 399 20<782.762 802> 544 22<20 690>
LayerCount: 2
Fore
SplineSet
279 806 m 0
 295 806 309 802 336 793 c 0
 360 785 374 781 383 781 c 0
 393 781 399 787 399 802 c 1
 419 802 l 1
 419 776 407 761 383 761 c 0
 367 761 353 765 326 774 c 0
 302 782 288 786 279 786 c 0
 269 786 263 780 263 765 c 1
 243 765 l 1
 243 791 255 806 279 806 c 0
566 0 m 1
 532 0 l 1
 116 670 l 1
 118 577 118 468 118 375 c 2
 118 0 l 1
 96 0 l 1
 96 690 l 1
 129 690 l 1
 546 20 l 1
 544 113 544 222 544 315 c 2
 544 690 l 1
 566 690 l 1
 566 0 l 1
EndSplineSet
Validated: 1
Position2: "'cpsp' Capital Spacing in Latin lookup 7 subtable" dx=5 dy=0 dh=10 dv=0
Position2: "'cpsp' Capital Spacing in Latin lookup 6 subtable" dx=5 dy=0 dh=10 dv=0
Position2: "'cpsp' Capital Spacing in Latin lookup 5 subtable" dx=5 dy=0 dh=10 dv=0
Position2: "'cpsp' Capital Spacing in Latin lookup 4 subtable" dx=5 dy=0 dh=10 dv=0
Position2: "'cpsp' Capital Spacing in Cyrillic lookup 3 subtable" dx=5 dy=0 dh=10 dv=0
Position2: "'cpsp' Capital Spacing lookup 2 subtable" dx=5 dy=0 dh=10 dv=0
Position2: "'cpsp' Capital Spacing lookup 1 subtable" dx=5 dy=0 dh=10 dv=0
EndChar

StartChar: Oacute
Encoding: 325 211 248
GlifName: O_acute
Width: 713
GlyphClass: 2
Flags: W
HStem: -14 21<290.182 435.818> 683 21<290.182 435.818> 736 21G<351 383.191>
VStem: 51 24<243.042 447.312> 651 24<243.042 447.312>
LayerCount: 2
Fore
SplineSet
370 736 m 1
 351 736 l 1
 404 830 l 1
 432 830 l 1
 370 736 l 1
363 704 m 0
 551 704 675 552 675 345 c 0
 675 139 551 -14 363 -14 c 0
 175 -14 51 139 51 345 c 0
 51 552 175 704 363 704 c 0
363 7 m 0
 517 7 651 129 651 345 c 0
 651 562 517 683 363 683 c 0
 209 683 75 562 75 345 c 0
 75 129 209 7 363 7 c 0
EndSplineSet
Validated: 1
Position2: "'cpsp' Capital Spacing in Latin lookup 7 subtable" dx=5 dy=0 dh=10 dv=0
Position2: "'cpsp' Capital Spacing in Latin lookup 6 subtable" dx=5 dy=0 dh=10 dv=0
Position2: "'cpsp' Capital Spacing in Latin lookup 5 subtable" dx=5 dy=0 dh=10 dv=0
Position2: "'cpsp' Capital Spacing in Latin lookup 4 subtable" dx=5 dy=0 dh=10 dv=0
Position2: "'cpsp' Capital Spacing in Cyrillic lookup 3 subtable" dx=5 dy=0 dh=10 dv=0
Position2: "'cpsp' Capital Spacing lookup 2 subtable" dx=5 dy=0 dh=10 dv=0
Position2: "'cpsp' Capital Spacing lookup 1 subtable" dx=5 dy=0 dh=10 dv=0
EndChar

StartChar: Ocircumflex
Encoding: 326 212 249
GlifName: O_circumflex
Width: 713
GlyphClass: 2
Flags: W
HStem: -14 21<290.182 435.818> 683 21<290.182 435.818> 736 21G<287 323.25 402.75 440>
VStem: 51 24<243.042 447.312> 651 24<243.042 447.312>
LayerCount: 2
Fore
SplineSet
310 736 m 1
 287 736 l 1
 352 830 l 1
 375 830 l 1
 440 736 l 1
 416 736 l 1
 363 816 l 1
 310 736 l 1
363 704 m 0
 551 704 675 552 675 345 c 0
 675 139 551 -14 363 -14 c 0
 175 -14 51 139 51 345 c 0
 51 552 175 704 363 704 c 0
363 7 m 0
 517 7 651 129 651 345 c 0
 651 562 517 683 363 683 c 0
 209 683 75 562 75 345 c 0
 75 129 209 7 363 7 c 0
EndSplineSet
Validated: 1
Position2: "'cpsp' Capital Spacing in Latin lookup 7 subtable" dx=5 dy=0 dh=10 dv=0
Position2: "'cpsp' Capital Spacing in Latin lookup 6 subtable" dx=5 dy=0 dh=10 dv=0
Position2: "'cpsp' Capital Spacing in Latin lookup 5 subtable" dx=5 dy=0 dh=10 dv=0
Position2: "'cpsp' Capital Spacing in Latin lookup 4 subtable" dx=5 dy=0 dh=10 dv=0
Position2: "'cpsp' Capital Spacing in Cyrillic lookup 3 subtable" dx=5 dy=0 dh=10 dv=0
Position2: "'cpsp' Capital Spacing lookup 2 subtable" dx=5 dy=0 dh=10 dv=0
Position2: "'cpsp' Capital Spacing lookup 1 subtable" dx=5 dy=0 dh=10 dv=0
EndChar

StartChar: Odieresis
Encoding: 327 214 250
GlifName: O_dieresis
Width: 713
GlyphClass: 2
Flags: W
HStem: -14 21<290.182 435.818> 683 21<290.182 435.818> 763 40<308.007 347.993 378.007 417.993>
VStem: 51 24<243.042 447.312> 308 40<763.007 802.993> 378 40<763.007 802.993> 651 24<243.042 447.312>
LayerCount: 2
Fore
SplineSet
328 763 m 0
 317 763 308 772 308 783 c 0
 308 794 317 803 328 803 c 0
 339 803 348 794 348 783 c 0
 348 772 339 763 328 763 c 0
398 763 m 0
 387 763 378 772 378 783 c 0
 378 794 387 803 398 803 c 0
 409 803 418 794 418 783 c 0
 418 772 409 763 398 763 c 0
363 704 m 0
 551 704 675 552 675 345 c 0
 675 139 551 -14 363 -14 c 0
 175 -14 51 139 51 345 c 0
 51 552 175 704 363 704 c 0
363 7 m 0
 517 7 651 129 651 345 c 0
 651 562 517 683 363 683 c 0
 209 683 75 562 75 345 c 0
 75 129 209 7 363 7 c 0
EndSplineSet
Validated: 1
Position2: "'cpsp' Capital Spacing in Latin lookup 7 subtable" dx=5 dy=0 dh=10 dv=0
Position2: "'cpsp' Capital Spacing in Latin lookup 6 subtable" dx=5 dy=0 dh=10 dv=0
Position2: "'cpsp' Capital Spacing in Latin lookup 5 subtable" dx=5 dy=0 dh=10 dv=0
Position2: "'cpsp' Capital Spacing in Latin lookup 4 subtable" dx=5 dy=0 dh=10 dv=0
Position2: "'cpsp' Capital Spacing in Cyrillic lookup 3 subtable" dx=5 dy=0 dh=10 dv=0
Position2: "'cpsp' Capital Spacing lookup 2 subtable" dx=5 dy=0 dh=10 dv=0
Position2: "'cpsp' Capital Spacing lookup 1 subtable" dx=5 dy=0 dh=10 dv=0
EndChar

StartChar: Ograve
Encoding: 328 210 251
GlifName: O_grave
Width: 713
GlyphClass: 2
Flags: W
HStem: -14 21<290.182 435.818> 683 21<290.182 435.818> 736 21G<339.809 372>
VStem: 51 24<243.042 447.312> 651 24<243.042 447.312>
LayerCount: 2
Fore
SplineSet
353 736 m 1
 291 830 l 1
 319 830 l 1
 372 736 l 1
 353 736 l 1
363 704 m 0
 551 704 675 552 675 345 c 0
 675 139 551 -14 363 -14 c 0
 175 -14 51 139 51 345 c 0
 51 552 175 704 363 704 c 0
363 7 m 0
 517 7 651 129 651 345 c 0
 651 562 517 683 363 683 c 0
 209 683 75 562 75 345 c 0
 75 129 209 7 363 7 c 0
EndSplineSet
Validated: 1
Position2: "'cpsp' Capital Spacing in Latin lookup 7 subtable" dx=5 dy=0 dh=10 dv=0
Position2: "'cpsp' Capital Spacing in Latin lookup 6 subtable" dx=5 dy=0 dh=10 dv=0
Position2: "'cpsp' Capital Spacing in Latin lookup 5 subtable" dx=5 dy=0 dh=10 dv=0
Position2: "'cpsp' Capital Spacing in Latin lookup 4 subtable" dx=5 dy=0 dh=10 dv=0
Position2: "'cpsp' Capital Spacing in Cyrillic lookup 3 subtable" dx=5 dy=0 dh=10 dv=0
Position2: "'cpsp' Capital Spacing lookup 2 subtable" dx=5 dy=0 dh=10 dv=0
Position2: "'cpsp' Capital Spacing lookup 1 subtable" dx=5 dy=0 dh=10 dv=0
EndChar

StartChar: Ohungarumlaut
Encoding: 329 336 252
GlifName: O_hungarumlaut
Width: 713
GlyphClass: 2
Flags: W
HStem: -14 21<290.182 435.818> 683 21<290.182 435.818> 736 21G<309 341.191 396 428.191>
VStem: 51 24<243.042 447.312> 651 24<243.042 447.312>
LayerCount: 2
Fore
SplineSet
328 736 m 1
 309 736 l 1
 362 830 l 1
 390 830 l 1
 328 736 l 1
415 736 m 1
 396 736 l 1
 449 830 l 1
 477 830 l 1
 415 736 l 1
363 704 m 0
 551 704 675 552 675 345 c 0
 675 139 551 -14 363 -14 c 0
 175 -14 51 139 51 345 c 0
 51 552 175 704 363 704 c 0
363 7 m 0
 517 7 651 129 651 345 c 0
 651 562 517 683 363 683 c 0
 209 683 75 562 75 345 c 0
 75 129 209 7 363 7 c 0
EndSplineSet
Validated: 1
Position2: "'cpsp' Capital Spacing in Latin lookup 7 subtable" dx=5 dy=0 dh=10 dv=0
Position2: "'cpsp' Capital Spacing in Latin lookup 6 subtable" dx=5 dy=0 dh=10 dv=0
Position2: "'cpsp' Capital Spacing in Latin lookup 5 subtable" dx=5 dy=0 dh=10 dv=0
Position2: "'cpsp' Capital Spacing in Latin lookup 4 subtable" dx=5 dy=0 dh=10 dv=0
Position2: "'cpsp' Capital Spacing in Cyrillic lookup 3 subtable" dx=5 dy=0 dh=10 dv=0
Position2: "'cpsp' Capital Spacing lookup 2 subtable" dx=5 dy=0 dh=10 dv=0
Position2: "'cpsp' Capital Spacing lookup 1 subtable" dx=5 dy=0 dh=10 dv=0
EndChar

StartChar: Omacron
Encoding: 330 332 253
GlifName: O_macron
Width: 713
GlyphClass: 2
Flags: W
HStem: -14 21<290.182 435.818> 683 21<290.182 435.818> 772 21<293 433>
VStem: 51 24<243.042 447.312> 651 24<243.042 447.312>
LayerCount: 2
Fore
SplineSet
433 772 m 1
 293 772 l 1
 293 793 l 1
 433 793 l 1
 433 772 l 1
363 704 m 0
 551 704 675 552 675 345 c 0
 675 139 551 -14 363 -14 c 0
 175 -14 51 139 51 345 c 0
 51 552 175 704 363 704 c 0
363 7 m 0
 517 7 651 129 651 345 c 0
 651 562 517 683 363 683 c 0
 209 683 75 562 75 345 c 0
 75 129 209 7 363 7 c 0
EndSplineSet
Validated: 1
Position2: "'cpsp' Capital Spacing in Latin lookup 7 subtable" dx=5 dy=0 dh=10 dv=0
Position2: "'cpsp' Capital Spacing in Latin lookup 6 subtable" dx=5 dy=0 dh=10 dv=0
Position2: "'cpsp' Capital Spacing in Latin lookup 5 subtable" dx=5 dy=0 dh=10 dv=0
Position2: "'cpsp' Capital Spacing in Latin lookup 4 subtable" dx=5 dy=0 dh=10 dv=0
Position2: "'cpsp' Capital Spacing in Cyrillic lookup 3 subtable" dx=5 dy=0 dh=10 dv=0
Position2: "'cpsp' Capital Spacing lookup 2 subtable" dx=5 dy=0 dh=10 dv=0
Position2: "'cpsp' Capital Spacing lookup 1 subtable" dx=5 dy=0 dh=10 dv=0
EndChar

